EncodeSansExpanded-Medium.ufo
<glyph name="exclam" format="2">
  <advance width="586.8888888888889"/>
  <unicode hex="0021"/>
  <outline>
    <contour>
      <point x="225.88888888888889" y="400.00000000000006" type="line"/>
      <point x="363.33333333333337" y="400.00000000000006" type="line"/>
      <point x="410.33333333333337" y="931.2222222222223" type="line"/>
      <point x="410.33333333333337" y="1480.0" type="line"/>
      <point x="176.55555555555554" y="1480.0" type="line"/>
      <point x="176.55555555555554" y="931.2222222222223" type="line"/>
    </contour>
    <contour>
      <point x="293.44444444444446" y="-13.888888888888891" type="curve" smooth="yes"/>
      <point x="386.2222222222223" y="-13.888888888888891"/>
      <point x="444.1111111111112" y="37.33333333333334"/>
      <point x="444.1111111111112" y="115.7777777777778" type="curve" smooth="yes"/>
      <point x="444.1111111111112" y="194.22222222222226"/>
      <point x="387.7777777777778" y="246.6666666666667"/>
      <point x="293.44444444444446" y="246.6666666666667" type="curve" smooth="yes"/>
      <point x="199.11111111111111" y="246.6666666666667"/>
      <point x="142.77777777777777" y="195.77777777777783"/>
      <point x="142.77777777777777" y="115.7777777777778" type="curve" smooth="yes"/>
      <point x="142.77777777777777" y="35.777777777777786"/>
      <point x="200.66666666666666" y="-13.888888888888891"/>
    </contour>
  </outline>
</glyph>
<glyph name="dollar" format="2">
  <advance width="1241.111111111111"/>
  <unicode hex="0024"/>
  <outline>
    <contour>
      <point x="547.7777777777778" y="-18.77777777777778" type="curve" smooth="yes"/>
      <point x="931.8888888888889" y="-18.77777777777778"/>
      <point x="1153.888888888889" y="140.33333333333334"/>
      <point x="1153.888888888889" y="415.8888888888889" type="curve" smooth="yes"/>
      <point x="1153.888888888889" y="632.4444444444445"/>
      <point x="1024.3333333333335" y="762.8888888888889"/>
      <point x="684.5555555555555" y="828.7777777777778" type="curve" smooth="yes"/>
      <point x="584.5555555555555" y="848.2222222222223" type="line" smooth="yes"/>
      <point x="380.4444444444445" y="888.5555555555555"/>
      <point x="312.4444444444445" y="950.8888888888889"/>
      <point x="312.4444444444445" y="1080.0" type="curve" smooth="yes"/>
      <point x="312.4444444444445" y="1229.6666666666665"/>
      <point x="426.6666666666667" y="1317.6666666666665"/>
      <point x="707.1111111111111" y="1317.6666666666665" type="curve" smooth="yes"/>
      <point x="831.8888888888889" y="1317.6666666666665"/>
      <point x="967.8888888888889" y="1298.888888888889"/>
      <point x="1082.5555555555557" y="1264.7777777777778" type="curve"/>
      <point x="1082.5555555555557" y="1449.4444444444443" type="line"/>
      <point x="971.6666666666667" y="1480.7777777777778"/>
      <point x="838.6666666666667" y="1498.7777777777778"/>
      <point x="700.2222222222223" y="1498.7777777777778" type="curve" smooth="yes"/>
      <point x="289.22222222222223" y="1498.7777777777778"/>
      <point x="87.22222222222221" y="1337.7777777777778"/>
      <point x="87.22222222222221" y="1071.3333333333333" type="curve" smooth="yes"/>
      <point x="87.22222222222221" y="850.4444444444445"/>
      <point x="218.0" y="718.6666666666666"/>
      <point x="527.0" y="658.7777777777777" type="curve" smooth="yes"/>
      <point x="627.0" y="639.3333333333333" type="line" smooth="yes"/>
      <point x="848.1111111111111" y="596.2222222222222"/>
      <point x="928.6666666666666" y="538.0"/>
      <point x="928.6666666666666" y="405.33333333333337" type="curve" smooth="yes"/>
      <point x="928.6666666666666" y="248.77777777777783"/>
      <point x="818.2222222222222" y="162.33333333333337"/>
      <point x="547.4444444444445" y="162.33333333333337" type="curve" smooth="yes"/>
      <point x="427.55555555555554" y="162.33333333333337"/>
      <point x="257.0" y="183.4444444444445"/>
      <point x="114.55555555555554" y="229.88888888888894" type="curve"/>
      <point x="114.55555555555554" y="45.22222222222222" type="line"/>
      <point x="248.0" y="3.555555555555557"/>
      <point x="399.33333333333337" y="-18.77777777777778"/>
    </contour>
    <contour>
      <point x="515.6666666666666" y="-240.0" type="line"/>
      <point x="725.8888888888889" y="-240.0" type="line"/>
      <point x="725.8888888888889" y="23.333333333333343" type="line"/>
      <point x="515.6666666666666" y="23.333333333333343" type="line"/>
    </contour>
    <contour>
      <point x="515.6666666666666" y="1456.6666666666667" type="line"/>
      <point x="725.8888888888889" y="1456.6666666666667" type="line"/>
      <point x="725.8888888888889" y="1720.0" type="line"/>
      <point x="515.6666666666666" y="1720.0" type="line"/>
    </contour>
  </outline>
</glyph>
<glyph name="percent" format="2">
  <advance width="2111.777777777778"/>
  <unicode hex="0025"/>
  <note>
450
</note>
  <outline>
    <contour>
      <point x="586.5555555555557" y="0.0" type="line"/>
      <point x="778.7777777777778" y="0.0" type="line"/>
      <point x="1525.2222222222222" y="1480.0" type="line"/>
      <point x="1333.0" y="1480.0" type="line"/>
    </contour>
    <contour>
      <point x="508.0" y="573.3333333333334" type="curve" smooth="yes"/>
      <point x="735.3333333333334" y="573.3333333333334"/>
      <point x="897.8888888888889" y="719.2222222222222"/>
      <point x="897.8888888888889" y="1035.6666666666667" type="curve" smooth="yes"/>
      <point x="897.8888888888889" y="1352.111111111111"/>
      <point x="737.7777777777778" y="1498.7777777777778"/>
      <point x="508.0" y="1498.7777777777778" type="curve" smooth="yes"/>
      <point x="278.22222222222223" y="1498.7777777777778"/>
      <point x="118.1111111111111" y="1352.111111111111"/>
      <point x="118.1111111111111" y="1035.6666666666667" type="curve" smooth="yes"/>
      <point x="118.1111111111111" y="719.2222222222222"/>
      <point x="280.6666666666667" y="573.3333333333334"/>
    </contour>
    <contour>
      <point x="508.0" y="718.2222222222223" type="curve" smooth="yes"/>
      <point x="383.11111111111114" y="718.2222222222223"/>
      <point x="295.7777777777778" y="806.0"/>
      <point x="295.7777777777778" y="1036.888888888889" type="curve" smooth="yes"/>
      <point x="295.7777777777778" y="1267.7777777777778"/>
      <point x="383.11111111111114" y="1353.888888888889"/>
      <point x="508.0" y="1353.888888888889" type="curve" smooth="yes"/>
      <point x="631.6666666666666" y="1353.888888888889"/>
      <point x="720.2222222222222" y="1267.7777777777778"/>
      <point x="720.2222222222222" y="1034.4444444444443" type="curve" smooth="yes"/>
      <point x="720.2222222222222" y="801.1111111111111"/>
      <point x="631.6666666666666" y="718.2222222222223"/>
    </contour>
    <contour>
      <point x="1603.7777777777778" y="-18.0" type="curve" smooth="yes"/>
      <point x="1831.1111111111113" y="-18.0"/>
      <point x="1993.6666666666667" y="127.8888888888889"/>
      <point x="1993.6666666666667" y="444.3333333333333" type="curve" smooth="yes"/>
      <point x="1993.6666666666667" y="760.7777777777778"/>
      <point x="1833.5555555555557" y="907.4444444444445"/>
      <point x="1603.7777777777778" y="907.4444444444445" type="curve" smooth="yes"/>
      <point x="1374.0" y="907.4444444444445"/>
      <point x="1213.888888888889" y="760.7777777777778"/>
      <point x="1213.888888888889" y="444.3333333333333" type="curve" smooth="yes"/>
      <point x="1213.888888888889" y="127.8888888888889"/>
      <point x="1376.4444444444446" y="-18.0"/>
    </contour>
    <contour>
      <point x="1603.7777777777778" y="126.88888888888893" type="curve" smooth="yes"/>
      <point x="1480.1111111111113" y="126.88888888888893"/>
      <point x="1391.5555555555557" y="214.66666666666669"/>
      <point x="1391.5555555555557" y="445.55555555555554" type="curve" smooth="yes"/>
      <point x="1391.5555555555557" y="676.4444444444445"/>
      <point x="1480.1111111111113" y="762.5555555555555"/>
      <point x="1603.7777777777778" y="762.5555555555555" type="curve" smooth="yes"/>
      <point x="1727.4444444444446" y="762.5555555555555"/>
      <point x="1816.0" y="676.4444444444445"/>
      <point x="1816.0" y="443.1111111111111" type="curve" smooth="yes"/>
      <point x="1816.0" y="209.7777777777778"/>
      <point x="1727.4444444444446" y="126.88888888888893"/>
    </contour>
  </outline>
</glyph>
<glyph name="ampersand" format="2">
  <advance width="1707.888888888889"/>
  <unicode hex="0026"/>
  <outline>
    <contour>
      <point x="1615.888888888889" y="-20.0" type="line"/>
      <point x="1707.888888888889" y="141.33333333333337" type="line"/>
      <point x="793.2222222222222" y="727.5555555555555" type="line" smooth="yes"/>
      <point x="590.7777777777778" y="866.7777777777778"/>
      <point x="541.3333333333334" y="941.0"/>
      <point x="541.3333333333334" y="1055.7777777777778" type="curve" smooth="yes"/>
      <point x="541.3333333333334" y="1218.111111111111"/>
      <point x="643.3333333333334" y="1317.6666666666665"/>
      <point x="934.7777777777778" y="1317.6666666666665" type="curve" smooth="yes"/>
      <point x="1039.0" y="1317.6666666666665"/>
      <point x="1136.888888888889" y="1304.4444444444443"/>
      <point x="1214.5555555555557" y="1284.3333333333333" type="curve"/>
      <point x="1214.5555555555557" y="1469.0" type="line"/>
      <point x="1134.3333333333335" y="1487.111111111111"/>
      <point x="1038.3333333333335" y="1498.7777777777778"/>
      <point x="923.5555555555557" y="1498.7777777777778" type="curve" smooth="yes"/>
      <point x="510.88888888888886" y="1498.7777777777778"/>
      <point x="316.1111111111111" y="1335.111111111111"/>
      <point x="316.1111111111111" y="1064.3333333333333" type="curve" smooth="yes"/>
      <point x="316.1111111111111" y="896.3333333333334"/>
      <point x="396.3333333333333" y="760.3333333333334"/>
      <point x="701.2222222222222" y="566.2222222222222" type="curve" smooth="yes"/>
    </contour>
    <contour>
      <point x="771.2222222222222" y="-18.0" type="curve" smooth="yes"/>
      <point x="1204.4444444444443" y="-18.0"/>
      <point x="1446.3333333333335" y="181.44444444444446"/>
      <point x="1446.3333333333335" y="549.8888888888889" type="curve" smooth="yes"/>
      <point x="1446.3333333333335" y="637.7777777777778"/>
      <point x="1431.888888888889" y="730.6666666666667"/>
      <point x="1403.3333333333335" y="816.7777777777778" type="curve"/>
      <point x="1221.3333333333333" y="816.7777777777778" type="line"/>
      <point x="1249.888888888889" y="730.6666666666667"/>
      <point x="1267.5555555555557" y="634.5555555555555"/>
      <point x="1267.5555555555557" y="549.5555555555555" type="curve" smooth="yes"/>
      <point x="1267.5555555555557" y="266.00000000000006"/>
      <point x="1089.3333333333333" y="142.11111111111114"/>
      <point x="794.2222222222223" y="142.11111111111114" type="curve" smooth="yes"/>
      <point x="495.1111111111112" y="142.11111111111114"/>
      <point x="372.7777777777778" y="258.7777777777778"/>
      <point x="372.7777777777778" y="424.6666666666667" type="curve" smooth="yes"/>
      <point x="372.7777777777778" y="555.2222222222222"/>
      <point x="439.66666666666674" y="649.5555555555555"/>
      <point x="576.7777777777778" y="712.6666666666666" type="curve"/>
      <point x="457.0" y="808.0" type="line"/>
      <point x="267.88888888888886" y="738.7777777777778"/>
      <point x="147.55555555555554" y="595.8888888888889"/>
      <point x="147.55555555555554" y="402.3333333333333" type="curve" smooth="yes"/>
      <point x="147.55555555555554" y="155.33333333333334"/>
      <point x="343.3333333333333" y="-18.0"/>
    </contour>
  </outline>
</glyph>
<glyph name="quotesingle" format="2">
  <advance width="487.11111111111114"/>
  <unicode hex="0027"/>
  <outline>
    <contour>
      <point x="176.88888888888889" y="889.1111111111111" type="line"/>
      <point x="310.2222222222223" y="889.1111111111111" type="line"/>
      <point x="353.5555555555556" y="1616.0" type="line"/>
      <point x="133.55555555555554" y="1616.0" type="line"/>
    </contour>
  </outline>
</glyph>
<glyph name="parenleft" format="2">
  <advance width="755.7777777777778"/>
  <unicode hex="0028"/>
  <outline>
    <contour>
      <point x="533.0" y="-440.0" type="curve"/>
      <point x="780.4444444444446" y="-440.0" type="line"/>
      <point x="476.8888888888889" y="-127.55555555555556"/>
      <point x="363.00000000000006" y="200.11111111111111"/>
      <point x="363.00000000000006" y="588.0" type="curve" smooth="yes"/>
      <point x="363.00000000000006" y="975.8888888888889"/>
      <point x="476.8888888888889" y="1303.5555555555557"/>
      <point x="780.4444444444446" y="1616.0" type="curve"/>
      <point x="533.0" y="1616.0" type="line"/>
      <point x="252.2222222222222" y="1335.888888888889"/>
      <point x="137.0" y="978.7777777777778"/>
      <point x="137.0" y="588.0" type="curve" smooth="yes"/>
      <point x="137.0" y="197.22222222222223"/>
      <point x="252.2222222222222" y="-159.88888888888889"/>
    </contour>
  </outline>
</glyph>
<glyph name="parenright" format="2">
  <advance width="755.7777777777778"/>
  <unicode hex="0029"/>
  <outline>
    <contour>
      <point x="-24.666666666666714" y="-440.0" type="curve"/>
      <point x="222.7777777777778" y="-440.0" type="line"/>
      <point x="503.5555555555556" y="-159.88888888888889"/>
      <point x="618.7777777777778" y="197.22222222222223"/>
      <point x="618.7777777777778" y="588.0" type="curve" smooth="yes"/>
      <point x="618.7777777777778" y="978.7777777777778"/>
      <point x="503.5555555555556" y="1335.888888888889"/>
      <point x="222.7777777777778" y="1616.0" type="curve"/>
      <point x="-24.666666666666714" y="1616.0" type="line"/>
      <point x="278.88888888888886" y="1303.5555555555557"/>
      <point x="392.7777777777777" y="975.8888888888889"/>
      <point x="392.7777777777777" y="588.0" type="curve" smooth="yes"/>
      <point x="392.7777777777777" y="200.11111111111111"/>
      <point x="278.88888888888886" y="-127.55555555555556"/>
    </contour>
  </outline>
</glyph>
<glyph name="asterisk" format="2">
  <advance width="988.8888888888889"/>
  <unicode hex="002A"/>
  <outline>
    <contour>
      <point x="578.7777777777778" y="1164.6666666666667" type="line"/>
      <point x="764.3333333333334" y="1199.4444444444443" type="line"/>
      <point x="958.8888888888889" y="1261.888888888889" type="line"/>
      <point x="912.4444444444445" y="1403.5555555555557" type="line"/>
      <point x="719.1111111111111" y="1341.111111111111" type="line"/>
      <point x="543.1111111111111" y="1256.111111111111" type="line"/>
      <point x="569.2222222222223" y="1450.0" type="line"/>
      <point x="569.2222222222223" y="1616.0" type="line"/>
      <point x="419.6666666666667" y="1616.0" type="line"/>
      <point x="419.6666666666667" y="1450.0" type="line"/>
      <point x="445.77777777777777" y="1256.111111111111" type="line"/>
      <point x="269.77777777777777" y="1341.111111111111" type="line"/>
      <point x="76.44444444444446" y="1403.5555555555557" type="line"/>
      <point x="30.0" y="1261.888888888889" type="line"/>
      <point x="224.55555555555554" y="1199.4444444444443" type="line"/>
      <point x="410.1111111111111" y="1164.6666666666667" type="line"/>
      <point x="278.1111111111111" y="1025.0" type="line"/>
      <point x="174.22222222222223" y="882.6666666666666" type="line"/>
      <point x="295.44444444444446" y="794.8888888888889" type="line"/>
      <point x="399.33333333333337" y="936.4444444444445" type="line"/>
      <point x="494.44444444444446" y="1115.888888888889" type="line"/>
      <point x="589.5555555555555" y="936.4444444444445" type="line"/>
      <point x="693.4444444444445" y="794.8888888888889" type="line"/>
      <point x="814.6666666666667" y="882.6666666666666" type="line"/>
      <point x="710.7777777777778" y="1025.0" type="line"/>
    </contour>
  </outline>
</glyph>
<glyph name="plus" format="2">
  <advance width="1142.2222222222222"/>
  <unicode hex="002B"/>
  <outline>
    <contour>
      <point x="481.1111111111111" y="336.0" type="line"/>
      <point x="661.1111111111111" y="336.0" type="line"/>
      <point x="661.1111111111111" y="674.3333333333333" type="line"/>
      <point x="981.7777777777778" y="674.3333333333333" type="line"/>
      <point x="981.7777777777778" y="845.6666666666667" type="line"/>
      <point x="661.1111111111111" y="845.6666666666667" type="line"/>
      <point x="661.1111111111111" y="1184.0" type="line"/>
      <point x="481.1111111111111" y="1184.0" type="line"/>
      <point x="481.1111111111111" y="845.6666666666667" type="line"/>
      <point x="160.44444444444443" y="845.6666666666667" type="line"/>
      <point x="160.44444444444443" y="674.3333333333333" type="line"/>
      <point x="481.1111111111111" y="674.3333333333333" type="line"/>
    </contour>
  </outline>
</glyph>
<glyph name="comma" format="2">
  <advance width="546.8888888888889"/>
  <unicode hex="002C"/>
  <outline>
    <contour>
      <point x="172.88888888888889" y="-323.33333333333337" type="curve"/>
      <point x="300.11111111111114" y="-323.33333333333337" type="line"/>
      <point x="373.1111111111112" y="-210.66666666666666"/>
      <point x="422.5555555555556" y="-65.55555555555554"/>
      <point x="422.5555555555556" y="81.7777777777778" type="curve" smooth="yes"/>
      <point x="422.5555555555556" y="204.00000000000006"/>
      <point x="367.7777777777778" y="262.2222222222223"/>
      <point x="269.8888888888889" y="262.2222222222223" type="curve" smooth="yes"/>
      <point x="177.88888888888889" y="262.2222222222223"/>
      <point x="122.77777777777776" y="208.22222222222229"/>
      <point x="122.77777777777776" y="124.7777777777778" type="curve" smooth="yes"/>
      <point x="122.77777777777776" y="40.11111111111112"/>
      <point x="180.66666666666666" y="-13.888888888888891"/>
      <point x="273.44444444444446" y="-13.888888888888891" type="curve" smooth="yes"/>
      <point x="302.5555555555556" y="-13.888888888888891" type="line"/>
      <point x="259.6666666666667" y="27.555555555555564" type="line"/>
      <point x="259.6666666666667" y="-86.88888888888889"/>
      <point x="227.55555555555554" y="-193.77777777777777"/>
    </contour>
  </outline>
</glyph>
<glyph name="hyphen" format="2">
  <advance width="1009.4444444444445"/>
  <unicode hex="002D"/>
  <outline>
    <contour>
      <point x="160.44444444444443" y="472.0" type="line"/>
      <point x="849.0" y="472.0" type="line"/>
      <point x="849.0" y="655.7777777777778" type="line"/>
      <point x="160.44444444444443" y="655.7777777777778" type="line"/>
    </contour>
  </outline>
</glyph>
<glyph name="period" format="2">
  <advance width="546.8888888888889"/>
  <unicode hex="002E"/>
  <outline>
    <contour>
      <point x="273.44444444444446" y="-13.888888888888891" type="curve" smooth="yes"/>
      <point x="366.2222222222223" y="-13.888888888888891"/>
      <point x="424.1111111111112" y="40.44444444444446"/>
      <point x="424.1111111111112" y="123.55555555555559" type="curve" smooth="yes"/>
      <point x="424.1111111111112" y="206.6666666666667"/>
      <point x="367.7777777777778" y="262.2222222222223"/>
      <point x="273.44444444444446" y="262.2222222222223" type="curve" smooth="yes"/>
      <point x="179.11111111111111" y="262.2222222222223"/>
      <point x="122.77777777777776" y="208.22222222222229"/>
      <point x="122.77777777777776" y="123.55555555555559" type="curve" smooth="yes"/>
      <point x="122.77777777777776" y="38.8888888888889"/>
      <point x="180.66666666666666" y="-13.888888888888891"/>
    </contour>
  </outline>
</glyph>
<glyph name="slash" format="2">
  <advance width="787.8888888888889"/>
  <unicode hex="002F"/>
  <outline>
    <contour>
      <point x="0.0" y="-240.0" type="line"/>
      <point x="222.77777777777783" y="-240.0" type="line"/>
      <point x="787.8888888888889" y="1616.0" type="line"/>
      <point x="565.1111111111111" y="1616.0" type="line"/>
    </contour>
  </outline>
</glyph>
<glyph name="zero" format="2">
  <advance width="1443.2222222222222"/>
  <unicode hex="0030"/>
  <note>
600
</note>
  <outline>
    <contour>
      <point x="721.2222222222223" y="-18.77777777777778" type="curve" smooth="yes"/>
      <point x="1080.888888888889" y="-18.77777777777778"/>
      <point x="1316.2222222222222" y="203.7777777777778"/>
      <point x="1316.2222222222222" y="740.0" type="curve" smooth="yes"/>
      <point x="1316.2222222222222" y="1276.2222222222222"/>
      <point x="1084.5555555555557" y="1498.7777777777778"/>
      <point x="721.2222222222223" y="1498.7777777777778" type="curve" smooth="yes"/>
      <point x="357.8888888888889" y="1498.7777777777778"/>
      <point x="127.0" y="1276.2222222222222"/>
      <point x="127.0" y="740.0" type="curve" smooth="yes"/>
      <point x="127.0" y="203.7777777777778"/>
      <point x="361.55555555555554" y="-18.77777777777778"/>
    </contour>
    <contour>
      <point x="722.0" y="168.5555555555556" type="curve" smooth="yes"/>
      <point x="495.7777777777778" y="168.5555555555556"/>
      <point x="350.66666666666674" y="300.8888888888889"/>
      <point x="350.66666666666674" y="742.4444444444445" type="curve" smooth="yes"/>
      <point x="350.66666666666674" y="1179.111111111111"/>
      <point x="497.33333333333337" y="1311.4444444444443"/>
      <point x="722.0" y="1311.4444444444443" type="curve" smooth="yes"/>
      <point x="945.8888888888889" y="1311.4444444444443"/>
      <point x="1092.5555555555557" y="1179.111111111111"/>
      <point x="1092.5555555555557" y="737.5555555555555" type="curve" smooth="yes"/>
      <point x="1092.5555555555557" y="300.8888888888889"/>
      <point x="945.8888888888889" y="168.5555555555556"/>
    </contour>
  </outline>
</glyph>
<glyph name="one" format="2">
  <advance width="902.1111111111111"/>
  <unicode hex="0031"/>
  <outline>
    <contour>
      <point x="482.8888888888889" y="0.0" type="line"/>
      <point x="709.5555555555557" y="0.0" type="line"/>
      <point x="709.5555555555557" y="1484.7777777777778" type="line"/>
      <point x="557.0" y="1484.7777777777778" type="line"/>
      <point x="35.33333333333334" y="1111.3333333333333" type="line"/>
      <point x="35.33333333333334" y="892.1111111111111" type="line"/>
      <point x="557.0" y="1263.111111111111" type="line"/>
      <point x="482.8888888888889" y="1345.4444444444443" type="line"/>
    </contour>
  </outline>
</glyph>
<glyph name="two" format="2">
  <advance width="1151.2222222222222"/>
  <unicode hex="0032"/>
  <outline>
    <contour>
      <point x="68.77777777777777" y="0.0" type="line"/>
      <point x="1081.3333333333335" y="0.0" type="line"/>
      <point x="1081.3333333333335" y="182.22222222222229" type="line"/>
      <point x="314.55555555555566" y="182.22222222222229" type="line"/>
      <point x="322.33333333333337" y="120.88888888888893" type="line"/>
      <point x="732.1111111111111" y="572.0" type="line" smooth="yes"/>
      <point x="924.1111111111112" y="783.2222222222222"/>
      <point x="989.7777777777778" y="918.0"/>
      <point x="989.7777777777778" y="1085.4444444444443" type="curve" smooth="yes"/>
      <point x="989.7777777777778" y="1365.4444444444443"/>
      <point x="809.8888888888889" y="1498.7777777777778"/>
      <point x="444.8888888888889" y="1498.7777777777778" type="curve" smooth="yes"/>
      <point x="300.44444444444446" y="1498.7777777777778"/>
      <point x="150.77777777777777" y="1473.6666666666667"/>
      <point x="50.77777777777777" y="1438.7777777777778" type="curve"/>
      <point x="50.77777777777777" y="1254.111111111111" type="line"/>
      <point x="157.77777777777777" y="1293.0"/>
      <point x="291.77777777777777" y="1317.6666666666665"/>
      <point x="430.8888888888889" y="1317.6666666666665" type="curve" smooth="yes"/>
      <point x="663.4444444444445" y="1317.6666666666665"/>
      <point x="765.7777777777777" y="1236.6666666666665"/>
      <point x="765.7777777777777" y="1062.0" type="curve" smooth="yes"/>
      <point x="765.7777777777777" y="946.3333333333334"/>
      <point x="711.1111111111111" y="838.0"/>
      <point x="549.2222222222222" y="655.7777777777778" type="curve" smooth="yes"/>
      <point x="68.77777777777777" y="118.55555555555559" type="line"/>
    </contour>
  </outline>
</glyph>
<glyph name="three" format="2">
  <advance width="1161.6666666666667"/>
  <unicode hex="0033"/>
  <outline>
    <contour>
      <point x="478.6666666666667" y="-18.77777777777778" type="curve" smooth="yes"/>
      <point x="902.2222222222222" y="-18.77777777777778"/>
      <point x="1085.5555555555557" y="147.44444444444446"/>
      <point x="1085.5555555555557" y="411.77777777777777" type="curve" smooth="yes"/>
      <point x="1085.5555555555557" y="625.1111111111111"/>
      <point x="946.5555555555557" y="749.4444444444445"/>
      <point x="706.8888888888889" y="777.7777777777778" type="curve"/>
      <point x="706.8888888888889" y="754.7777777777778" type="line"/>
      <point x="903.1111111111111" y="795.2222222222222"/>
      <point x="1032.7777777777778" y="922.1111111111111"/>
      <point x="1032.7777777777778" y="1110.2222222222222" type="curve" smooth="yes"/>
      <point x="1032.7777777777778" y="1353.7777777777778"/>
      <point x="848.7777777777778" y="1498.7777777777778"/>
      <point x="497.6666666666667" y="1498.7777777777778" type="curve" smooth="yes"/>
      <point x="361.44444444444446" y="1498.7777777777778"/>
      <point x="216.1111111111111" y="1477.6666666666667"/>
      <point x="103.22222222222221" y="1442.4444444444443" type="curve"/>
      <point x="103.22222222222221" y="1272.5555555555554" type="line"/>
      <point x="224.55555555555554" y="1311.7777777777778"/>
      <point x="358.22222222222223" y="1330.888888888889"/>
      <point x="479.33333333333337" y="1330.888888888889" type="curve" smooth="yes"/>
      <point x="701.7777777777778" y="1330.888888888889"/>
      <point x="814.2222222222222" y="1243.0"/>
      <point x="814.2222222222222" y="1095.0" type="curve" smooth="yes"/>
      <point x="814.2222222222222" y="926.4444444444445"/>
      <point x="685.2222222222222" y="843.0"/>
      <point x="414.6666666666667" y="843.0" type="curve" smooth="yes"/>
      <point x="267.88888888888886" y="843.0" type="line"/>
      <point x="267.88888888888886" y="674.3333333333333" type="line"/>
      <point x="510.0" y="674.3333333333333" type="line" smooth="yes"/>
      <point x="764.7777777777777" y="674.3333333333333"/>
      <point x="872.4444444444445" y="584.7777777777777"/>
      <point x="872.4444444444445" y="423.8888888888889" type="curve" smooth="yes"/>
      <point x="872.4444444444445" y="249.5555555555556"/>
      <point x="753.2222222222222" y="149.11111111111114"/>
      <point x="470.22222222222223" y="149.11111111111114" type="curve" smooth="yes"/>
      <point x="336.22222222222223" y="149.11111111111114"/>
      <point x="189.77777777777777" y="172.6666666666667"/>
      <point x="60.111111111111114" y="211.22222222222226" type="curve"/>
      <point x="60.111111111111114" y="41.33333333333333" type="line"/>
      <point x="185.11111111111111" y="3.222222222222222"/>
      <point x="332.8888888888889" y="-18.77777777777778"/>
    </contour>
  </outline>
</glyph>
<glyph name="four" format="2">
  <advance width="1351.4444444444446"/>
  <unicode hex="0034"/>
  <outline>
    <contour>
      <point x="48.666666666666664" y="334.2222222222222" type="line"/>
      <point x="1308.4444444444446" y="334.2222222222222" type="line"/>
      <point x="1308.4444444444446" y="513.3333333333334" type="line"/>
      <point x="248.22222222222229" y="513.3333333333334" type="line"/>
      <point x="273.2222222222223" y="454.6666666666667" type="line"/>
      <point x="898.7777777777778" y="1480.0" type="line"/>
      <point x="674.5555555555555" y="1480.0" type="line"/>
      <point x="48.666666666666664" y="455.8888888888889" type="line"/>
    </contour>
    <contour>
      <point x="877.5555555555555" y="0.0" type="line"/>
      <point x="1084.7777777777778" y="0.0" type="line"/>
      <point x="1084.7777777777778" y="980.0" type="line"/>
      <point x="901.6666666666666" y="980.0" type="line"/>
      <point x="877.5555555555555" y="513.3333333333334" type="line"/>
    </contour>
  </outline>
</glyph>
<glyph name="five" format="2">
  <advance width="1177.3333333333335"/>
  <unicode hex="0035"/>
  <outline>
    <contour>
      <point x="505.1111111111111" y="-18.77777777777778" type="curve" smooth="yes"/>
      <point x="912.6666666666667" y="-18.77777777777778"/>
      <point x="1112.0" y="141.33333333333334"/>
      <point x="1112.7777777777778" y="429.8888888888889" type="curve" smooth="yes"/>
      <point x="1113.5555555555557" y="699.5555555555555"/>
      <point x="933.0" y="844.0"/>
      <point x="435.33333333333337" y="870.4444444444445" type="curve" smooth="yes"/>
      <point x="209.55555555555557" y="882.4444444444445" type="line"/>
      <point x="365.7777777777778" y="796.4444444444445" type="line"/>
      <point x="409.4444444444445" y="1398.6666666666667" type="line"/>
      <point x="309.22222222222223" y="1310.2222222222222" type="line"/>
      <point x="1049.2222222222222" y="1310.2222222222222" type="line"/>
      <point x="1049.2222222222222" y="1480.0" type="line"/>
      <point x="201.55555555555554" y="1480.0" type="line"/>
      <point x="147.22222222222223" y="716.1111111111111" type="line"/>
      <point x="373.0" y="704.1111111111111" type="line" smooth="yes"/>
      <point x="782.0" y="681.2222222222222"/>
      <point x="898.8888888888889" y="597.7777777777777"/>
      <point x="898.8888888888889" y="428.3333333333333" type="curve" smooth="yes"/>
      <point x="898.8888888888889" y="246.5555555555556"/>
      <point x="772.3333333333334" y="152.22222222222229"/>
      <point x="496.6666666666667" y="152.22222222222229" type="curve" smooth="yes"/>
      <point x="360.22222222222223" y="152.22222222222229"/>
      <point x="213.77777777777777" y="175.77777777777783"/>
      <point x="86.55555555555556" y="214.33333333333337" type="curve"/>
      <point x="86.55555555555556" y="44.44444444444444" type="line"/>
      <point x="210.33333333333334" y="6.0"/>
      <point x="358.1111111111111" y="-18.77777777777778"/>
    </contour>
  </outline>
</glyph>
<glyph name="six" format="2">
  <advance width="1326.5555555555557"/>
  <unicode hex="0036"/>
  <outline>
    <contour>
      <point x="734.1111111111111" y="-18.77777777777778" type="curve" smooth="yes"/>
      <point x="1054.2222222222222" y="-18.77777777777778"/>
      <point x="1254.7777777777778" y="143.77777777777777"/>
      <point x="1254.7777777777778" y="423.77777777777777" type="curve" smooth="yes"/>
      <point x="1254.7777777777778" y="722.1111111111111"/>
      <point x="1056.3333333333335" y="863.7777777777778"/>
      <point x="737.8888888888889" y="863.7777777777778" type="curve" smooth="yes"/>
      <point x="585.3333333333334" y="863.7777777777778"/>
      <point x="419.1111111111112" y="817.6666666666667"/>
      <point x="320.00000000000006" y="743.4444444444445" type="curve"/>
      <point x="320.00000000000006" y="583.8888888888889" type="line"/>
      <point x="422.33333333333337" y="664.0"/>
      <point x="574.5555555555555" y="700.5555555555555"/>
      <point x="697.3333333333334" y="700.5555555555555" type="curve" smooth="yes"/>
      <point x="921.4444444444445" y="700.5555555555555"/>
      <point x="1047.111111111111" y="609.7777777777777"/>
      <point x="1047.111111111111" y="418.6666666666667" type="curve" smooth="yes"/>
      <point x="1047.111111111111" y="232.66666666666669"/>
      <point x="922.1111111111111" y="144.44444444444449"/>
      <point x="734.1111111111111" y="144.44444444444449" type="curve" smooth="yes"/>
      <point x="495.2222222222223" y="144.44444444444449"/>
      <point x="354.66666666666674" y="280.7777777777778"/>
      <point x="354.66666666666674" y="662.4444444444445" type="curve" smooth="yes"/>
      <point x="354.66666666666674" y="749.8888888888889" type="line" smooth="yes"/>
      <point x="354.66666666666674" y="1131.888888888889"/>
      <point x="521.4444444444446" y="1327.7777777777778"/>
      <point x="867.2222222222223" y="1327.7777777777778" type="curve" smooth="yes"/>
      <point x="964.1111111111111" y="1327.7777777777778"/>
      <point x="1084.7777777777778" y="1312.6666666666665"/>
      <point x="1179.0" y="1275.888888888889" type="curve"/>
      <point x="1179.0" y="1448.888888888889" type="line"/>
      <point x="1081.3333333333335" y="1486.0"/>
      <point x="969.4444444444446" y="1498.7777777777778"/>
      <point x="852.7777777777778" y="1498.7777777777778" type="curve" smooth="yes"/>
      <point x="382.66666666666663" y="1498.7777777777778"/>
      <point x="134.55555555555554" y="1220.7777777777778"/>
      <point x="134.55555555555554" y="689.3333333333334" type="curve" smooth="yes"/>
      <point x="134.55555555555554" y="198.44444444444446"/>
      <point x="367.3333333333333" y="-18.77777777777778"/>
    </contour>
  </outline>
</glyph>
<glyph name="seven" format="2">
  <advance width="1087.111111111111"/>
  <unicode hex="0037"/>
  <outline>
    <contour>
      <point x="202.0" y="0.0" type="line"/>
      <point x="435.8888888888889" y="0.0" type="line"/>
      <point x="1026.6666666666667" y="1361.4444444444443" type="line"/>
      <point x="1026.6666666666667" y="1480.0" type="line"/>
      <point x="14.444444444444445" y="1480.0" type="line"/>
      <point x="14.444444444444445" y="1297.7777777777778" type="line"/>
      <point x="876.8888888888889" y="1297.7777777777778" type="line"/>
      <point x="808.0" y="1362.6666666666665" type="line"/>
    </contour>
  </outline>
</glyph>
<glyph name="eight" format="2">
  <advance width="1443.2222222222222"/>
  <unicode hex="0038"/>
  <outline>
    <contour>
      <point x="728.1111111111111" y="-18.77777777777778" type="curve" smooth="yes"/>
      <point x="1135.2222222222222" y="-18.77777777777778"/>
      <point x="1329.5555555555557" y="155.33333333333334"/>
      <point x="1329.5555555555557" y="397.77777777777777" type="curve" smooth="yes"/>
      <point x="1329.5555555555557" y="608.1111111111111"/>
      <point x="1192.888888888889" y="743.4444444444445"/>
      <point x="801.6666666666667" y="818.2222222222223" type="curve" smooth="yes"/>
      <point x="469.4444444444445" y="880.4444444444445"/>
      <point x="379.00000000000006" y="960.3333333333334"/>
      <point x="379.00000000000006" y="1108.4444444444443" type="curve" smooth="yes"/>
      <point x="379.00000000000006" y="1247.5555555555554"/>
      <point x="487.1111111111112" y="1340.2222222222222"/>
      <point x="726.4444444444445" y="1340.2222222222222" type="curve" smooth="yes"/>
      <point x="953.6666666666667" y="1340.2222222222222"/>
      <point x="1077.111111111111" y="1256.7777777777778"/>
      <point x="1077.111111111111" y="1102.5555555555557" type="curve" smooth="yes"/>
      <point x="1077.111111111111" y="965.0"/>
      <point x="999.0" y="871.3333333333334"/>
      <point x="806.4444444444445" y="797.5555555555555" type="curve"/>
      <point x="950.2222222222222" y="738.6666666666666" type="line"/>
      <point x="1176.111111111111" y="811.4444444444445"/>
      <point x="1277.3333333333335" y="947.0"/>
      <point x="1277.3333333333335" y="1126.3333333333333" type="curve" smooth="yes"/>
      <point x="1277.3333333333335" y="1359.5555555555557"/>
      <point x="1080.888888888889" y="1498.7777777777778"/>
      <point x="733.1111111111111" y="1498.7777777777778" type="curve" smooth="yes"/>
      <point x="356.0" y="1498.7777777777778"/>
      <point x="163.11111111111111" y="1340.111111111111"/>
      <point x="163.11111111111111" y="1099.4444444444443" type="curve" smooth="yes"/>
      <point x="163.11111111111111" y="881.3333333333334"/>
      <point x="302.44444444444446" y="732.2222222222222"/>
      <point x="700.2222222222222" y="659.6666666666666" type="curve" smooth="yes"/>
      <point x="1014.8888888888889" y="602.1111111111111"/>
      <point x="1116.0" y="528.0"/>
      <point x="1116.0" y="383.6666666666667" type="curve" smooth="yes"/>
      <point x="1116.0" y="227.33333333333337"/>
      <point x="989.3333333333334" y="139.77777777777783"/>
      <point x="730.1111111111111" y="139.77777777777783" type="curve" smooth="yes"/>
      <point x="461.1111111111112" y="139.77777777777783"/>
      <point x="325.2222222222223" y="230.44444444444446"/>
      <point x="325.2222222222223" y="399.11111111111114" type="curve" smooth="yes"/>
      <point x="325.2222222222223" y="534.6666666666666"/>
      <point x="417.5555555555556" y="653.3333333333333"/>
      <point x="621.8888888888889" y="708.2222222222222" type="curve"/>
      <point x="458.77777777777777" y="764.7777777777777" type="line"/>
      <point x="238.55555555555554" y="701.4444444444445"/>
      <point x="111.33333333333333" y="565.0"/>
      <point x="111.33333333333333" y="370.22222222222223" type="curve" smooth="yes"/>
      <point x="111.33333333333333" y="129.66666666666669"/>
      <point x="305.1111111111111" y="-18.77777777777778"/>
    </contour>
  </outline>
</glyph>
<glyph name="nine" format="2">
  <advance width="1326.5555555555557"/>
  <unicode hex="0039"/>
  <outline>
    <contour>
      <point x="592.4444444444445" y="1498.7777777777778" type="curve" smooth="yes"/>
      <point x="272.3333333333333" y="1498.7777777777778"/>
      <point x="71.77777777777777" y="1336.2222222222222"/>
      <point x="71.77777777777777" y="1056.2222222222222" type="curve" smooth="yes"/>
      <point x="71.77777777777777" y="757.8888888888889"/>
      <point x="270.22222222222223" y="616.2222222222222"/>
      <point x="588.6666666666667" y="616.2222222222222" type="curve" smooth="yes"/>
      <point x="741.2222222222222" y="616.2222222222222"/>
      <point x="907.4444444444445" y="662.3333333333333"/>
      <point x="1006.5555555555555" y="736.5555555555555" type="curve"/>
      <point x="1006.5555555555555" y="896.1111111111111" type="line"/>
      <point x="904.2222222222222" y="816.0"/>
      <point x="752.0" y="779.4444444444445"/>
      <point x="629.2222222222223" y="779.4444444444445" type="curve" smooth="yes"/>
      <point x="405.11111111111114" y="779.4444444444445"/>
      <point x="279.4444444444445" y="870.2222222222223"/>
      <point x="279.4444444444445" y="1061.3333333333333" type="curve" smooth="yes"/>
      <point x="279.4444444444445" y="1247.3333333333333"/>
      <point x="404.44444444444446" y="1335.5555555555554"/>
      <point x="592.4444444444445" y="1335.5555555555554" type="curve" smooth="yes"/>
      <point x="831.3333333333334" y="1335.5555555555554"/>
      <point x="971.8888888888889" y="1199.2222222222222"/>
      <point x="971.8888888888889" y="817.5555555555555" type="curve" smooth="yes"/>
      <point x="971.8888888888889" y="730.1111111111111" type="line" smooth="yes"/>
      <point x="971.8888888888889" y="348.11111111111114"/>
      <point x="805.1111111111111" y="152.22222222222229"/>
      <point x="459.33333333333337" y="152.22222222222229" type="curve" smooth="yes"/>
      <point x="362.44444444444446" y="152.22222222222229"/>
      <point x="241.77777777777777" y="167.33333333333337"/>
      <point x="147.55555555555554" y="204.11111111111114" type="curve"/>
      <point x="147.55555555555554" y="31.111111111111114" type="line"/>
      <point x="245.22222222222223" y="-6.0"/>
      <point x="357.11111111111114" y="-18.77777777777778"/>
      <point x="473.7777777777778" y="-18.77777777777778" type="curve" smooth="yes"/>
      <point x="943.8888888888889" y="-18.77777777777778"/>
      <point x="1192.0" y="259.22222222222223"/>
      <point x="1192.0" y="790.6666666666666" type="curve" smooth="yes"/>
      <point x="1192.0" y="1281.5555555555557"/>
      <point x="959.2222222222223" y="1498.7777777777778"/>
    </contour>
  </outline>
</glyph>
<glyph name="colon" format="2">
  <advance width="546.8888888888889"/>
  <unicode hex="003A"/>
  <outline>
    <contour>
      <point x="273.44444444444446" y="-13.888888888888891" type="curve" smooth="yes"/>
      <point x="366.2222222222223" y="-13.888888888888891"/>
      <point x="424.1111111111112" y="40.44444444444446"/>
      <point x="424.1111111111112" y="123.55555555555559" type="curve" smooth="yes"/>
      <point x="424.1111111111112" y="206.6666666666667"/>
      <point x="367.7777777777778" y="262.2222222222223"/>
      <point x="273.44444444444446" y="262.2222222222223" type="curve" smooth="yes"/>
      <point x="179.11111111111111" y="262.2222222222223"/>
      <point x="122.77777777777776" y="208.22222222222229"/>
      <point x="122.77777777777776" y="123.55555555555559" type="curve" smooth="yes"/>
      <point x="122.77777777777776" y="38.8888888888889"/>
      <point x="180.66666666666666" y="-13.888888888888891"/>
    </contour>
    <contour>
      <point x="273.44444444444446" y="825.5555555555554" type="curve" smooth="yes"/>
      <point x="366.2222222222223" y="825.5555555555554"/>
      <point x="424.1111111111112" y="879.8888888888888"/>
      <point x="424.1111111111112" y="963.0" type="curve" smooth="yes"/>
      <point x="424.1111111111112" y="1046.111111111111"/>
      <point x="367.7777777777778" y="1101.6666666666667"/>
      <point x="273.44444444444446" y="1101.6666666666667" type="curve" smooth="yes"/>
      <point x="179.11111111111111" y="1101.6666666666667"/>
      <point x="122.77777777777776" y="1047.6666666666667"/>
      <point x="122.77777777777776" y="963.0" type="curve" smooth="yes"/>
      <point x="122.77777777777776" y="878.3333333333333"/>
      <point x="180.66666666666666" y="825.5555555555554"/>
    </contour>
  </outline>
</glyph>
<glyph name="semicolon" format="2">
  <advance width="546.8888888888889"/>
  <unicode hex="003B"/>
  <outline>
    <contour>
      <point x="172.88888888888889" y="-323.33333333333337" type="curve"/>
      <point x="300.11111111111114" y="-323.33333333333337" type="line"/>
      <point x="373.1111111111112" y="-210.66666666666666"/>
      <point x="422.5555555555556" y="-65.55555555555554"/>
      <point x="422.5555555555556" y="81.7777777777778" type="curve" smooth="yes"/>
      <point x="422.5555555555556" y="204.00000000000006"/>
      <point x="367.7777777777778" y="262.2222222222223"/>
      <point x="269.8888888888889" y="262.2222222222223" type="curve" smooth="yes"/>
      <point x="177.88888888888889" y="262.2222222222223"/>
      <point x="122.77777777777776" y="208.22222222222229"/>
      <point x="122.77777777777776" y="124.7777777777778" type="curve" smooth="yes"/>
      <point x="122.77777777777776" y="40.11111111111112"/>
      <point x="180.66666666666666" y="-13.888888888888891"/>
      <point x="273.44444444444446" y="-13.888888888888891" type="curve" smooth="yes"/>
      <point x="302.5555555555556" y="-13.888888888888891" type="line"/>
      <point x="259.6666666666667" y="27.555555555555564" type="line"/>
      <point x="259.6666666666667" y="-86.88888888888889"/>
      <point x="227.55555555555554" y="-193.77777777777777"/>
    </contour>
    <contour>
      <point x="273.44444444444446" y="825.5555555555554" type="curve" smooth="yes"/>
      <point x="366.2222222222223" y="825.5555555555554"/>
      <point x="424.1111111111112" y="879.8888888888888"/>
      <point x="424.1111111111112" y="963.0" type="curve" smooth="yes"/>
      <point x="424.1111111111112" y="1046.111111111111"/>
      <point x="367.7777777777778" y="1101.6666666666667"/>
      <point x="273.44444444444446" y="1101.6666666666667" type="curve" smooth="yes"/>
      <point x="179.11111111111111" y="1101.6666666666667"/>
      <point x="122.77777777777776" y="1047.6666666666667"/>
      <point x="122.77777777777776" y="963.0" type="curve" smooth="yes"/>
      <point x="122.77777777777776" y="878.3333333333333"/>
      <point x="180.66666666666666" y="825.5555555555554"/>
    </contour>
  </outline>
</glyph>
<glyph name="equal" format="2">
  <advance width="1142.2222222222222"/>
  <unicode hex="003D"/>
  <outline>
    <contour>
      <point x="160.44444444444443" y="882.7777777777777" type="line"/>
      <point x="981.7777777777778" y="882.7777777777777" type="line"/>
      <point x="981.7777777777778" y="1054.111111111111" type="line"/>
      <point x="160.44444444444443" y="1054.111111111111" type="line"/>
    </contour>
    <contour>
      <point x="160.44444444444443" y="465.88888888888886" type="line"/>
      <point x="981.7777777777778" y="465.88888888888886" type="line"/>
      <point x="981.7777777777778" y="637.2222222222223" type="line"/>
      <point x="160.44444444444443" y="637.2222222222223" type="line"/>
    </contour>
  </outline>
</glyph>
<glyph name="greater" format="2">
  <advance width="1142.2222222222222"/>
  <unicode hex="003E"/>
  <outline>
    <contour>
      <point x="160.44444444444443" y="333.66666666666663" type="line"/>
      <point x="981.7777777777778" y="660.8888888888889" type="line"/>
      <point x="981.7777777777778" y="859.1111111111111" type="line"/>
      <point x="160.44444444444443" y="1186.3333333333335" type="line"/>
      <point x="160.44444444444443" y="1010.1111111111111" type="line"/>
      <point x="850.1111111111111" y="743.3333333333334" type="line"/>
      <point x="850.1111111111111" y="780.5555555555555" type="line"/>
      <point x="160.44444444444443" y="509.8888888888889" type="line"/>
    </contour>
  </outline>
</glyph>
<glyph name="question" format="2">
  <advance width="1040.111111111111"/>
  <unicode hex="003F"/>
  <outline>
    <contour>
      <point x="410.8888888888889" y="390.2222222222223" type="line"/>
      <point x="548.3333333333334" y="390.2222222222223" type="line"/>
      <point x="565.3333333333334" y="669.0" type="line"/>
      <point x="850.7777777777778" y="758.7777777777777"/>
      <point x="975.2222222222223" y="885.5555555555555"/>
      <point x="975.2222222222223" y="1106.3333333333333" type="curve" smooth="yes"/>
      <point x="975.2222222222223" y="1353.7777777777778"/>
      <point x="791.2222222222223" y="1498.7777777777778"/>
      <point x="440.1111111111111" y="1498.7777777777778" type="curve" smooth="yes"/>
      <point x="303.8888888888889" y="1498.7777777777778"/>
      <point x="158.55555555555554" y="1477.6666666666667"/>
      <point x="45.666666666666664" y="1442.4444444444443" type="curve"/>
      <point x="45.666666666666664" y="1264.7777777777778" type="line"/>
      <point x="167.0" y="1304.0"/>
      <point x="299.1111111111111" y="1323.111111111111"/>
      <point x="420.22222222222223" y="1323.111111111111" type="curve" smooth="yes"/>
      <point x="644.2222222222222" y="1323.111111111111"/>
      <point x="756.6666666666666" y="1237.5555555555554"/>
      <point x="756.6666666666666" y="1093.4444444444443" type="curve" smooth="yes"/>
      <point x="756.6666666666666" y="946.7777777777778"/>
      <point x="667.5555555555555" y="855.1111111111111"/>
      <point x="372.44444444444446" y="783.8888888888889" type="curve"/>
    </contour>
    <contour>
      <point x="480.0" y="-13.888888888888891" type="curve" smooth="yes"/>
      <point x="574.0" y="-13.888888888888891"/>
      <point x="630.6666666666667" y="38.555555555555564"/>
      <point x="630.6666666666667" y="115.7777777777778" type="curve" smooth="yes"/>
      <point x="630.6666666666667" y="194.22222222222226"/>
      <point x="574.3333333333334" y="246.6666666666667"/>
      <point x="480.0" y="246.6666666666667" type="curve" smooth="yes"/>
      <point x="385.66666666666663" y="246.6666666666667"/>
      <point x="329.3333333333333" y="195.77777777777783"/>
      <point x="329.3333333333333" y="115.7777777777778" type="curve" smooth="yes"/>
      <point x="329.3333333333333" y="37.00000000000001"/>
      <point x="387.22222222222223" y="-13.888888888888891"/>
    </contour>
  </outline>
</glyph>
<glyph name="at" format="2">
  <advance width="2219.3333333333335"/>
  <unicode hex="0040"/>
  <outline>
    <contour>
      <point x="1162.111111111111" y="-460.0" type="curve" smooth="yes"/>
      <point x="1322.7777777777778" y="-460.0"/>
      <point x="1484.7777777777778" y="-440.77777777777777"/>
      <point x="1632.5555555555557" y="-404.77777777777777" type="curve"/>
      <point x="1632.5555555555557" y="-255.88888888888886" type="line"/>
      <point x="1470.5555555555557" y="-294.3333333333333"/>
      <point x="1321.5555555555557" y="-312.33333333333326"/>
      <point x="1162.111111111111" y="-312.33333333333326" type="curve" smooth="yes"/>
      <point x="564.6666666666667" y="-312.33333333333326"/>
      <point x="286.2222222222223" y="-50.66666666666666"/>
      <point x="286.2222222222223" y="522.4444444444445" type="curve" smooth="yes"/>
      <point x="286.2222222222223" y="1084.5555555555557"/>
      <point x="562.2222222222223" y="1350.3333333333333"/>
      <point x="1116.4444444444443" y="1350.3333333333333" type="curve" smooth="yes"/>
      <point x="1670.2222222222222" y="1350.3333333333333"/>
      <point x="1942.5555555555557" y="1092.5555555555557"/>
      <point x="1944.888888888889" y="564.1111111111111" type="curve" smooth="yes"/>
      <point x="1946.4444444444446" y="235.22222222222223"/>
      <point x="1846.5555555555557" y="125.00000000000003"/>
      <point x="1725.4444444444443" y="125.00000000000003" type="curve" smooth="yes"/>
      <point x="1638.888888888889" y="125.00000000000003"/>
      <point x="1589.4444444444446" y="165.22222222222226"/>
      <point x="1589.4444444444446" y="284.11111111111114" type="curve" smooth="yes"/>
      <point x="1589.4444444444446" y="674.2222222222222" type="line" smooth="yes"/>
      <point x="1589.4444444444446" y="993.3333333333334"/>
      <point x="1426.2222222222222" y="1096.7777777777778"/>
      <point x="1100.7777777777778" y="1096.7777777777778" type="curve" smooth="yes"/>
      <point x="982.3333333333333" y="1096.7777777777778"/>
      <point x="848.2222222222222" y="1077.2222222222222"/>
      <point x="740.2222222222223" y="1039.6666666666667" type="curve"/>
      <point x="740.2222222222222" y="872.8888888888888" type="line"/>
      <point x="852.0" y="911.7777777777777"/>
      <point x="976.2222222222222" y="928.8888888888888"/>
      <point x="1069.3333333333335" y="928.8888888888888" type="curve" smooth="yes"/>
      <point x="1272.6666666666667" y="928.8888888888888"/>
      <point x="1371.3333333333333" y="874.7777777777777"/>
      <point x="1371.3333333333333" y="680.7777777777777" type="curve" smooth="yes"/>
      <point x="1371.3333333333333" y="251.44444444444446" type="line"/>
      <point x="1295.3333333333333" y="176.00000000000003"/>
      <point x="1181.111111111111" y="137.8888888888889"/>
      <point x="1082.6666666666667" y="137.8888888888889" type="curve" smooth="yes"/>
      <point x="944.8888888888889" y="137.8888888888889"/>
      <point x="869.4444444444446" y="196.22222222222226"/>
      <point x="869.4444444444446" y="303.8888888888889" type="curve" smooth="yes"/>
      <point x="869.4444444444446" y="410.6666666666667"/>
      <point x="939.5555555555557" y="462.44444444444446"/>
      <point x="1103.2222222222222" y="480.66666666666663" type="curve" smooth="yes"/>
      <point x="1437.5555555555557" y="516.6666666666666" type="line"/>
      <point x="1426.5555555555557" y="644.1111111111111" type="line"/>
      <point x="1087.6666666666667" y="608.1111111111111" type="line" smooth="yes"/>
      <point x="779.8888888888889" y="580.0"/>
      <point x="646.1111111111111" y="475.8888888888889"/>
      <point x="646.1111111111111" y="285.11111111111114" type="curve" smooth="yes"/>
      <point x="646.1111111111111" y="100.11111111111111"/>
      <point x="779.5555555555555" y="-18.333333333333336"/>
      <point x="1023.5555555555555" y="-18.333333333333336" type="curve" smooth="yes"/>
      <point x="1168.5555555555557" y="-18.333333333333336"/>
      <point x="1305.5555555555557" y="33.55555555555555"/>
      <point x="1375.2222222222222" y="130.77777777777777" type="curve"/>
      <point x="1390.6666666666667" y="130.77777777777777" type="line"/>
      <point x="1436.4444444444443" y="35.77777777777777"/>
      <point x="1530.5555555555557" y="-18.333333333333336"/>
      <point x="1676.3333333333333" y="-18.333333333333336" type="curve" smooth="yes"/>
      <point x="1923.4444444444443" y="-18.333333333333336"/>
      <point x="2101.1111111111113" y="146.11111111111111"/>
      <point x="2102.3333333333335" y="570.8888888888889" type="curve" smooth="yes"/>
      <point x="2103.5555555555557" y="1172.0"/>
      <point x="1757.6666666666667" y="1498.0"/>
      <point x="1116.4444444444443" y="1498.0" type="curve" smooth="yes"/>
      <point x="477.22222222222223" y="1498.0"/>
      <point x="117.0" y="1172.0"/>
      <point x="117.0" y="520.0" type="curve" smooth="yes"/>
      <point x="117.0" y="-134.44444444444446"/>
      <point x="478.44444444444446" y="-458.77777777777777"/>
    </contour>
  </outline>
</glyph>
<glyph name="A" format="2">
  <advance width="1565.6666666666667"/>
  <unicode hex="0041"/>
  <note>
520
</note>
  <anchor x="783.4444444444445" y="0.0" name="bottom"/>
  <anchor x="1530.1111111111113" y="0.0" name="ogonek"/>
  <anchor x="782.6666666666667" y="1520.0" name="top"/>
  <outline>
    <contour>
      <point x="35.55555555555555" y="0.0" type="line"/>
      <point x="259.66666666666674" y="0.0" type="line"/>
      <point x="796.5555555555555" y="1379.3333333333333" type="line"/>
      <point x="766.3333333333334" y="1379.3333333333333" type="line"/>
      <point x="1303.2222222222222" y="0.0" type="line"/>
      <point x="1530.1111111111113" y="0.0" type="line"/>
      <point x="942.8888888888889" y="1480.0" type="line"/>
      <point x="622.7777777777777" y="1480.0" type="line"/>
    </contour>
    <contour>
      <point x="391.2222222222223" y="452.55555555555554" type="line"/>
      <point x="1172.888888888889" y="452.55555555555554" type="line"/>
      <point x="1118.6666666666667" y="629.0" type="line"/>
      <point x="446.2222222222223" y="629.0" type="line"/>
    </contour>
  </outline>
</glyph>
<glyph name="B" format="2">
  <advance width="1412.0"/>
  <unicode hex="0042"/>
  <anchor x="726.7777777777778" y="0.0" name="bottom"/>
  <anchor x="726.7777777777778" y="1480.0" name="top"/>
  <outline>
    <contour>
      <point x="609.7777777777778" y="-13.888888888888891" type="curve" smooth="yes"/>
      <point x="1149.0" y="-13.888888888888891"/>
      <point x="1334.7777777777778" y="141.33333333333334"/>
      <point x="1334.7777777777778" y="411.6666666666667" type="curve" smooth="yes"/>
      <point x="1334.7777777777778" y="612.7777777777778"/>
      <point x="1219.0" y="743.2222222222222"/>
      <point x="991.7777777777778" y="769.2222222222222" type="curve"/>
      <point x="988.1111111111112" y="754.7777777777778" type="line"/>
      <point x="1192.4444444444446" y="786.7777777777778"/>
      <point x="1293.111111111111" y="916.1111111111111"/>
      <point x="1293.111111111111" y="1092.0" type="curve" smooth="yes"/>
      <point x="1293.111111111111" y="1356.2222222222222"/>
      <point x="1110.3333333333335" y="1496.3333333333333"/>
      <point x="665.2222222222223" y="1496.3333333333333" type="curve" smooth="yes"/>
      <point x="490.55555555555554" y="1496.3333333333333"/>
      <point x="329.55555555555554" y="1477.3333333333333"/>
      <point x="182.55555555555554" y="1445.4444444444443" type="curve"/>
      <point x="182.55555555555554" y="14.444444444444445" type="line"/>
      <point x="330.3333333333333" y="-4.777777777777779"/>
      <point x="475.77777777777777" y="-13.888888888888891"/>
    </contour>
    <contour>
      <point x="662.3333333333334" y="150.8888888888889" type="curve" smooth="yes"/>
      <point x="563.4444444444445" y="150.8888888888889"/>
      <point x="488.5555555555556" y="154.5555555555556"/>
      <point x="404.5555555555556" y="166.6666666666667" type="curve"/>
      <point x="404.5555555555556" y="1307.4444444444443" type="line"/>
      <point x="482.66666666666674" y="1322.3333333333333"/>
      <point x="569.1111111111111" y="1331.5555555555554"/>
      <point x="687.4444444444445" y="1331.5555555555554" type="curve" smooth="yes"/>
      <point x="970.6666666666666" y="1331.5555555555554"/>
      <point x="1079.6666666666667" y="1258.2222222222222"/>
      <point x="1079.6666666666667" y="1084.2222222222222" type="curve" smooth="yes"/>
      <point x="1079.6666666666667" y="917.1111111111111"/>
      <point x="970.2222222222222" y="842.2222222222223"/>
      <point x="731.1111111111111" y="842.2222222222223" type="curve" smooth="yes"/>
      <point x="374.5555555555556" y="842.2222222222223" type="line"/>
      <point x="374.5555555555556" y="675.1111111111111" type="line"/>
      <point x="755.2222222222222" y="675.1111111111111" type="line" smooth="yes"/>
      <point x="1013.2222222222222" y="675.1111111111111"/>
      <point x="1125.5555555555557" y="597.3333333333334"/>
      <point x="1125.5555555555557" y="419.55555555555554" type="curve" smooth="yes"/>
      <point x="1125.5555555555557" y="243.22222222222226"/>
      <point x="1022.3333333333333" y="150.8888888888889"/>
    </contour>
  </outline>
</glyph>
<glyph name="F" format="2">
  <advance width="1329.7777777777778"/>
  <unicode hex="0046"/>
  <outline>
    <contour>
      <point x="182.55555555555554" y="0.0" type="line"/>
      <point x="409.2222222222223" y="0.0" type="line"/>
      <point x="409.2222222222223" y="1299.6666666666665" type="line"/>
      <point x="1251.6666666666667" y="1299.6666666666665" type="line"/>
      <point x="1251.6666666666667" y="1480.0" type="line"/>
      <point x="182.55555555555554" y="1480.0" type="line"/>
    </contour>
    <contour>
      <point x="320.33333333333337" y="649.4444444444443" type="line"/>
      <point x="1147.0" y="649.4444444444443" type="line"/>
      <point x="1147.0" y="829.7777777777778" type="line"/>
      <point x="320.33333333333337" y="829.7777777777778" type="line"/>
    </contour>
  </outline>
</glyph>
<glyph name="I" format="2">
  <advance width="591.7777777777778"/>
  <unicode hex="0049"/>
  <anchor x="295.11111111111114" y="0.0" name="bottom"/>
  <anchor x="409.2222222222223" y="0.0" name="ogonek"/>
  <anchor x="295.8888888888889" y="1520.0" name="top"/>
  <outline>
    <contour>
      <point x="182.55555555555554" y="0.0" type="line"/>
      <point x="409.2222222222223" y="0.0" type="line"/>
      <point x="409.2222222222223" y="1480.0" type="line"/>
      <point x="182.55555555555554" y="1480.0" type="line"/>
    </contour>
  </outline>
</glyph>
<glyph name="J" format="2">
  <advance width="591.7777777777778"/>
  <unicode hex="004A"/>
  <anchor x="448.33333333333337" y="0.0" name="bottom"/>
  <anchor x="296.6666666666667" y="1520.0" name="top"/>
  <outline>
    <contour>
      <point x="140.6666666666667" y="-347.0" type="line"/>
      <point x="333.33333333333337" y="-144.88888888888889"/>
      <point x="400.66666666666674" y="39.8888888888889"/>
      <point x="409.2222222222223" y="276.44444444444446" type="curve"/>
      <point x="409.2222222222223" y="1480.0" type="line"/>
      <point x="184.1111111111111" y="1480.0" type="line"/>
      <point x="184.1111111111111" y="292.22222222222223" type="line" smooth="yes"/>
      <point x="184.1111111111111" y="71.55555555555557"/>
      <point x="129.77777777777777" y="-89.88888888888887"/>
      <point x="-2.222222222222225" y="-248.77777777777777" type="curve"/>
    </contour>
  </outline>
</glyph>
<glyph name="K" format="2">
  <advance width="1411.5555555555557"/>
  <unicode hex="004B"/>
  <anchor x="730.4444444444445" y="0.0" name="bottom"/>
  <anchor x="728.1111111111111" y="1480.0" name="top"/>
  <outline>
    <contour>
      <point x="1166.3333333333333" y="0.0" type="line"/>
      <point x="1420.7777777777778" y="0.0" type="line"/>
      <point x="800.8888888888889" y="788.7777777777778" type="line"/>
      <point x="796.2222222222223" y="731.3333333333334" type="line"/>
      <point x="1375.6666666666667" y="1480.0" type="line"/>
      <point x="1129.4444444444443" y="1480.0" type="line"/>
      <point x="569.3333333333333" y="756.4444444444445" type="line"/>
    </contour>
    <contour>
      <point x="182.55555555555554" y="0.0" type="line"/>
      <point x="409.2222222222223" y="0.0" type="line"/>
      <point x="409.2222222222223" y="1480.0" type="line"/>
      <point x="182.55555555555554" y="1480.0" type="line"/>
    </contour>
    <contour>
      <point x="374.5555555555556" y="660.3333333333333" type="line"/>
      <point x="671.3333333333334" y="660.3333333333333" type="line"/>
      <point x="671.3333333333334" y="857.0" type="line"/>
      <point x="374.5555555555556" y="857.0" type="line"/>
    </contour>
  </outline>
</glyph>
<glyph name="M" format="2">
  <advance width="1987.7777777777778"/>
  <unicode hex="004D"/>
  <anchor x="1006.3333333333334" y="0.0" name="bottom"/>
  <anchor x="1006.3333333333334" y="1480.0" name="top"/>
  <outline>
    <contour>
      <point x="186.55555555555554" y="0.0" type="line"/>
      <point x="399.5555555555556" y="0.0" type="line"/>
      <point x="399.5555555555556" y="1297.2222222222222" type="line"/>
      <point x="330.7777777777778" y="1297.2222222222222" type="line"/>
      <point x="894.4444444444445" y="207.77777777777777" type="line"/>
      <point x="1093.3333333333335" y="207.77777777777777" type="line"/>
      <point x="1646.4444444444443" y="1297.2222222222222" type="line"/>
      <point x="1588.2222222222222" y="1297.2222222222222" type="line"/>
      <point x="1588.2222222222222" y="0.0" type="line"/>
      <point x="1801.2222222222222" y="0.0" type="line"/>
      <point x="1801.2222222222222" y="1480.0" type="line"/>
      <point x="1531.2222222222222" y="1480.0" type="line"/>
      <point x="977.5555555555557" y="380.55555555555566" type="line"/>
      <point x="1018.1111111111111" y="380.55555555555566" type="line"/>
      <point x="456.55555555555566" y="1480.0" type="line"/>
      <point x="186.55555555555554" y="1480.0" type="line"/>
    </contour>
  </outline>
</glyph>
<glyph name="N" format="2">
  <advance width="1683.0"/>
  <unicode hex="004E"/>
  <anchor x="842.1111111111111" y="0.0" name="bottom"/>
  <anchor x="842.1111111111111" y="1520.0" name="top"/>
  <outline>
    <contour>
      <point x="182.55555555555554" y="0.0" type="line"/>
      <point x="397.11111111111114" y="0.0" type="line"/>
      <point x="397.11111111111114" y="1231.0" type="line"/>
      <point x="350.0" y="1231.0" type="line"/>
      <point x="1270.111111111111" y="0.0" type="line"/>
      <point x="1500.4444444444443" y="0.0" type="line"/>
      <point x="1500.4444444444443" y="1480.0" type="line"/>
      <point x="1285.888888888889" y="1480.0" type="line"/>
      <point x="1285.888888888889" y="249.00000000000009" type="line"/>
      <point x="1333.0" y="249.00000000000009" type="line"/>
      <point x="412.8888888888889" y="1480.0" type="line"/>
      <point x="182.55555555555554" y="1480.0" type="line"/>
    </contour>
  </outline>
</glyph>
<glyph name="P" format="2">
  <advance width="1397.2222222222222"/>
  <unicode hex="0050"/>
  <outline>
    <contour>
      <point x="182.55555555555554" y="0.0" type="line"/>
      <point x="409.2222222222223" y="0.0" type="line"/>
      <point x="409.2222222222223" y="476.77777777777777" type="line"/>
      <point x="485.11111111111114" y="470.66666666666663"/>
      <point x="548.6666666666667" y="467.4444444444444"/>
      <point x="623.6666666666667" y="467.4444444444444" type="curve" smooth="yes"/>
      <point x="1089.5555555555557" y="467.4444444444444"/>
      <point x="1302.111111111111" y="648.5555555555555"/>
      <point x="1302.111111111111" y="984.3333333333334" type="curve" smooth="yes"/>
      <point x="1302.111111111111" y="1339.7777777777778"/>
      <point x="1072.5555555555557" y="1496.3333333333333"/>
      <point x="635.6666666666666" y="1496.3333333333333" type="curve" smooth="yes"/>
      <point x="469.55555555555554" y="1496.3333333333333"/>
      <point x="331.8888888888889" y="1481.2222222222222"/>
      <point x="182.55555555555554" y="1452.4444444444443" type="curve"/>
    </contour>
    <contour>
      <point x="625.2222222222223" y="634.5555555555555" type="curve" smooth="yes"/>
      <point x="543.0" y="634.5555555555555"/>
      <point x="479.66666666666674" y="639.0"/>
      <point x="409.2222222222223" y="648.6666666666667" type="curve"/>
      <point x="409.2222222222223" y="1309.0" type="line"/>
      <point x="482.66666666666674" y="1322.3333333333333"/>
      <point x="558.2222222222223" y="1329.2222222222222"/>
      <point x="653.5555555555555" y="1329.2222222222222" type="curve" smooth="yes"/>
      <point x="939.3333333333333" y="1329.2222222222222"/>
      <point x="1080.0" y="1224.5555555555554"/>
      <point x="1080.0" y="983.1111111111111" type="curve" smooth="yes"/>
      <point x="1080.0" y="746.3333333333334"/>
      <point x="950.3333333333334" y="634.5555555555555"/>
    </contour>
  </outline>
</glyph>
<glyph name="Q" format="2">
  <advance width="1696.4444444444446"/>
  <unicode hex="0051"/>
  <outline>
    <contour>
      <point x="1524.6666666666667" y="-263.2222222222223" type="curve"/>
      <point x="1556.7777777777778" y="-86.77777777777777" type="line"/>
      <point x="1288.3333333333335" y="-62.22222222222221"/>
      <point x="1004.6666666666667" y="-17.222222222222207"/>
      <point x="795.2222222222222" y="60.55555555555558" type="curve"/>
      <point x="726.1111111111111" y="6.000000000000005" type="line"/>
      <point x="1292.7777777777778" y="-57.55555555555556"/>
      <point x="1579.4444444444443" y="226.33333333333334"/>
      <point x="1579.4444444444443" y="740.0" type="curve" smooth="yes"/>
      <point x="1579.4444444444443" y="1253.6666666666667"/>
      <point x="1286.4444444444446" y="1498.7777777777778"/>
      <point x="848.2222222222223" y="1498.7777777777778" type="curve" smooth="yes"/>
      <point x="410.0" y="1498.7777777777778"/>
      <point x="117.0" y="1247.888888888889"/>
      <point x="117.0" y="732.2222222222222" type="curve" smooth="yes"/>
      <point x="117.0" y="176.33333333333334"/>
      <point x="422.44444444444446" y="-139.22222222222223"/>
    </contour>
    <contour>
      <point x="848.2222222222223" y="165.88888888888894" type="curve" smooth="yes"/>
      <point x="543.2222222222223" y="165.88888888888894"/>
      <point x="349.2222222222223" y="333.00000000000006"/>
      <point x="349.2222222222223" y="745.5555555555555" type="curve" smooth="yes"/>
      <point x="349.2222222222223" y="1145.4444444444443"/>
      <point x="547.1111111111111" y="1314.111111111111"/>
      <point x="848.2222222222223" y="1314.111111111111" type="curve" smooth="yes"/>
      <point x="1149.3333333333333" y="1314.111111111111"/>
      <point x="1347.2222222222222" y="1143.111111111111"/>
      <point x="1347.2222222222222" y="734.4444444444445" type="curve" smooth="yes"/>
      <point x="1347.2222222222222" y="336.8888888888889"/>
      <point x="1151.6666666666667" y="165.88888888888894"/>
    </contour>
  </outline>
</glyph>
<glyph name="T" format="2">
  <advance width="1356.0"/>
  <unicode hex="0054"/>
  <anchor x="678.0" y="0.0" name="bottom"/>
  <anchor x="678.0" y="761.1111111111111" name="center"/>
  <anchor x="678.0" y="1520.0" name="top"/>
  <outline>
    <contour>
      <point x="564.6666666666666" y="0.0" type="line"/>
      <point x="791.3333333333334" y="0.0" type="line"/>
      <point x="791.3333333333334" y="1296.5555555555554" type="line"/>
      <point x="1335.2222222222222" y="1296.5555555555554" type="line"/>
      <point x="1335.2222222222222" y="1480.0" type="line"/>
      <point x="20.77777777777778" y="1480.0" type="line"/>
      <point x="20.77777777777778" y="1296.5555555555554" type="line"/>
      <point x="564.6666666666666" y="1296.5555555555554" type="line"/>
    </contour>
  </outline>
</glyph>
<glyph name="V" format="2">
  <advance width="1528.5555555555557"/>
  <unicode hex="0056"/>
  <outline>
    <contour>
      <point x="601.7777777777777" y="0.0" type="line"/>
      <point x="926.7777777777778" y="0.0" type="line"/>
      <point x="1511.5555555555557" y="1480.0" type="line"/>
      <point x="1285.5555555555557" y="1480.0" type="line"/>
      <point x="744.1111111111111" y="100.6666666666667" type="line"/>
      <point x="797.4444444444445" y="100.6666666666667" type="line"/>
      <point x="258.66666666666674" y="1480.0" type="line"/>
      <point x="17.0" y="1480.0" type="line"/>
    </contour>
  </outline>
</glyph>
<glyph name="W" format="2">
  <advance width="2455.888888888889"/>
  <unicode hex="0057"/>
  <anchor x="1228.5555555555557" y="0.0" name="bottom"/>
  <anchor x="1228.5555555555557" y="1520.0" name="top"/>
  <outline>
    <contour>
      <point x="529.5555555555555" y="0.0" type="line"/>
      <point x="820.3333333333335" y="0.0" type="line"/>
      <point x="1261.4444444444446" y="1357.0" type="line"/>
      <point x="1198.6666666666667" y="1357.0" type="line"/>
      <point x="1635.5555555555557" y="0.0" type="line"/>
      <point x="1926.3333333333335" y="0.0" type="line"/>
      <point x="2395.222222222222" y="1480.0" type="line"/>
      <point x="2176.666666666667" y="1480.0" type="line"/>
      <point x="1751.0" y="116.22222222222226" type="line"/>
      <point x="1796.5555555555557" y="116.22222222222226" type="line"/>
      <point x="1362.4444444444446" y="1480.0" type="line"/>
      <point x="1102.7777777777778" y="1480.0" type="line"/>
      <point x="662.8888888888889" y="116.22222222222226" type="line"/>
      <point x="713.8888888888889" y="116.22222222222226" type="line"/>
      <point x="291.33333333333337" y="1480.0" type="line"/>
      <point x="59.444444444444436" y="1480.0" type="line"/>
    </contour>
  </outline>
</glyph>
<glyph name="X" format="2">
  <advance width="1455.1111111111113"/>
  <unicode hex="0058"/>
  <outline>
    <contour>
      <point x="1197.5555555555557" y="0.0" type="line"/>
      <point x="1457.888888888889" y="0.0" type="line"/>
      <point x="860.5555555555557" y="761.2222222222222" type="line"/>
      <point x="728.3333333333334" y="912.4444444444445" type="line"/>
      <point x="281.1111111111112" y="1480.0" type="line"/>
      <point x="20.777777777777764" y="1480.0" type="line"/>
      <point x="591.0" y="756.8888888888889" type="line"/>
      <point x="723.2222222222222" y="605.6666666666666" type="line"/>
    </contour>
    <contour>
      <point x="-3.2222222222222356" y="0.0" type="line"/>
      <point x="249.6666666666667" y="0.0" type="line"/>
      <point x="723.2222222222222" y="605.6666666666666" type="line"/>
      <point x="860.5555555555557" y="761.2222222222222" type="line"/>
      <point x="1426.888888888889" y="1480.0" type="line"/>
      <point x="1176.0" y="1480.0" type="line"/>
      <point x="728.3333333333334" y="912.4444444444445" type="line"/>
      <point x="591.0" y="756.8888888888889" type="line"/>
    </contour>
  </outline>
</glyph>
<glyph name="bracketleft" format="2">
  <advance width="755.7777777777778"/>
  <unicode hex="005B"/>
  <outline>
    <contour>
      <point x="202.55555555555554" y="-440.0" type="line"/>
      <point x="781.0" y="-440.0" type="line"/>
      <point x="781.0" y="-260.88888888888886" type="line"/>
      <point x="424.5555555555556" y="-260.88888888888886" type="line"/>
      <point x="424.5555555555556" y="1436.888888888889" type="line"/>
      <point x="788.7777777777778" y="1436.888888888889" type="line"/>
      <point x="788.7777777777778" y="1616.0" type="line"/>
      <point x="202.55555555555554" y="1616.0" type="line"/>
    </contour>
  </outline>
</glyph>
<glyph name="backslash" format="2">
  <advance width="792.7777777777778"/>
  <unicode hex="005C"/>
  <outline>
    <contour>
      <point x="567.5555555555555" y="-240.0" type="line"/>
      <point x="792.7777777777778" y="-240.0" type="line"/>
      <point x="225.22222222222229" y="1616.0" type="line"/>
      <point x="0.0" y="1616.0" type="line"/>
    </contour>
  </outline>
</glyph>
<glyph name="bracketright" format="2">
  <advance width="755.7777777777778"/>
  <unicode hex="005D"/>
  <outline>
    <contour>
      <point x="-25.222222222222214" y="-440.0" type="line"/>
      <point x="553.2222222222223" y="-440.0" type="line"/>
      <point x="553.2222222222223" y="1616.0" type="line"/>
      <point x="-33.0" y="1616.0" type="line"/>
      <point x="-33.0" y="1436.888888888889" type="line"/>
      <point x="331.2222222222222" y="1436.888888888889" type="line"/>
      <point x="331.2222222222222" y="-260.88888888888886" type="line"/>
      <point x="-25.222222222222214" y="-260.88888888888886" type="line"/>
    </contour>
  </outline>
</glyph>
<glyph name="underscore" format="2">
  <advance width="1309.888888888889"/>
  <unicode hex="005F"/>
  <outline>
    <contour>
      <point x="96.11111111111111" y="-179.88888888888894" type="line"/>
      <point x="1213.7777777777778" y="-179.88888888888894" type="line"/>
      <point x="1213.7777777777778" y="-0.7777777777777781" type="line"/>
      <point x="96.11111111111111" y="-0.7777777777777781" type="line"/>
    </contour>
  </outline>
</glyph>
<glyph name="b" format="2">
  <advance width="1329.888888888889"/>
  <unicode hex="0062"/>
  <anchor x="666.5555555555555" y="0.0" name="bottom"/>
  <anchor x="275.8888888888889" y="1616.0" name="top"/>
  <outline>
    <contour>
      <point x="589.6666666666667" y="-19.555555555555557" type="curve" smooth="yes"/>
      <point x="1009.8888888888889" y="-19.555555555555557"/>
      <point x="1226.0" y="180.55555555555557"/>
      <point x="1226.0" y="567.7777777777778" type="curve" smooth="yes"/>
      <point x="1226.0" y="944.8888888888889"/>
      <point x="1013.1111111111112" y="1104.5555555555557"/>
      <point x="748.7777777777778" y="1104.5555555555557" type="curve" smooth="yes"/>
      <point x="601.7777777777778" y="1104.5555555555557"/>
      <point x="482.7777777777778" y="1055.5555555555557"/>
      <point x="398.33333333333337" y="973.0" type="curve"/>
      <point x="386.88888888888897" y="973.0" type="line"/>
      <point x="386.88888888888897" y="1616.0" type="line"/>
      <point x="164.88888888888889" y="1616.0" type="line"/>
      <point x="164.88888888888889" y="37.77777777777778" type="line"/>
      <point x="299.44444444444446" y="-2.0000000000000004"/>
      <point x="446.0" y="-19.555555555555557"/>
    </contour>
    <contour>
      <point x="610.8888888888889" y="153.00000000000006" type="curve" smooth="yes"/>
      <point x="522.2222222222223" y="153.00000000000006"/>
      <point x="444.8888888888889" y="165.11111111111114"/>
      <point x="386.88888888888897" y="181.6666666666667" type="curve"/>
      <point x="386.88888888888897" y="806.4444444444445" type="line"/>
      <point x="465.7777777777778" y="888.6666666666666"/>
      <point x="572.5555555555557" y="922.6666666666666"/>
      <point x="680.2222222222222" y="922.6666666666666" type="curve" smooth="yes"/>
      <point x="868.8888888888889" y="922.6666666666666"/>
      <point x="1003.8888888888889" y="825.5555555555555"/>
      <point x="1003.8888888888889" y="550.4444444444445" type="curve" smooth="yes"/>
      <point x="1003.8888888888889" y="279.11111111111114"/>
      <point x="872.5555555555555" y="153.00000000000006"/>
    </contour>
  </outline>
</glyph>
<glyph name="c" format="2">
  <advance width="1044.888888888889"/>
  <unicode hex="0063"/>
  <anchor x="610.0" y="0.0" name="bottom"/>
  <anchor x="602.7777777777778" y="1200.0" name="top"/>
  <outline>
    <contour>
      <point x="679.5555555555557" y="-19.555555555555557" type="curve" smooth="yes"/>
      <point x="790.3333333333334" y="-19.555555555555557"/>
      <point x="897.3333333333334" y="-1.5555555555555562"/>
      <point x="987.8888888888889" y="29.777777777777775" type="curve"/>
      <point x="987.8888888888889" y="206.6666666666667" type="line"/>
      <point x="871.2222222222222" y="172.88888888888894"/>
      <point x="787.0" y="159.22222222222229"/>
      <point x="701.8888888888889" y="159.22222222222229" type="curve" smooth="yes"/>
      <point x="460.33333333333337" y="159.22222222222229"/>
      <point x="331.4444444444445" y="276.7777777777778"/>
      <point x="331.4444444444445" y="544.7777777777778" type="curve" smooth="yes"/>
      <point x="331.4444444444445" y="808.6666666666666"/>
      <point x="461.33333333333337" y="925.7777777777777"/>
      <point x="732.8888888888889" y="925.7777777777777" type="curve" smooth="yes"/>
      <point x="824.8888888888889" y="925.7777777777777"/>
      <point x="902.1111111111112" y="914.1111111111111"/>
      <point x="987.8888888888889" y="894.0" type="curve"/>
      <point x="987.8888888888889" y="1070.888888888889" type="line"/>
      <point x="906.8888888888889" y="1093.3333333333333"/>
      <point x="812.2222222222223" y="1104.5555555555557"/>
      <point x="714.2222222222222" y="1104.5555555555557" type="curve" smooth="yes"/>
      <point x="317.8888888888889" y="1104.5555555555557"/>
      <point x="103.88888888888889" y="915.7777777777778"/>
      <point x="103.88888888888889" y="542.3333333333334" type="curve" smooth="yes"/>
      <point x="103.88888888888889" y="167.66666666666669"/>
      <point x="309.44444444444446" y="-19.555555555555557"/>
    </contour>
  </outline>
</glyph>
<glyph name="f" format="2">
  <advance width="852.8888888888889"/>
  <unicode hex="0066"/>
  <outline>
    <contour>
      <point x="249.55555555555554" y="0.0" type="line"/>
      <point x="471.55555555555566" y="0.0" type="line"/>
      <point x="471.55555555555566" y="1192.2222222222222" type="line" smooth="yes"/>
      <point x="471.55555555555566" y="1382.111111111111"/>
      <point x="560.7777777777778" y="1458.0"/>
      <point x="754.6666666666667" y="1458.0" type="curve" smooth="yes"/>
      <point x="800.0" y="1458.0"/>
      <point x="849.1111111111111" y="1453.5555555555554"/>
      <point x="897.6666666666667" y="1445.888888888889" type="curve"/>
      <point x="897.6666666666667" y="1622.7777777777778" type="line"/>
      <point x="841.4444444444445" y="1630.7777777777778"/>
      <point x="788.1111111111111" y="1636.0"/>
      <point x="726.0" y="1636.0" type="curve" smooth="yes"/>
      <point x="417.6666666666667" y="1636.0"/>
      <point x="249.55555555555554" y="1475.3333333333333"/>
      <point x="249.55555555555554" y="1181.888888888889" type="curve" smooth="yes"/>
    </contour>
    <contour>
      <point x="32.88888888888889" y="908.6666666666666" type="line"/>
      <point x="849.0" y="908.6666666666666" type="line"/>
      <point x="849.0" y="1087.7777777777778" type="line"/>
      <point x="32.88888888888889" y="1087.7777777777778" type="line"/>
    </contour>
  </outline>
</glyph>
<glyph name="i" format="2">
  <advance width="551.7777777777778"/>
  <unicode hex="0069"/>
  <anchor x="275.8888888888889" y="1200.0" name="_top"/>
  <anchor x="275.8888888888889" y="0.0" name="bottom"/>
  <anchor x="386.8888888888889" y="0.0" name="ogonek"/>
  <anchor x="275.8888888888889" y="1200.0" name="top"/>
  <outline>
    <contour>
      <point x="164.88888888888889" y="0.0" type="line"/>
      <point x="386.8888888888889" y="0.0" type="line"/>
      <point x="386.8888888888889" y="1087.7777777777778" type="line"/>
      <point x="164.88888888888889" y="1087.7777777777778" type="line"/>
    </contour>
    <contour>
      <point x="275.8888888888889" y="1300.111111111111" type="curve" smooth="yes"/>
      <point x="371.7777777777778" y="1300.111111111111"/>
      <point x="420.33333333333337" y="1343.5555555555554"/>
      <point x="420.33333333333337" y="1420.4444444444443" type="curve" smooth="yes"/>
      <point x="420.33333333333337" y="1497.3333333333333"/>
      <point x="371.7777777777778" y="1542.0"/>
      <point x="275.8888888888889" y="1542.0" type="curve" smooth="yes"/>
      <point x="180.0" y="1542.0"/>
      <point x="131.44444444444443" y="1497.3333333333333"/>
      <point x="131.44444444444443" y="1420.4444444444443" type="curve" smooth="yes"/>
      <point x="131.44444444444443" y="1343.5555555555554"/>
      <point x="180.0" y="1300.111111111111"/>
    </contour>
  </outline>
</glyph>
<glyph name="j" format="2">
  <advance width="551.7777777777778"/>
  <unicode hex="006A"/>
  <anchor x="272.0" y="1207.3333333333333" name="_top"/>
  <anchor x="272.0" y="1207.3333333333333" name="top"/>
  <outline>
    <contour>
      <point x="119.88888888888893" y="-466.22222222222223" type="line"/>
      <point x="311.0" y="-264.1111111111111"/>
      <point x="386.8888888888889" y="-68.66666666666667"/>
      <point x="386.8888888888889" y="180.11111111111111" type="curve" smooth="yes"/>
      <point x="386.8888888888889" y="1087.7777777777778" type="line"/>
      <point x="164.88888888888889" y="1087.7777777777778" type="line"/>
      <point x="164.88888888888889" y="171.44444444444446" type="line" smooth="yes"/>
      <point x="164.88888888888889" y="-49.222222222222214"/>
      <point x="110.55555555555554" y="-210.66666666666666"/>
      <point x="-21.444444444444446" y="-369.55555555555554" type="curve"/>
    </contour>
    <contour>
      <point x="272.0" y="1307.4444444444443" type="curve" smooth="yes"/>
      <point x="367.8888888888889" y="1307.4444444444443"/>
      <point x="416.44444444444446" y="1350.888888888889"/>
      <point x="416.44444444444446" y="1427.7777777777778" type="curve" smooth="yes"/>
      <point x="416.44444444444446" y="1504.6666666666667"/>
      <point x="367.8888888888889" y="1549.3333333333333"/>
      <point x="272.0" y="1549.3333333333333" type="curve" smooth="yes"/>
      <point x="176.1111111111111" y="1549.3333333333333"/>
      <point x="127.55555555555554" y="1504.6666666666667"/>
      <point x="127.55555555555554" y="1427.7777777777778" type="curve" smooth="yes"/>
      <point x="127.55555555555554" y="1350.888888888889"/>
      <point x="176.1111111111111" y="1307.4444444444443"/>
    </contour>
  </outline>
</glyph>
<glyph name="l" format="2">
  <advance width="551.7777777777778"/>
  <unicode hex="006C"/>
  <anchor x="275.11111111111114" y="0.0" name="bottom"/>
  <anchor x="511.33333333333337" y="1616.0" name="caronalt"/>
  <anchor x="621.3333333333334" y="794.0" name="periodcentered"/>
  <anchor x="275.8888888888889" y="714.0" name="slash"/>
  <anchor x="275.8888888888889" y="1616.0" name="top"/>
  <outline>
    <contour>
      <point x="164.88888888888889" y="0.0" type="line"/>
      <point x="386.88888888888897" y="0.0" type="line"/>
      <point x="386.88888888888897" y="1616.0" type="line"/>
      <point x="164.88888888888889" y="1616.0" type="line"/>
    </contour>
  </outline>
</glyph>
<glyph name="m" format="2">
  <advance width="1935.3333333333335"/>
  <unicode hex="006D"/>
  <anchor x="980.6666666666667" y="0.0" name="bottom"/>
  <anchor x="980.6666666666667" y="1200.0" name="top"/>
  <outline>
    <contour>
      <point x="164.88888888888889" y="0.0" type="line"/>
      <point x="386.88888888888897" y="0.0" type="line"/>
      <point x="386.88888888888897" y="780.0" type="line"/>
      <point x="459.2222222222223" y="871.7777777777777"/>
      <point x="560.8888888888889" y="914.8888888888888"/>
      <point x="661.8888888888889" y="914.8888888888888" type="curve" smooth="yes"/>
      <point x="790.4444444444445" y="914.8888888888888"/>
      <point x="871.2222222222222" y="849.5555555555555"/>
      <point x="871.2222222222222" y="657.7777777777778" type="curve" smooth="yes"/>
      <point x="871.2222222222222" y="0.0" type="line"/>
      <point x="1089.3333333333335" y="0.0" type="line"/>
      <point x="1089.3333333333335" y="671.4444444444445" type="line" smooth="yes"/>
      <point x="1089.3333333333335" y="980.2222222222222"/>
      <point x="938.2222222222223" y="1104.5555555555557"/>
      <point x="721.5555555555557" y="1104.5555555555557" type="curve" smooth="yes"/>
      <point x="586.4444444444445" y="1104.5555555555557"/>
      <point x="464.33333333333337" y="1056.4444444444443"/>
      <point x="375.7777777777778" y="968.5555555555555" type="curve"/>
      <point x="363.1111111111112" y="968.5555555555555" type="line"/>
      <point x="348.5555555555556" y="1087.7777777777778" type="line"/>
      <point x="164.88888888888889" y="1087.7777777777778" type="line"/>
    </contour>
    <contour>
      <point x="1563.3333333333333" y="0.0" type="line"/>
      <point x="1784.5555555555557" y="0.0" type="line"/>
      <point x="1784.5555555555557" y="669.1111111111111" type="line" smooth="yes"/>
      <point x="1784.5555555555557" y="980.2222222222222"/>
      <point x="1628.6666666666667" y="1104.5555555555557"/>
      <point x="1401.3333333333335" y="1104.5555555555557" type="curve" smooth="yes"/>
      <point x="1271.0" y="1104.5555555555557"/>
      <point x="1124.0" y="1058.4444444444443"/>
      <point x="1001.5555555555557" y="925.2222222222223" type="curve"/>
      <point x="1054.3333333333335" y="758.0" type="line"/>
      <point x="1127.888888888889" y="871.7777777777777"/>
      <point x="1241.5555555555557" y="914.8888888888888"/>
      <point x="1347.2222222222222" y="914.8888888888888" type="curve" smooth="yes"/>
      <point x="1476.2222222222222" y="914.8888888888888"/>
      <point x="1563.3333333333333" y="849.5555555555555"/>
      <point x="1563.3333333333333" y="657.7777777777778" type="curve" smooth="yes"/>
    </contour>
  </outline>
</glyph>
<glyph name="n" format="2">
  <advance width="1328.7777777777778"/>
  <unicode hex="006E"/>
  <anchor x="14.444444444444443" y="1200.0" name="apostrophe"/>
  <anchor x="672.4444444444445" y="0.0" name="bottom"/>
  <anchor x="672.4444444444445" y="1200.0" name="top"/>
  <outline>
    <contour>
      <point x="164.88888888888889" y="0.0" type="line"/>
      <point x="386.88888888888897" y="0.0" type="line"/>
      <point x="386.88888888888897" y="783.6666666666666" type="line"/>
      <point x="474.5555555555556" y="876.6666666666666"/>
      <point x="600.4444444444445" y="914.8888888888888"/>
      <point x="708.3333333333334" y="914.8888888888888" type="curve" smooth="yes"/>
      <point x="863.5555555555555" y="914.8888888888888"/>
      <point x="956.0" y="847.1111111111111"/>
      <point x="956.0" y="655.3333333333333" type="curve" smooth="yes"/>
      <point x="956.0" y="0.0" type="line"/>
      <point x="1178.0" y="0.0" type="line"/>
      <point x="1178.0" y="664.2222222222222" type="line" smooth="yes"/>
      <point x="1178.0" y="979.0"/>
      <point x="1009.2222222222222" y="1104.5555555555557"/>
      <point x="762.0" y="1104.5555555555557" type="curve" smooth="yes"/>
      <point x="615.8888888888889" y="1104.5555555555557"/>
      <point x="477.66666666666674" y="1056.4444444444443"/>
      <point x="375.7777777777778" y="968.5555555555555" type="curve"/>
      <point x="363.1111111111112" y="968.5555555555555" type="line"/>
      <point x="348.5555555555556" y="1087.7777777777778" type="line"/>
      <point x="164.88888888888889" y="1087.7777777777778" type="line"/>
    </contour>
  </outline>
</glyph>
<glyph name="o" format="2">
  <advance width="1305.111111111111"/>
  <unicode hex="006F"/>
  <anchor x="652.5555555555555" y="0.0" name="bottom"/>
  <anchor x="652.5555555555555" y="543.8888888888889" name="center"/>
  <anchor x="823.4444444444445" y="0.0" name="ogonek"/>
  <anchor x="652.5555555555555" y="1200.0" name="top"/>
  <anchor x="737.6666666666667" y="1087.7777777777778" name="topright"/>
  <outline>
    <contour>
      <point x="652.5555555555555" y="-19.555555555555557" type="curve" smooth="yes"/>
      <point x="980.0" y="-19.555555555555557"/>
      <point x="1201.2222222222222" y="169.55555555555554"/>
      <point x="1201.2222222222222" y="543.8888888888889" type="curve" smooth="yes"/>
      <point x="1201.2222222222222" y="923.1111111111111"/>
      <point x="991.0" y="1104.5555555555557"/>
      <point x="652.5555555555555" y="1104.5555555555557" type="curve" smooth="yes"/>
      <point x="316.55555555555554" y="1104.5555555555557"/>
      <point x="103.88888888888889" y="918.2222222222222"/>
      <point x="103.88888888888889" y="543.8888888888889" type="curve" smooth="yes"/>
      <point x="103.88888888888889" y="164.66666666666669"/>
      <point x="322.6666666666667" y="-19.555555555555557"/>
    </contour>
    <contour>
      <point x="652.5555555555555" y="156.11111111111114" type="curve" smooth="yes"/>
      <point x="450.5555555555556" y="156.11111111111114"/>
      <point x="326.00000000000006" y="266.44444444444446"/>
      <point x="326.00000000000006" y="545.1111111111111" type="curve" smooth="yes"/>
      <point x="326.00000000000006" y="821.3333333333333"/>
      <point x="450.55555555555554" y="928.8888888888888"/>
      <point x="652.5555555555555" y="928.8888888888888" type="curve" smooth="yes"/>
      <point x="854.5555555555555" y="928.8888888888888"/>
      <point x="979.1111111111111" y="821.3333333333333"/>
      <point x="979.1111111111111" y="542.6666666666666" type="curve" smooth="yes"/>
      <point x="979.1111111111111" y="266.44444444444446"/>
      <point x="854.5555555555555" y="156.11111111111114"/>
    </contour>
  </outline>
</glyph>
<glyph name="p" format="2">
  <advance width="1329.888888888889"/>
  <unicode hex="0070"/>
  <outline>
    <contour>
      <point x="164.88888888888889" y="-440.0" type="line"/>
      <point x="386.88888888888897" y="-440.0" type="line"/>
      <point x="386.88888888888897" y="-1.7777777777777803" type="line"/>
      <point x="450.33333333333337" y="-10.666666666666668"/>
      <point x="529.8888888888889" y="-19.555555555555557"/>
      <point x="610.6666666666667" y="-19.555555555555557" type="curve" smooth="yes"/>
      <point x="1007.5555555555557" y="-19.555555555555557"/>
      <point x="1226.0" y="182.88888888888889"/>
      <point x="1226.0" y="565.4444444444445" type="curve" smooth="yes"/>
      <point x="1226.0" y="951.8888888888889"/>
      <point x="1005.6666666666667" y="1104.5555555555557"/>
      <point x="729.1111111111111" y="1104.5555555555557" type="curve" smooth="yes"/>
      <point x="583.1111111111111" y="1104.5555555555557"/>
      <point x="460.5555555555556" y="1050.888888888889"/>
      <point x="377.33333333333337" y="964.6666666666666" type="curve"/>
      <point x="365.8888888888889" y="964.6666666666666" type="line"/>
      <point x="351.66666666666674" y="1087.7777777777778" type="line"/>
      <point x="164.88888888888889" y="1087.7777777777778" type="line"/>
    </contour>
    <contour>
      <point x="599.8888888888889" y="153.77777777777783" type="curve" smooth="yes"/>
      <point x="522.2222222222223" y="153.77777777777783"/>
      <point x="444.8888888888889" y="163.4444444444445"/>
      <point x="386.88888888888897" y="178.00000000000006" type="curve"/>
      <point x="386.88888888888897" y="795.2222222222222" type="line"/>
      <point x="464.2222222222223" y="887.8888888888888"/>
      <point x="571.3333333333334" y="922.6666666666666"/>
      <point x="676.1111111111111" y="922.6666666666666" type="curve" smooth="yes"/>
      <point x="868.1111111111111" y="922.6666666666666"/>
      <point x="1003.8888888888889" y="825.5555555555555"/>
      <point x="1003.8888888888889" y="548.8888888888889" type="curve" smooth="yes"/>
      <point x="1003.8888888888889" y="279.8888888888889"/>
      <point x="872.5555555555555" y="153.77777777777783"/>
    </contour>
  </outline>
</glyph>
<glyph name="q" format="2">
  <advance width="1329.888888888889"/>
  <unicode hex="0071"/>
  <outline>
    <contour>
      <point x="943.0" y="-440.0" type="line"/>
      <point x="1165.0" y="-440.0" type="line"/>
      <point x="1165.0" y="1047.2222222222222" type="line"/>
      <point x="1037.4444444444443" y="1084.6666666666667"/>
      <point x="883.8888888888889" y="1104.5555555555557"/>
      <point x="740.2222222222223" y="1104.5555555555557" type="curve" smooth="yes"/>
      <point x="320.0" y="1104.5555555555557"/>
      <point x="103.88888888888889" y="904.4444444444445"/>
      <point x="103.88888888888889" y="517.2222222222222" type="curve" smooth="yes"/>
      <point x="103.88888888888889" y="140.11111111111111"/>
      <point x="316.77777777777777" y="-19.555555555555557"/>
      <point x="581.1111111111111" y="-19.555555555555557" type="curve" smooth="yes"/>
      <point x="728.1111111111111" y="-19.555555555555557"/>
      <point x="847.1111111111111" y="29.444444444444443"/>
      <point x="931.5555555555555" y="112.0" type="curve"/>
      <point x="943.0" y="112.0" type="line"/>
    </contour>
    <contour>
      <point x="649.6666666666667" y="162.33333333333337" type="curve" smooth="yes"/>
      <point x="461.0" y="162.33333333333337"/>
      <point x="326.00000000000006" y="259.44444444444446"/>
      <point x="326.00000000000006" y="534.5555555555555" type="curve" smooth="yes"/>
      <point x="326.00000000000006" y="805.8888888888889"/>
      <point x="460.44444444444446" y="932.0"/>
      <point x="719.0" y="932.0" type="curve" smooth="yes"/>
      <point x="808.4444444444445" y="932.0"/>
      <point x="885.0" y="921.1111111111111"/>
      <point x="943.0" y="905.7777777777777" type="curve"/>
      <point x="943.0" y="278.5555555555556" type="line"/>
      <point x="864.1111111111111" y="196.33333333333337"/>
      <point x="754.8888888888889" y="162.33333333333337"/>
    </contour>
  </outline>
</glyph>
<glyph name="v" format="2">
  <advance width="1245.5555555555557"/>
  <unicode hex="0076"/>
  <anchor x="624.0" y="0.0" name="bottom"/>
  <anchor x="624.0" y="1200.0" name="top"/>
  <outline>
    <contour>
      <point x="485.77777777777777" y="0.0" type="line"/>
      <point x="759.0" y="0.0" type="line"/>
      <point x="1227.7777777777778" y="1087.7777777777778" type="line"/>
      <point x="1009.2222222222222" y="1087.7777777777778" type="line"/>
      <point x="622.6666666666667" y="167.11111111111117" type="line"/>
      <point x="640.5555555555557" y="167.11111111111117" type="line"/>
      <point x="254.00000000000006" y="1087.7777777777778" type="line"/>
      <point x="17.77777777777777" y="1087.7777777777778" type="line"/>
    </contour>
  </outline>
</glyph>
<glyph name="x" format="2">
  <advance width="1197.111111111111"/>
  <unicode hex="0078"/>
  <anchor x="599.7777777777778" y="0.0" name="bottom"/>
  <anchor x="599.7777777777778" y="1200.0" name="top"/>
  <outline>
    <contour>
      <point x="923.2222222222222" y="0.0" type="line"/>
      <point x="1177.7777777777778" y="0.0" type="line"/>
      <point x="729.3333333333334" y="551.4444444444445" type="line"/>
      <point x="602.1111111111111" y="697.1111111111112" type="line"/>
      <point x="284.7777777777778" y="1087.7777777777778" type="line"/>
      <point x="30.222222222222214" y="1087.7777777777778" type="line"/>
      <point x="467.44444444444446" y="547.8888888888889" type="line"/>
      <point x="597.0" y="402.2222222222222" type="line"/>
    </contour>
    <contour>
      <point x="20.99999999999999" y="0.0" type="line"/>
      <point x="270.1111111111112" y="0.0" type="line"/>
      <point x="597.0" y="402.2222222222222" type="line"/>
      <point x="729.3333333333334" y="551.4444444444445" type="line"/>
      <point x="1165.0" y="1087.7777777777778" type="line"/>
      <point x="918.3333333333333" y="1087.7777777777778" type="line"/>
      <point x="602.1111111111111" y="697.1111111111112" type="line"/>
      <point x="467.44444444444446" y="547.8888888888889" type="line"/>
    </contour>
  </outline>
</glyph>
<glyph name="braceleft" format="2">
  <advance width="795.7777777777778"/>
  <unicode hex="007B"/>
  <outline>
    <contour>
      <point x="672.2222222222222" y="-460.0" type="curve" smooth="yes"/>
      <point x="731.7777777777778" y="-460.0"/>
      <point x="786.3333333333334" y="-455.22222222222223"/>
      <point x="828.7777777777778" y="-448.44444444444446" type="curve"/>
      <point x="828.7777777777778" y="-277.33333333333326" type="line"/>
      <point x="704.0" y="-277.33333333333326" type="line" smooth="yes"/>
      <point x="544.8888888888889" y="-277.33333333333326"/>
      <point x="464.5555555555556" y="-217.1111111111111"/>
      <point x="464.5555555555556" y="-56.0" type="curve" smooth="yes"/>
      <point x="464.5555555555556" y="365.44444444444446" type="line" smooth="yes"/>
      <point x="464.5555555555556" y="537.0"/>
      <point x="389.7777777777778" y="623.0"/>
      <point x="213.8888888888889" y="638.8888888888889" type="curve"/>
      <point x="213.8888888888889" y="612.8888888888889" type="line"/>
      <point x="389.7777777777778" y="628.7777777777778"/>
      <point x="464.5555555555556" y="714.7777777777778"/>
      <point x="464.5555555555556" y="886.3333333333334" type="curve" smooth="yes"/>
      <point x="464.5555555555556" y="1232.0" type="line" smooth="yes"/>
      <point x="464.5555555555556" y="1393.111111111111"/>
      <point x="544.8888888888889" y="1453.3333333333333"/>
      <point x="704.0" y="1453.3333333333333" type="curve" smooth="yes"/>
      <point x="828.7777777777778" y="1453.3333333333333" type="line"/>
      <point x="828.7777777777778" y="1624.4444444444443" type="line"/>
      <point x="786.3333333333334" y="1631.2222222222222"/>
      <point x="731.7777777777778" y="1636.0"/>
      <point x="672.2222222222222" y="1636.0" type="curve" smooth="yes"/>
      <point x="387.77777777777777" y="1636.0"/>
      <point x="242.55555555555554" y="1503.2222222222222"/>
      <point x="242.55555555555554" y="1242.3333333333333" type="curve" smooth="yes"/>
      <point x="242.55555555555554" y="881.1111111111111" type="line" smooth="yes"/>
      <point x="242.55555555555554" y="767.1111111111111"/>
      <point x="186.0" y="715.4444444444445"/>
      <point x="78.11111111111111" y="715.4444444444445" type="curve" smooth="yes"/>
      <point x="33.444444444444436" y="715.4444444444445" type="line"/>
      <point x="33.444444444444436" y="536.3333333333333" type="line"/>
      <point x="78.11111111111111" y="536.3333333333333" type="line" smooth="yes"/>
      <point x="186.0" y="536.3333333333333"/>
      <point x="242.55555555555554" y="484.66666666666663"/>
      <point x="242.55555555555554" y="370.66666666666663" type="curve" smooth="yes"/>
      <point x="242.55555555555554" y="-66.33333333333331" type="line" smooth="yes"/>
      <point x="242.55555555555554" y="-327.22222222222223"/>
      <point x="387.77777777777777" y="-460.0"/>
    </contour>
  </outline>
</glyph>
<glyph name="bar" format="2">
  <advance width="570.0"/>
  <unicode hex="007C"/>
  <outline>
    <contour>
      <point x="182.55555555555554" y="-440.0" type="line"/>
      <point x="387.44444444444446" y="-440.0" type="line"/>
      <point x="387.44444444444446" y="1616.0" type="line"/>
      <point x="182.55555555555554" y="1616.0" type="line"/>
    </contour>
  </outline>
</glyph>
<glyph name="braceright" format="2">
  <advance width="795.7777777777778"/>
  <unicode hex="007D"/>
  <outline>
    <contour>
      <point x="123.55555555555557" y="-460.0" type="curve" smooth="yes"/>
      <point x="408.0" y="-460.0"/>
      <point x="553.2222222222223" y="-327.22222222222223"/>
      <point x="553.2222222222223" y="-66.33333333333331" type="curve" smooth="yes"/>
      <point x="553.2222222222223" y="370.66666666666663" type="line" smooth="yes"/>
      <point x="553.2222222222223" y="484.66666666666663"/>
      <point x="609.7777777777778" y="536.3333333333333"/>
      <point x="717.6666666666667" y="536.3333333333333" type="curve" smooth="yes"/>
      <point x="762.3333333333334" y="536.3333333333333" type="line"/>
      <point x="762.3333333333334" y="715.4444444444445" type="line"/>
      <point x="717.6666666666667" y="715.4444444444445" type="line" smooth="yes"/>
      <point x="609.7777777777778" y="715.4444444444445"/>
      <point x="553.2222222222223" y="767.1111111111111"/>
      <point x="553.2222222222223" y="881.1111111111111" type="curve" smooth="yes"/>
      <point x="553.2222222222223" y="1242.3333333333333" type="line" smooth="yes"/>
      <point x="553.2222222222223" y="1503.2222222222222"/>
      <point x="408.0" y="1636.0"/>
      <point x="123.55555555555557" y="1636.0" type="curve" smooth="yes"/>
      <point x="64.00000000000001" y="1636.0"/>
      <point x="9.444444444444454" y="1631.2222222222222"/>
      <point x="-33.0" y="1624.4444444444443" type="curve"/>
      <point x="-33.0" y="1453.3333333333333" type="line"/>
      <point x="91.77777777777779" y="1453.3333333333333" type="line" smooth="yes"/>
      <point x="250.88888888888886" y="1453.3333333333333"/>
      <point x="331.2222222222222" y="1393.111111111111"/>
      <point x="331.2222222222222" y="1232.0" type="curve" smooth="yes"/>
      <point x="331.2222222222222" y="886.3333333333334" type="line" smooth="yes"/>
      <point x="331.2222222222222" y="714.7777777777778"/>
      <point x="406.0" y="628.7777777777778"/>
      <point x="581.8888888888889" y="612.8888888888889" type="curve"/>
      <point x="581.8888888888889" y="638.8888888888889" type="line"/>
      <point x="406.0" y="623.0"/>
      <point x="331.2222222222222" y="537.0"/>
      <point x="331.2222222222222" y="365.44444444444446" type="curve" smooth="yes"/>
      <point x="331.2222222222222" y="-56.0" type="line" smooth="yes"/>
      <point x="331.2222222222222" y="-217.1111111111111"/>
      <point x="250.88888888888886" y="-277.33333333333326"/>
      <point x="91.77777777777779" y="-277.33333333333326" type="curve" smooth="yes"/>
      <point x="-33.0" y="-277.33333333333326" type="line"/>
      <point x="-33.0" y="-448.44444444444446" type="line"/>
      <point x="9.444444444444454" y="-455.22222222222223"/>
      <point x="64.00000000000001" y="-460.0"/>
    </contour>
  </outline>
</glyph>
<glyph name="asciitilde" format="2">
  <advance width="1142.2222222222222"/>
  <unicode hex="007E"/>
  <outline>
    <contour>
      <point x="760.2222222222223" y="613.4444444444445" type="curve" smooth="yes"/>
      <point x="853.0" y="613.4444444444445"/>
      <point x="926.8888888888889" y="644.6666666666666"/>
      <point x="981.7777777777778" y="708.1111111111111" type="curve"/>
      <point x="981.7777777777778" y="891.2222222222223" type="line"/>
      <point x="915.3333333333334" y="816.8888888888889"/>
      <point x="846.6666666666667" y="782.4444444444445"/>
      <point x="760.5555555555555" y="782.4444444444445" type="curve" smooth="yes"/>
      <point x="643.3333333333334" y="782.4444444444445"/>
      <point x="529.5555555555555" y="899.2222222222223"/>
      <point x="382.0" y="899.2222222222223" type="curve" smooth="yes"/>
      <point x="289.22222222222223" y="899.2222222222223"/>
      <point x="215.33333333333331" y="868.0"/>
      <point x="160.44444444444443" y="804.5555555555555" type="curve"/>
      <point x="160.44444444444443" y="621.4444444444445" type="line"/>
      <point x="226.88888888888889" y="695.7777777777777"/>
      <point x="295.55555555555554" y="730.2222222222222"/>
      <point x="381.6666666666667" y="730.2222222222222" type="curve" smooth="yes"/>
      <point x="498.8888888888889" y="730.2222222222222"/>
      <point x="612.6666666666666" y="613.4444444444445"/>
    </contour>
  </outline>
</glyph>
<glyph name="exclamdown" format="2">
  <advance width="586.8888888888889"/>
  <unicode hex="00A1"/>
  <outline>
    <contour>
      <point x="225.88888888888889" y="672.2222222222222" type="line"/>
      <point x="176.55555555555554" y="148.77777777777777" type="line"/>
      <point x="176.55555555555554" y="-380.0" type="line"/>
      <point x="410.33333333333337" y="-380.0" type="line"/>
      <point x="410.33333333333337" y="148.77777777777777" type="line"/>
      <point x="363.33333333333337" y="672.2222222222222" type="line"/>
    </contour>
    <contour>
      <point x="293.44444444444446" y="1101.6666666666667" type="curve" smooth="yes"/>
      <point x="200.66666666666666" y="1101.6666666666667"/>
      <point x="142.77777777777777" y="1048.888888888889"/>
      <point x="142.77777777777777" y="964.2222222222222" type="curve" smooth="yes"/>
      <point x="142.77777777777777" y="879.5555555555555"/>
      <point x="199.11111111111111" y="825.5555555555554"/>
      <point x="293.44444444444446" y="825.5555555555554" type="curve" smooth="yes"/>
      <point x="387.7777777777778" y="825.5555555555554"/>
      <point x="444.1111111111112" y="881.1111111111111"/>
      <point x="444.1111111111112" y="964.2222222222222" type="curve" smooth="yes"/>
      <point x="444.1111111111112" y="1047.3333333333333"/>
      <point x="386.2222222222223" y="1101.6666666666667"/>
    </contour>
  </outline>
</glyph>
<glyph name="cent" format="2">
  <advance width="1057.7777777777778"/>
  <unicode hex="00A2"/>
  <outline>
    <contour>
      <point x="679.5555555555557" y="-19.555555555555557" type="curve" smooth="yes"/>
      <point x="790.3333333333334" y="-19.555555555555557"/>
      <point x="897.3333333333334" y="-1.5555555555555562"/>
      <point x="987.8888888888889" y="29.777777777777775" type="curve"/>
      <point x="987.8888888888889" y="206.6666666666667" type="line"/>
      <point x="871.2222222222222" y="172.88888888888894"/>
      <point x="787.0" y="159.22222222222229"/>
      <point x="701.8888888888889" y="159.22222222222229" type="curve" smooth="yes"/>
      <point x="460.33333333333337" y="159.22222222222229"/>
      <point x="331.4444444444445" y="276.7777777777778"/>
      <point x="331.4444444444445" y="544.7777777777778" type="curve" smooth="yes"/>
      <point x="331.4444444444445" y="808.6666666666666"/>
      <point x="456.4444444444445" y="925.7777777777777"/>
      <point x="731.6666666666667" y="925.7777777777777" type="curve" smooth="yes"/>
      <point x="823.6666666666667" y="925.7777777777777"/>
      <point x="899.6666666666667" y="914.1111111111111"/>
      <point x="987.8888888888889" y="894.0" type="curve"/>
      <point x="987.8888888888889" y="1070.888888888889" type="line"/>
      <point x="902.0" y="1093.3333333333333"/>
      <point x="814.6666666666667" y="1104.5555555555557"/>
      <point x="714.2222222222223" y="1104.5555555555557" type="curve" smooth="yes"/>
      <point x="316.6666666666667" y="1104.5555555555557"/>
      <point x="103.88888888888889" y="915.7777777777778"/>
      <point x="103.88888888888889" y="542.3333333333334" type="curve" smooth="yes"/>
      <point x="103.88888888888889" y="167.66666666666669"/>
      <point x="308.22222222222223" y="-19.555555555555557"/>
    </contour>
    <contour>
      <point x="560.4444444444445" y="-240.0" type="line"/>
      <point x="755.1111111111111" y="-240.0" type="line"/>
      <point x="755.1111111111111" y="23.333333333333343" type="line"/>
      <point x="560.4444444444445" y="23.333333333333343" type="line"/>
    </contour>
    <contour>
      <point x="560.4444444444445" y="1064.4444444444443" type="line"/>
      <point x="755.1111111111111" y="1064.4444444444443" type="line"/>
      <point x="755.1111111111111" y="1327.7777777777778" type="line"/>
      <point x="560.4444444444445" y="1327.7777777777778" type="line"/>
    </contour>
  </outline>
</glyph>
<glyph name="sterling" format="2">
  <advance width="1469.111111111111"/>
  <unicode hex="00A3"/>
  <outline>
    <contour>
      <point x="320.55555555555554" y="67.7777777777778" type="line"/>
      <point x="538.6666666666667" y="67.7777777777778" type="line"/>
      <point x="538.6666666666667" y="1011.1111111111111" type="line" smooth="yes"/>
      <point x="538.6666666666667" y="1238.2222222222222"/>
      <point x="665.7777777777778" y="1317.6666666666665"/>
      <point x="947.7777777777778" y="1317.6666666666665" type="curve" smooth="yes"/>
      <point x="1072.5555555555557" y="1317.6666666666665"/>
      <point x="1208.5555555555557" y="1298.888888888889"/>
      <point x="1323.2222222222222" y="1264.7777777777778" type="curve"/>
      <point x="1323.2222222222222" y="1449.4444444444443" type="line"/>
      <point x="1212.3333333333335" y="1480.7777777777778"/>
      <point x="1079.3333333333335" y="1498.7777777777778"/>
      <point x="940.8888888888889" y="1498.7777777777778" type="curve" smooth="yes"/>
      <point x="529.8888888888889" y="1498.7777777777778"/>
      <point x="320.55555555555554" y="1338.5555555555557"/>
      <point x="320.55555555555554" y="1001.0" type="curve" smooth="yes"/>
    </contour>
    <contour>
      <point x="83.88888888888889" y="0.0" type="line"/>
      <point x="1374.6666666666667" y="0.0" type="line"/>
      <point x="1374.6666666666667" y="175.22222222222229" type="line"/>
      <point x="83.88888888888889" y="175.22222222222229" type="line"/>
    </contour>
    <contour>
      <point x="83.88888888888889" y="668.2222222222222" type="line"/>
      <point x="1107.6666666666667" y="668.2222222222222" type="line"/>
      <point x="1107.6666666666667" y="831.7777777777778" type="line"/>
      <point x="83.88888888888889" y="831.7777777777778" type="line"/>
    </contour>
  </outline>
</glyph>
<glyph name="yen" format="2">
  <advance width="1383.7777777777778"/>
  <unicode hex="00A5"/>
  <outline>
    <contour>
      <point x="580.1111111111111" y="0.0" type="line"/>
      <point x="806.7777777777778" y="0.0" type="line"/>
      <point x="806.7777777777778" y="733.2222222222223" type="line"/>
      <point x="758.7777777777778" y="579.6666666666666" type="line"/>
      <point x="1392.7777777777778" y="1480.0" type="line"/>
      <point x="1159.4444444444443" y="1480.0" type="line"/>
      <point x="659.8888888888889" y="776.6666666666667" type="line"/>
      <point x="735.6666666666667" y="776.6666666666667" type="line"/>
      <point x="232.22222222222229" y="1480.0" type="line"/>
      <point x="-16.777777777777793" y="1480.0" type="line"/>
      <point x="628.1111111111111" y="579.6666666666666" type="line"/>
      <point x="580.1111111111111" y="735.5555555555555" type="line"/>
    </contour>
    <contour>
      <point x="244.0" y="281.88888888888886" type="line"/>
      <point x="1142.888888888889" y="281.88888888888886" type="line"/>
      <point x="1142.888888888889" y="418.22222222222223" type="line"/>
      <point x="244.0" y="418.22222222222223" type="line"/>
    </contour>
    <contour>
      <point x="244.0" y="629.7777777777777" type="line"/>
      <point x="1142.888888888889" y="629.7777777777777" type="line"/>
      <point x="1142.888888888889" y="766.1111111111111" type="line"/>
      <point x="244.0" y="766.1111111111111" type="line"/>
    </contour>
  </outline>
</glyph>
<glyph name="section" format="2">
  <advance width="1205.1111111111113"/>
  <unicode hex="00A7"/>
  <outline>
    <contour>
      <point x="525.1111111111111" y="-19.555555555555557" type="curve" smooth="yes"/>
      <point x="872.4444444444445" y="-19.555555555555557"/>
      <point x="1029.3333333333335" y="107.77777777777779"/>
      <point x="1029.3333333333335" y="308.44444444444446" type="curve" smooth="yes"/>
      <point x="1029.3333333333335" y="468.22222222222223"/>
      <point x="927.0" y="553.0"/>
      <point x="720.7777777777778" y="588.6666666666666" type="curve" smooth="yes"/>
      <point x="499.55555555555554" y="626.4444444444445" type="line" smooth="yes"/>
      <point x="363.2222222222223" y="650.6666666666666"/>
      <point x="324.11111111111114" y="711.6666666666666"/>
      <point x="324.11111111111114" y="787.2222222222222" type="curve" smooth="yes"/>
      <point x="324.11111111111114" y="841.4444444444445"/>
      <point x="348.7777777777778" y="892.2222222222222"/>
      <point x="410.0" y="935.7777777777777" type="curve"/>
      <point x="291.1111111111111" y="1019.0" type="line"/>
      <point x="190.0" y="961.8888888888889"/>
      <point x="134.77777777777777" y="878.7777777777778"/>
      <point x="134.77777777777777" y="773.5555555555555" type="curve" smooth="yes"/>
      <point x="134.77777777777777" y="608.0"/>
      <point x="237.77777777777777" y="512.0"/>
      <point x="438.0" y="477.1111111111111" type="curve" smooth="yes"/>
      <point x="658.4444444444445" y="440.1111111111111" type="line" smooth="yes"/>
      <point x="784.3333333333333" y="418.22222222222223"/>
      <point x="824.3333333333333" y="374.88888888888886"/>
      <point x="824.3333333333333" y="292.6666666666667" type="curve" smooth="yes"/>
      <point x="824.3333333333333" y="195.00000000000003"/>
      <point x="752.4444444444445" y="133.5555555555556"/>
      <point x="525.6666666666666" y="133.5555555555556" type="curve" smooth="yes"/>
      <point x="406.77777777777777" y="133.5555555555556"/>
      <point x="295.3333333333333" y="145.11111111111114"/>
      <point x="168.22222222222223" y="179.5555555555556" type="curve"/>
      <point x="168.22222222222223" y="25.22222222222222" type="line"/>
      <point x="279.55555555555554" y="-6.0"/>
      <point x="404.7777777777778" y="-19.555555555555557"/>
    </contour>
    <contour>
      <point x="911.5555555555557" y="458.77777777777777" type="line"/>
      <point x="1011.2222222222223" y="516.6666666666666"/>
      <point x="1070.3333333333335" y="598.8888888888889"/>
      <point x="1070.3333333333335" y="708.4444444444445" type="curve" smooth="yes"/>
      <point x="1070.3333333333335" y="876.0"/>
      <point x="968.0" y="964.3333333333334"/>
      <point x="762.5555555555557" y="998.4444444444445" type="curve" smooth="yes"/>
      <point x="534.3333333333334" y="1034.6666666666667" type="line" smooth="yes"/>
      <point x="409.66666666666674" y="1056.5555555555557"/>
      <point x="373.00000000000006" y="1110.111111111111"/>
      <point x="373.00000000000006" y="1181.7777777777778" type="curve" smooth="yes"/>
      <point x="373.00000000000006" y="1271.7777777777778"/>
      <point x="443.5555555555556" y="1343.6666666666665"/>
      <point x="703.5555555555557" y="1343.6666666666665" type="curve" smooth="yes"/>
      <point x="799.8888888888889" y="1343.6666666666665"/>
      <point x="885.2222222222222" y="1333.6666666666665"/>
      <point x="987.3333333333334" y="1307.5555555555554" type="curve"/>
      <point x="987.3333333333334" y="1461.888888888889" type="line"/>
      <point x="895.3333333333334" y="1484.7777777777778"/>
      <point x="791.0" y="1496.7777777777778"/>
      <point x="688.7777777777778" y="1496.7777777777778" type="curve" smooth="yes"/>
      <point x="313.33333333333337" y="1496.7777777777778"/>
      <point x="168.0" y="1361.0"/>
      <point x="168.0" y="1169.6666666666667" type="curve" smooth="yes"/>
      <point x="168.0" y="1015.7777777777777"/>
      <point x="270.22222222222223" y="922.5555555555555"/>
      <point x="479.77777777777777" y="886.1111111111111" type="curve" smooth="yes"/>
      <point x="700.2222222222222" y="848.3333333333333" type="line" smooth="yes"/>
      <point x="837.7777777777778" y="824.1111111111111"/>
      <point x="881.0" y="773.3333333333334"/>
      <point x="881.0" y="687.2222222222222" type="curve" smooth="yes"/>
      <point x="881.0" y="623.5555555555555"/>
      <point x="850.8888888888889" y="576.3333333333334"/>
      <point x="782.3333333333334" y="534.4444444444445" type="curve"/>
    </contour>
  </outline>
</glyph>
<glyph name="copyright" format="2">
  <advance width="1726.6666666666667"/>
  <unicode hex="00A9"/>
  <outline>
    <contour>
      <point x="863.3333333333334" y="-22.0" type="curve" smooth="yes"/>
      <point x="1311.6666666666667" y="-22.0"/>
      <point x="1609.6666666666667" y="282.0"/>
      <point x="1609.6666666666667" y="740.0" type="curve" smooth="yes"/>
      <point x="1609.6666666666667" y="1198.0"/>
      <point x="1311.6666666666667" y="1502.0"/>
      <point x="863.3333333333334" y="1502.0" type="curve" smooth="yes"/>
      <point x="415.0" y="1502.0"/>
      <point x="117.0" y="1198.0"/>
      <point x="117.0" y="740.0" type="curve" smooth="yes"/>
      <point x="117.0" y="282.0"/>
      <point x="415.0" y="-22.0"/>
    </contour>
    <contour>
      <point x="911.3333333333334" y="324.0" type="curve" smooth="yes"/>
      <point x="990.8888888888889" y="324.0"/>
      <point x="1062.888888888889" y="336.0"/>
      <point x="1123.888888888889" y="361.3333333333333" type="curve"/>
      <point x="1123.888888888889" y="498.8888888888889" type="line"/>
      <point x="1043.4444444444443" y="472.33333333333337"/>
      <point x="983.1111111111111" y="463.8888888888889"/>
      <point x="925.8888888888889" y="463.8888888888889" type="curve" smooth="yes"/>
      <point x="762.5555555555555" y="463.8888888888889"/>
      <point x="663.8888888888889" y="552.1111111111111"/>
      <point x="663.8888888888889" y="735.6666666666666" type="curve" smooth="yes"/>
      <point x="663.8888888888889" y="916.3333333333333"/>
      <point x="760.2222222222223" y="1004.1111111111111"/>
      <point x="944.0" y="1004.1111111111111" type="curve" smooth="yes"/>
      <point x="1008.5555555555555" y="1004.1111111111111"/>
      <point x="1062.6666666666667" y="995.6666666666666"/>
      <point x="1123.888888888889" y="980.7777777777777" type="curve"/>
      <point x="1123.888888888889" y="1118.3333333333333" type="line"/>
      <point x="1063.0" y="1136.0"/>
      <point x="1002.2222222222222" y="1144.0"/>
      <point x="931.8888888888889" y="1144.0" type="curve" smooth="yes"/>
      <point x="661.6666666666666" y="1144.0"/>
      <point x="503.22222222222223" y="994.4444444444445"/>
      <point x="503.22222222222223" y="733.2222222222222" type="curve" smooth="yes"/>
      <point x="503.22222222222223" y="466.6666666666667"/>
      <point x="665.0" y="324.0"/>
    </contour>
    <contour>
      <point x="863.3333333333334" y="102.00000000000003" type="curve" smooth="yes"/>
      <point x="483.77777777777777" y="102.00000000000003"/>
      <point x="244.8888888888889" y="352.33333333333337"/>
      <point x="244.8888888888889" y="740.0" type="curve" smooth="yes"/>
      <point x="244.8888888888889" y="1127.6666666666667"/>
      <point x="483.77777777777777" y="1378.0"/>
      <point x="863.3333333333334" y="1378.0" type="curve" smooth="yes"/>
      <point x="1242.888888888889" y="1378.0"/>
      <point x="1481.7777777777778" y="1127.6666666666667"/>
      <point x="1481.7777777777778" y="740.0" type="curve" smooth="yes"/>
      <point x="1481.7777777777778" y="352.33333333333337"/>
      <point x="1242.888888888889" y="102.00000000000003"/>
    </contour>
  </outline>
</glyph>
<glyph name="ordfeminine" format="2">
  <advance width="1012.3333333333334"/>
  <unicode hex="00AA"/>
  <outline>
    <contour>
      <point x="396.8888888888889" y="594.4444444444445" type="curve" smooth="yes"/>
      <point x="513.5555555555555" y="594.4444444444445"/>
      <point x="625.4444444444445" y="635.8888888888889"/>
      <point x="692.7777777777778" y="703.5555555555555" type="curve"/>
      <point x="703.4444444444445" y="703.5555555555555" type="line"/>
      <point x="718.7777777777778" y="610.0" type="line"/>
      <point x="893.0" y="610.0" type="line"/>
      <point x="893.0" y="1137.6666666666667" type="line" smooth="yes"/>
      <point x="893.0" y="1408.0"/>
      <point x="753.0" y="1495.888888888889"/>
      <point x="461.0" y="1495.888888888889" type="curve" smooth="yes"/>
      <point x="361.55555555555554" y="1495.888888888889"/>
      <point x="245.55555555555554" y="1482.6666666666667"/>
      <point x="148.0" y="1452.6666666666667" type="curve"/>
      <point x="148.0" y="1303.111111111111" type="line"/>
      <point x="243.33333333333331" y="1332.4444444444443"/>
      <point x="346.77777777777777" y="1345.2222222222222"/>
      <point x="429.44444444444446" y="1345.2222222222222" type="curve" smooth="yes"/>
      <point x="612.2222222222222" y="1345.2222222222222"/>
      <point x="686.6666666666666" y="1302.6666666666665"/>
      <point x="686.6666666666666" y="1165.6666666666667" type="curve" smooth="yes"/>
      <point x="686.6666666666666" y="814.4444444444445" type="line"/>
      <point x="622.0" y="759.5555555555555"/>
      <point x="539.8888888888889" y="731.8888888888889"/>
      <point x="459.2222222222223" y="731.8888888888889" type="curve" smooth="yes"/>
      <point x="337.00000000000006" y="731.8888888888889"/>
      <point x="284.1111111111112" y="781.5555555555555"/>
      <point x="284.1111111111112" y="860.0" type="curve" smooth="yes"/>
      <point x="284.1111111111112" y="936.7777777777778"/>
      <point x="336.66666666666674" y="980.7777777777778"/>
      <point x="480.44444444444446" y="995.0" type="curve" smooth="yes"/>
      <point x="752.5555555555555" y="1019.3333333333334" type="line"/>
      <point x="735.8888888888889" y="1124.7777777777778" type="line"/>
      <point x="450.44444444444446" y="1099.6666666666667" type="line" smooth="yes"/>
      <point x="187.66666666666666" y="1079.888888888889"/>
      <point x="77.66666666666666" y="996.4444444444445"/>
      <point x="77.66666666666666" y="840.4444444444445" type="curve" smooth="yes"/>
      <point x="77.66666666666666" y="693.3333333333334"/>
      <point x="184.1111111111111" y="594.4444444444445"/>
    </contour>
  </outline>
</glyph>
<glyph name="guillemetleft" format="2">
  <advance width="1251.2222222222222"/>
  <unicode hex="00AB"/>
  <outline>
    <contour>
      <point x="431.1111111111111" y="136.11111111111111" type="line"/>
      <point x="666.6666666666667" y="136.11111111111111" type="line"/>
      <point x="352.7777777777778" y="563.8888888888889" type="line"/>
      <point x="666.6666666666667" y="991.6666666666666" type="line"/>
      <point x="431.1111111111111" y="991.6666666666666" type="line"/>
      <point x="117.22222222222221" y="563.8888888888889" type="line"/>
    </contour>
    <contour>
      <point x="938.4444444444446" y="136.11111111111111" type="line"/>
      <point x="1174.0" y="136.11111111111111" type="line"/>
      <point x="860.1111111111112" y="563.8888888888889" type="line"/>
      <point x="1174.0" y="991.6666666666666" type="line"/>
      <point x="938.4444444444446" y="991.6666666666666" type="line"/>
      <point x="624.5555555555557" y="563.8888888888889" type="line"/>
    </contour>
  </outline>
</glyph>
<glyph name="logicalnot" format="2">
  <advance width="1426.4444444444443"/>
  <unicode hex="00AC"/>
  <outline>
    <contour>
      <point x="1095.6666666666665" y="199.0" type="line"/>
      <point x="1275.6666666666667" y="199.0" type="line"/>
      <point x="1275.6666666666667" y="845.6666666666667" type="line"/>
      <point x="160.44444444444443" y="845.6666666666667" type="line"/>
      <point x="160.44444444444443" y="674.3333333333333" type="line"/>
      <point x="1095.6666666666665" y="674.3333333333333" type="line"/>
    </contour>
  </outline>
</glyph>
<glyph name="registered" format="2">
  <advance width="1529.7777777777778"/>
  <unicode hex="00AE"/>
  <outline>
    <contour>
      <point x="764.8888888888889" y="268.0" type="curve" smooth="yes"/>
      <point x="1126.888888888889" y="268.0"/>
      <point x="1374.888888888889" y="518.0"/>
      <point x="1374.888888888889" y="882.0" type="curve" smooth="yes"/>
      <point x="1374.888888888889" y="1246.0"/>
      <point x="1126.888888888889" y="1498.0"/>
      <point x="764.8888888888889" y="1498.0" type="curve" smooth="yes"/>
      <point x="402.88888888888886" y="1498.0"/>
      <point x="154.88888888888889" y="1246.0"/>
      <point x="154.88888888888889" y="882.0" type="curve" smooth="yes"/>
      <point x="154.88888888888889" y="518.0"/>
      <point x="402.88888888888886" y="268.0"/>
    </contour>
    <contour>
      <point x="914.8888888888889" y="600.0" type="line"/>
      <point x="1032.111111111111" y="600.0" type="line"/>
      <point x="865.4444444444445" y="844.4444444444445" type="line"/>
      <point x="765.0" y="818.4444444444445" type="line"/>
    </contour>
    <contour>
      <point x="764.8888888888889" y="369.0" type="curve" smooth="yes"/>
      <point x="460.22222222222223" y="369.0"/>
      <point x="261.77777777777777" y="571.0"/>
      <point x="261.77777777777777" y="882.0" type="curve" smooth="yes"/>
      <point x="261.77777777777777" y="1193.7777777777778"/>
      <point x="460.22222222222223" y="1397.0"/>
      <point x="764.8888888888889" y="1397.0" type="curve" smooth="yes"/>
      <point x="1069.5555555555554" y="1397.0"/>
      <point x="1268.0" y="1193.7777777777778"/>
      <point x="1268.0" y="882.0" type="curve" smooth="yes"/>
      <point x="1268.0" y="571.0"/>
      <point x="1069.5555555555554" y="369.0"/>
    </contour>
    <contour>
      <point x="551.4444444444445" y="600.0" type="line"/>
      <point x="656.3333333333334" y="600.0" type="line"/>
      <point x="658.6666666666666" y="810.4444444444445" type="line"/>
      <point x="753.2222222222222" y="810.4444444444445" type="line" smooth="yes"/>
      <point x="922.2222222222222" y="810.4444444444445"/>
      <point x="1005.0" y="875.6666666666666"/>
      <point x="1005.0" y="1000.2222222222222" type="curve" smooth="yes"/>
      <point x="1005.0" y="1124.7777777777778"/>
      <point x="920.2222222222222" y="1192.0"/>
      <point x="753.2222222222222" y="1192.0" type="curve" smooth="yes"/>
      <point x="551.4444444444445" y="1192.0" type="line"/>
    </contour>
    <contour>
      <point x="658.6666666666666" y="899.6666666666666" type="line"/>
      <point x="658.6666666666666" y="1102.7777777777778" type="line"/>
      <point x="770.6666666666666" y="1102.7777777777778" type="line" smooth="yes"/>
      <point x="857.7777777777777" y="1102.7777777777778"/>
      <point x="901.6666666666666" y="1069.0"/>
      <point x="901.6666666666666" y="1000.2222222222222" type="curve" smooth="yes"/>
      <point x="901.6666666666666" y="931.4444444444445"/>
      <point x="859.7777777777777" y="899.6666666666666"/>
      <point x="770.6666666666666" y="899.6666666666666" type="curve" smooth="yes"/>
    </contour>
  </outline>
</glyph>
<glyph name="degree" format="2">
  <advance width="1043.5555555555557"/>
  <unicode hex="00B0"/>
  <outline>
    <contour>
      <point x="521.7777777777778" y="769.2222222222222" type="curve" smooth="yes"/>
      <point x="735.0" y="769.2222222222222"/>
      <point x="888.6666666666666" y="922.5555555555555"/>
      <point x="888.6666666666666" y="1133.7777777777778" type="curve" smooth="yes"/>
      <point x="888.6666666666666" y="1345.0"/>
      <point x="735.0" y="1497.5555555555557"/>
      <point x="521.7777777777778" y="1497.5555555555557" type="curve" smooth="yes"/>
      <point x="308.55555555555554" y="1497.5555555555557"/>
      <point x="154.88888888888889" y="1345.0"/>
      <point x="154.88888888888889" y="1133.7777777777778" type="curve" smooth="yes"/>
      <point x="154.88888888888889" y="922.5555555555555"/>
      <point x="308.55555555555554" y="769.2222222222222"/>
    </contour>
    <contour>
      <point x="521.7777777777778" y="904.7777777777778" type="curve" smooth="yes"/>
      <point x="391.6666666666667" y="904.7777777777778"/>
      <point x="297.8888888888889" y="993.3333333333334"/>
      <point x="297.8888888888889" y="1133.7777777777778" type="curve" smooth="yes"/>
      <point x="297.8888888888889" y="1275.0"/>
      <point x="392.44444444444446" y="1362.0"/>
      <point x="521.7777777777778" y="1362.0" type="curve" smooth="yes"/>
      <point x="651.1111111111111" y="1362.0"/>
      <point x="745.6666666666666" y="1275.0"/>
      <point x="745.6666666666666" y="1133.7777777777778" type="curve" smooth="yes"/>
      <point x="745.6666666666666" y="993.3333333333334"/>
      <point x="651.8888888888889" y="904.7777777777778"/>
    </contour>
  </outline>
</glyph>
<glyph name="plusminus" format="2">
  <advance width="1142.2222222222222"/>
  <unicode hex="00B1"/>
  <outline>
    <contour>
      <point x="481.1111111111111" y="352.55555555555554" type="line"/>
      <point x="661.1111111111111" y="352.55555555555554" type="line"/>
      <point x="661.1111111111111" y="667.5555555555555" type="line"/>
      <point x="981.7777777777778" y="667.5555555555555" type="line"/>
      <point x="981.7777777777778" y="838.8888888888889" type="line"/>
      <point x="661.1111111111111" y="838.8888888888889" type="line"/>
      <point x="661.1111111111111" y="1153.888888888889" type="line"/>
      <point x="481.1111111111111" y="1153.888888888889" type="line"/>
      <point x="481.1111111111111" y="838.8888888888889" type="line"/>
      <point x="160.44444444444443" y="838.8888888888889" type="line"/>
      <point x="160.44444444444443" y="667.5555555555555" type="line"/>
      <point x="481.1111111111111" y="667.5555555555555" type="line"/>
    </contour>
    <contour>
      <point x="160.44444444444443" y="0.0" type="line"/>
      <point x="981.7777777777778" y="0.0" type="line"/>
      <point x="981.7777777777778" y="171.33333333333337" type="line"/>
      <point x="160.44444444444443" y="171.33333333333337" type="line"/>
    </contour>
  </outline>
</glyph>
<glyph name="acute" format="2">
  <advance width="1200.0"/>
  <unicode hex="00B4"/>
  <anchor x="600.0" y="1200.0" name="_top"/>
  <anchor x="600.0" y="1594.888888888889" name="top"/>
  <outline>
    <contour>
      <point x="492.4444444444444" y="1246.888888888889" type="line"/>
      <point x="707.5555555555557" y="1246.888888888889" type="line"/>
      <point x="1005.4444444444446" y="1616.0" type="line"/>
      <point x="756.5555555555555" y="1616.0" type="line"/>
    </contour>
  </outline>
</glyph>
<glyph name="micro" format="2">
  <advance width="1318.7777777777778"/>
  <unicode hex="00B5"/>
  <outline>
    <contour>
      <point x="602.3333333333334" y="-18.0" type="curve" smooth="yes"/>
      <point x="730.2222222222222" y="-18.0"/>
      <point x="851.6666666666666" y="28.888888888888886"/>
      <point x="944.5555555555555" y="115.55555555555554" type="curve"/>
      <point x="955.6666666666666" y="115.55555555555554" type="line"/>
      <point x="970.2222222222222" y="0.0" type="line"/>
      <point x="1153.888888888889" y="0.0" type="line"/>
      <point x="1153.888888888889" y="1087.7777777777778" type="line"/>
      <point x="931.8888888888889" y="1087.7777777777778" type="line"/>
      <point x="931.8888888888889" y="304.11111111111114" type="line"/>
      <point x="846.6666666666666" y="214.77777777777783"/>
      <point x="725.6666666666667" y="171.6666666666667"/>
      <point x="614.4444444444445" y="171.6666666666667" type="curve" smooth="yes"/>
      <point x="468.8888888888889" y="171.6666666666667"/>
      <point x="372.7777777777778" y="237.00000000000006"/>
      <point x="372.7777777777778" y="428.7777777777778" type="curve" smooth="yes"/>
      <point x="372.7777777777778" y="565.5555555555555" type="line"/>
      <point x="245.44444444444446" y="565.5555555555555" type="line"/>
      <point x="245.44444444444446" y="417.44444444444446" type="line" smooth="yes"/>
      <point x="245.44444444444446" y="106.33333333333334"/>
      <point x="383.33333333333337" y="-18.0"/>
    </contour>
    <contour>
      <point x="150.77777777777777" y="-440.0" type="line"/>
      <point x="372.7777777777778" y="-440.0" type="line"/>
      <point x="372.7777777777778" y="1087.0" type="line"/>
      <point x="150.77777777777777" y="1087.0" type="line"/>
    </contour>
  </outline>
</glyph>
<glyph name="paragraph" format="2">
  <advance width="1397.2222222222222"/>
  <unicode hex="00B6"/>
  <outline>
    <contour>
      <point x="746.4444444444445" y="0.0" type="line"/>
      <point x="911.6666666666667" y="0.0" type="line"/>
      <point x="911.6666666666667" y="1480.0" type="line"/>
      <point x="813.4444444444445" y="1490.3333333333333"/>
      <point x="702.6666666666666" y="1496.3333333333333"/>
      <point x="589.4444444444445" y="1496.3333333333333" type="curve" smooth="yes"/>
      <point x="264.0" y="1496.3333333333333"/>
      <point x="95.11111111111111" y="1339.7777777777778"/>
      <point x="95.11111111111111" y="984.3333333333334" type="curve" smooth="yes"/>
      <point x="95.11111111111111" y="648.5555555555555"/>
      <point x="250.22222222222223" y="467.4444444444444"/>
      <point x="594.5555555555555" y="467.4444444444444" type="curve" smooth="yes"/>
      <point x="650.3333333333333" y="467.4444444444444"/>
      <point x="697.5555555555555" y="470.66666666666663"/>
      <point x="746.4444444444445" y="476.77777777777777" type="curve"/>
    </contour>
    <contour>
      <point x="1049.4444444444443" y="0.0" type="line"/>
      <point x="1214.6666666666667" y="0.0" type="line"/>
      <point x="1214.6666666666667" y="1480.0" type="line"/>
      <point x="1049.4444444444443" y="1480.0" type="line"/>
    </contour>
  </outline>
</glyph>
<glyph name="onesuperior" format="2">
  <advance width="881.0"/>
  <unicode hex="00B9"/>
  <outline>
    <contour>
      <point x="397.1111111111111" y="-108.22222222222221" type="line"/>
      <point x="579.3333333333334" y="-108.22222222222221" type="line"/>
      <point x="579.3333333333334" y="868.0" type="line"/>
      <point x="456.0" y="868.0" type="line"/>
      <point x="139.44444444444446" y="655.2222222222222" type="line"/>
      <point x="139.44444444444446" y="493.3333333333333" type="line"/>
      <point x="456.0" y="706.1111111111111" type="line"/>
      <point x="397.1111111111111" y="762.8888888888889" type="line"/>
    </contour>
    <contour>
      <point x="139.44444444444443" y="-136.0" type="line"/>
      <point x="823.0" y="-136.0" type="line"/>
      <point x="823.0" y="8.444444444444471" type="line"/>
      <point x="139.44444444444443" y="8.444444444444471" type="line"/>
    </contour>
  </outline>
</glyph>
<glyph name="ordmasculine" format="2">
  <advance width="1113.2222222222222"/>
  <unicode hex="00BA"/>
  <outline>
    <contour>
      <point x="556.2222222222222" y="594.4444444444445" type="curve" smooth="yes"/>
      <point x="846.3333333333334" y="594.4444444444445"/>
      <point x="1029.888888888889" y="752.3333333333334"/>
      <point x="1029.888888888889" y="1047.5555555555557" type="curve" smooth="yes"/>
      <point x="1029.888888888889" y="1342.7777777777778"/>
      <point x="846.3333333333334" y="1495.888888888889"/>
      <point x="556.2222222222222" y="1495.888888888889" type="curve" smooth="yes"/>
      <point x="266.1111111111111" y="1495.888888888889"/>
      <point x="83.33333333333331" y="1342.7777777777778"/>
      <point x="83.33333333333331" y="1047.5555555555557" type="curve" smooth="yes"/>
      <point x="83.33333333333331" y="752.3333333333334"/>
      <point x="266.1111111111111" y="594.4444444444445"/>
    </contour>
    <contour>
      <point x="556.2222222222222" y="755.6666666666667" type="curve" smooth="yes"/>
      <point x="395.0" y="755.6666666666667"/>
      <point x="290.5555555555556" y="843.8888888888889"/>
      <point x="290.5555555555556" y="1047.5555555555557" type="curve" smooth="yes"/>
      <point x="290.5555555555556" y="1251.2222222222222"/>
      <point x="395.0" y="1334.6666666666665"/>
      <point x="556.2222222222222" y="1334.6666666666665" type="curve" smooth="yes"/>
      <point x="719.0" y="1334.6666666666665"/>
      <point x="822.6666666666666" y="1251.2222222222222"/>
      <point x="822.6666666666666" y="1047.5555555555557" type="curve" smooth="yes"/>
      <point x="822.6666666666666" y="843.8888888888889"/>
      <point x="719.0" y="755.6666666666667"/>
    </contour>
  </outline>
</glyph>
<glyph name="guillemetright" format="2">
  <advance width="1251.2222222222222"/>
  <unicode hex="00BB"/>
  <outline>
    <contour>
      <point x="77.22222222222221" y="136.11111111111111" type="line"/>
      <point x="312.7777777777778" y="136.11111111111111" type="line"/>
      <point x="626.6666666666667" y="563.8888888888889" type="line"/>
      <point x="312.7777777777778" y="991.6666666666666" type="line"/>
      <point x="77.22222222222221" y="991.6666666666666" type="line"/>
      <point x="391.1111111111111" y="563.8888888888889" type="line"/>
    </contour>
    <contour>
      <point x="584.5555555555557" y="136.11111111111111" type="line"/>
      <point x="820.1111111111112" y="136.11111111111111" type="line"/>
      <point x="1134.0" y="563.8888888888889" type="line"/>
      <point x="820.1111111111112" y="991.6666666666666" type="line"/>
      <point x="584.5555555555557" y="991.6666666666666" type="line"/>
      <point x="898.4444444444446" y="563.8888888888889" type="line"/>
    </contour>
  </outline>
</glyph>
<glyph name="onequarter" format="2">
  <advance width="2122.777777777778"/>
  <unicode hex="00BC"/>
  <outline>
    <contour>
      <point x="397.1111111111111" y="643.7777777777778" type="line"/>
      <point x="579.3333333333334" y="643.7777777777778" type="line"/>
      <point x="579.3333333333334" y="1620.0" type="line"/>
      <point x="456.0" y="1620.0" type="line"/>
      <point x="139.44444444444446" y="1407.2222222222222" type="line"/>
      <point x="139.44444444444446" y="1245.3333333333333" type="line"/>
      <point x="456.0" y="1458.111111111111" type="line"/>
      <point x="397.1111111111111" y="1514.888888888889" type="line"/>
    </contour>
    <contour>
      <point x="139.44444444444443" y="616.0" type="line"/>
      <point x="823.0" y="616.0" type="line"/>
      <point x="823.0" y="760.4444444444445" type="line"/>
      <point x="139.44444444444443" y="760.4444444444445" type="line"/>
    </contour>
    <contour>
      <point x="531.5555555555555" y="-136.0" type="line"/>
      <point x="720.4444444444446" y="-136.0" type="line"/>
      <point x="1591.2222222222222" y="1616.0" type="line"/>
      <point x="1402.3333333333335" y="1616.0" type="line"/>
    </contour>
    <contour>
      <point x="1269.1111111111113" y="80.99999999999999" type="line"/>
      <point x="2100.3333333333335" y="80.99999999999999" type="line"/>
      <point x="2100.3333333333335" y="221.8888888888889" type="line"/>
      <point x="1423.4444444444446" y="221.8888888888889" type="line"/>
      <point x="1439.0" y="176.55555555555557" type="line"/>
      <point x="1815.0" y="864.0" type="line"/>
      <point x="1645.111111111111" y="864.0" type="line"/>
      <point x="1269.1111111111113" y="177.77777777777777" type="line"/>
    </contour>
    <contour>
      <point x="1792.0" y="-136.0" type="line"/>
      <point x="1954.3333333333335" y="-136.0" type="line"/>
      <point x="1954.3333333333335" y="526.0" type="line"/>
      <point x="1818.7777777777778" y="526.0" type="line"/>
      <point x="1792.0" y="221.8888888888889" type="line"/>
    </contour>
  </outline>
</glyph>
<glyph name="onehalf" format="2">
  <advance width="2122.777777777778"/>
  <unicode hex="00BD"/>
  <outline>
    <contour>
      <point x="397.1111111111111" y="643.7777777777778" type="line"/>
      <point x="579.3333333333334" y="643.7777777777778" type="line"/>
      <point x="579.3333333333334" y="1620.0" type="line"/>
      <point x="456.0" y="1620.0" type="line"/>
      <point x="139.44444444444446" y="1407.2222222222222" type="line"/>
      <point x="139.44444444444446" y="1245.3333333333333" type="line"/>
      <point x="456.0" y="1458.111111111111" type="line"/>
      <point x="397.1111111111111" y="1514.888888888889" type="line"/>
    </contour>
    <contour>
      <point x="139.44444444444443" y="616.0" type="line"/>
      <point x="823.0" y="616.0" type="line"/>
      <point x="823.0" y="760.4444444444445" type="line"/>
      <point x="139.44444444444443" y="760.4444444444445" type="line"/>
    </contour>
    <contour>
      <point x="531.5555555555555" y="-136.0" type="line"/>
      <point x="720.4444444444446" y="-136.0" type="line"/>
      <point x="1591.2222222222222" y="1616.0" type="line"/>
      <point x="1402.3333333333335" y="1616.0" type="line"/>
    </contour>
    <contour>
      <point x="1326.888888888889" y="-136.0" type="line"/>
      <point x="2051.5555555555557" y="-136.0" type="line"/>
      <point x="2051.5555555555557" y="8.444444444444471" type="line"/>
      <point x="1533.4444444444446" y="8.444444444444471" type="line"/>
      <point x="1530.8888888888891" y="-39.99999999999997" type="line"/>
      <point x="1810.1111111111113" y="253.33333333333334" type="line" smooth="yes"/>
      <point x="1940.4444444444446" y="391.1111111111111"/>
      <point x="1991.666666666667" y="481.8888888888889"/>
      <point x="1991.6666666666667" y="594.4444444444445" type="curve" smooth="yes"/>
      <point x="1991.666666666667" y="785.7777777777778"/>
      <point x="1862.0" y="876.7777777777778"/>
      <point x="1602.2222222222222" y="876.7777777777778" type="curve" smooth="yes"/>
      <point x="1494.7777777777778" y="876.7777777777778"/>
      <point x="1391.1111111111113" y="862.7777777777778"/>
      <point x="1314.888888888889" y="836.7777777777778" type="curve"/>
      <point x="1314.888888888889" y="691.1111111111111" type="line"/>
      <point x="1388.6666666666667" y="716.7777777777777"/>
      <point x="1484.0" y="734.6666666666666"/>
      <point x="1581.5555555555557" y="734.6666666666666" type="curve" smooth="yes"/>
      <point x="1741.5555555555557" y="734.6666666666666"/>
      <point x="1811.3333333333335" y="683.4444444444445"/>
      <point x="1811.3333333333335" y="574.4444444444445" type="curve" smooth="yes"/>
      <point x="1811.3333333333335" y="501.44444444444446"/>
      <point x="1770.3333333333335" y="432.55555555555554"/>
      <point x="1661.7777777777778" y="316.22222222222223" type="curve" smooth="yes"/>
      <point x="1326.888888888889" y="-42.77777777777776" type="line"/>
    </contour>
  </outline>
</glyph>
<glyph name="questiondown" format="2">
  <advance width="1040.111111111111"/>
  <unicode hex="00BF"/>
  <outline>
    <contour>
      <point x="629.2222222222223" y="697.5555555555555" type="line"/>
      <point x="491.77777777777777" y="697.5555555555555" type="line"/>
      <point x="474.77777777777777" y="418.77777777777777" type="line"/>
      <point x="189.33333333333334" y="329.0"/>
      <point x="64.88888888888889" y="202.22222222222223"/>
      <point x="64.88888888888889" y="-13.666666666666657" type="curve" smooth="yes"/>
      <point x="64.88888888888889" y="-255.0"/>
      <point x="248.88888888888889" y="-400.0"/>
      <point x="600.0" y="-400.0" type="curve" smooth="yes"/>
      <point x="736.2222222222223" y="-400.0"/>
      <point x="881.5555555555557" y="-378.8888888888889"/>
      <point x="994.4444444444446" y="-343.6666666666667" type="curve"/>
      <point x="994.4444444444446" y="-165.99999999999994" type="line"/>
      <point x="873.1111111111112" y="-205.22222222222217"/>
      <point x="741.0" y="-224.3333333333333"/>
      <point x="619.8888888888889" y="-224.3333333333333" type="curve" smooth="yes"/>
      <point x="395.8888888888889" y="-224.3333333333333"/>
      <point x="283.4444444444445" y="-138.77777777777774"/>
      <point x="283.4444444444445" y="-0.7777777777777573" type="curve" smooth="yes"/>
      <point x="283.4444444444445" y="141.0"/>
      <point x="372.5555555555556" y="232.66666666666666"/>
      <point x="667.6666666666667" y="303.88888888888886" type="curve"/>
    </contour>
    <contour>
      <point x="560.1111111111111" y="1101.6666666666667" type="curve" smooth="yes"/>
      <point x="466.1111111111111" y="1101.6666666666667"/>
      <point x="409.44444444444446" y="1049.2222222222222"/>
      <point x="409.44444444444446" y="972.0" type="curve" smooth="yes"/>
      <point x="409.44444444444446" y="893.5555555555555"/>
      <point x="465.77777777777777" y="841.1111111111111"/>
      <point x="560.1111111111111" y="841.1111111111111" type="curve" smooth="yes"/>
      <point x="654.4444444444446" y="841.1111111111111"/>
      <point x="710.7777777777778" y="892.0"/>
      <point x="710.7777777777778" y="972.0" type="curve" smooth="yes"/>
      <point x="710.7777777777778" y="1050.7777777777778"/>
      <point x="652.8888888888889" y="1101.6666666666667"/>
    </contour>
  </outline>
</glyph>
<glyph name="Atilde" format="2">
  <advance width="1565.6666666666667"/>
  <unicode hex="00C3"/>
  <anchor x="782.6666666666667" y="1520.0" name="_top"/>
  <anchor x="783.4444444444445" y="0.0" name="bottom"/>
  <anchor x="1530.1111111111113" y="0.0" name="ogonek"/>
  <anchor x="782.6666666666667" y="1520.0" name="top"/>
  <outline>
    <contour>
      <point x="35.55555555555555" y="0.0" type="line"/>
      <point x="259.66666666666674" y="0.0" type="line"/>
      <point x="796.5555555555555" y="1379.3333333333333" type="line"/>
      <point x="766.3333333333334" y="1379.3333333333333" type="line"/>
      <point x="1303.2222222222222" y="0.0" type="line"/>
      <point x="1530.1111111111113" y="0.0" type="line"/>
      <point x="942.8888888888889" y="1480.0" type="line"/>
      <point x="622.7777777777777" y="1480.0" type="line"/>
    </contour>
    <contour>
      <point x="391.2222222222223" y="452.55555555555554" type="line"/>
      <point x="1172.888888888889" y="452.55555555555554" type="line"/>
      <point x="1118.6666666666667" y="629.0" type="line"/>
      <point x="446.2222222222223" y="629.0" type="line"/>
    </contour>
    <contour>
      <point x="957.4444444444445" y="1654.4444444444443" type="curve" smooth="yes"/>
      <point x="1048.3333333333335" y="1654.4444444444443"/>
      <point x="1110.5555555555557" y="1675.2222222222222"/>
      <point x="1160.6666666666667" y="1719.888888888889" type="curve"/>
      <point x="1160.6666666666667" y="1851.6666666666667" type="line"/>
      <point x="1101.7777777777778" y="1805.2222222222222"/>
      <point x="1045.111111111111" y="1784.0"/>
      <point x="962.1111111111111" y="1784.0" type="curve" smooth="yes"/>
      <point x="843.7777777777778" y="1784.0"/>
      <point x="745.8888888888889" y="1858.0"/>
      <point x="607.8888888888889" y="1858.0" type="curve" smooth="yes"/>
      <point x="517.0" y="1858.0"/>
      <point x="454.7777777777778" y="1836.4444444444443"/>
      <point x="404.6666666666667" y="1791.7777777777778" type="curve"/>
      <point x="404.6666666666667" y="1660.0" type="line"/>
      <point x="463.55555555555554" y="1706.4444444444443"/>
      <point x="520.2222222222222" y="1727.6666666666667"/>
      <point x="603.2222222222222" y="1727.6666666666667" type="curve" smooth="yes"/>
      <point x="721.5555555555555" y="1727.6666666666667"/>
      <point x="819.4444444444445" y="1654.4444444444443"/>
    </contour>
  </outline>
</glyph>
<glyph name="Ccedilla" format="2">
  <advance width="1356.0"/>
  <unicode hex="00C7"/>
  <anchor x="818.8888888888889" y="0.0" name="_bottom"/>
  <anchor x="818.8888888888889" y="0.0" name="bottom"/>
  <anchor x="806.6666666666667" y="1520.0" name="top"/>
  <outline>
    <contour>
      <point x="911.1111111111111" y="-18.77777777777778" type="curve" smooth="yes"/>
      <point x="1050.111111111111" y="-18.77777777777778"/>
      <point x="1177.2222222222222" y="-0.3333333333333339"/>
      <point x="1295.0" y="37.11111111111111" type="curve"/>
      <point x="1295.0" y="224.88888888888894" type="line"/>
      <point x="1166.4444444444446" y="185.33333333333337"/>
      <point x="1052.888888888889" y="169.33333333333337"/>
      <point x="924.0" y="169.33333333333337" type="curve" smooth="yes"/>
      <point x="564.2222222222223" y="169.33333333333337"/>
      <point x="354.66666666666674" y="326.11111111111114"/>
      <point x="354.66666666666674" y="741.2222222222222" type="curve" smooth="yes"/>
      <point x="354.66666666666674" y="1139.2222222222222"/>
      <point x="556.8888888888889" y="1310.6666666666665"/>
      <point x="940.3333333333334" y="1310.6666666666665" type="curve" smooth="yes"/>
      <point x="1064.888888888889" y="1310.6666666666665"/>
      <point x="1183.5555555555557" y="1294.5555555555554"/>
      <point x="1295.0" y="1265.5555555555554" type="curve"/>
      <point x="1295.0" y="1453.3333333333333" type="line"/>
      <point x="1176.111111111111" y="1483.888888888889"/>
      <point x="1061.7777777777778" y="1498.7777777777778"/>
      <point x="926.0" y="1498.7777777777778" type="curve" smooth="yes"/>
      <point x="415.22222222222223" y="1498.7777777777778"/>
      <point x="117.0" y="1244.7777777777778"/>
      <point x="117.0" y="737.2222222222222" type="curve" smooth="yes"/>
      <point x="117.0" y="201.66666666666669"/>
      <point x="421.44444444444446" y="-18.77777777777778"/>
    </contour>
    <contour>
      <point x="808.3333333333334" y="-423.33333333333337" type="curve" smooth="yes"/>
      <point x="967.7777777777778" y="-423.33333333333337"/>
      <point x="1057.888888888889" y="-364.8888888888889"/>
      <point x="1057.888888888889" y="-257.55555555555554" type="curve" smooth="yes"/>
      <point x="1057.888888888889" y="-151.77777777777777"/>
      <point x="975.5555555555555" y="-94.1111111111111"/>
      <point x="821.3333333333333" y="-94.1111111111111" type="curve"/>
      <point x="864.7777777777778" y="-134.22222222222223" type="line"/>
      <point x="864.7777777777778" y="20.0" type="line"/>
      <point x="752.0" y="20.0" type="line"/>
      <point x="752.0" y="-171.77777777777777" type="line"/>
      <point x="799.3333333333334" y="-171.77777777777777" type="line" smooth="yes"/>
      <point x="888.0" y="-171.77777777777777"/>
      <point x="936.5555555555555" y="-195.11111111111111"/>
      <point x="936.5555555555555" y="-252.11111111111111" type="curve" smooth="yes"/>
      <point x="936.5555555555555" y="-307.55555555555554"/>
      <point x="888.0" y="-330.88888888888886"/>
      <point x="799.7777777777778" y="-330.88888888888886" type="curve" smooth="yes"/>
      <point x="735.7777777777778" y="-330.88888888888886"/>
      <point x="668.7777777777778" y="-319.66666666666663"/>
      <point x="596.2222222222222" y="-292.3333333333333" type="curve"/>
      <point x="596.2222222222222" y="-386.44444444444446" type="line"/>
      <point x="658.1111111111111" y="-410.11111111111114"/>
      <point x="733.0" y="-423.33333333333337"/>
    </contour>
  </outline>
</glyph>
<glyph name="Eacute" format="2">
  <advance width="1367.2222222222222"/>
  <unicode hex="00C9"/>
  <anchor x="741.5555555555555" y="1520.0" name="_top"/>
  <anchor x="744.0" y="0.0" name="bottom"/>
  <anchor x="1180.0" y="0.0" name="ogonek"/>
  <anchor x="741.5555555555555" y="1520.0" name="top"/>
  <anchor x="43.666666666666664" y="1480.0" name="topleft"/>
  <outline>
    <contour>
      <point x="182.55555555555554" y="0.0" type="line"/>
      <point x="1267.7777777777778" y="0.0" type="line"/>
      <point x="1267.7777777777778" y="176.4444444444445" type="line"/>
      <point x="406.8888888888889" y="176.4444444444445" type="line"/>
      <point x="406.8888888888889" y="1303.5555555555554" type="line"/>
      <point x="1257.7777777777778" y="1303.5555555555554" type="line"/>
      <point x="1257.7777777777778" y="1480.0" type="line"/>
      <point x="182.55555555555554" y="1480.0" type="line"/>
    </contour>
    <contour>
      <point x="295.6666666666667" y="670.4444444444445" type="line"/>
      <point x="1155.4444444444443" y="670.4444444444445" type="line"/>
      <point x="1155.4444444444443" y="846.8888888888889" type="line"/>
      <point x="295.6666666666667" y="846.8888888888889" type="line"/>
    </contour>
    <contour>
      <point x="636.3333333333333" y="1604.3333333333333" type="line"/>
      <point x="843.6666666666667" y="1604.3333333333333" type="line"/>
      <point x="1093.6666666666667" y="1893.4444444444443" type="line"/>
      <point x="851.3333333333333" y="1893.4444444444443" type="line"/>
    </contour>
  </outline>
</glyph>
<glyph name="Edieresis" format="2">
  <advance width="1367.2222222222222"/>
  <unicode hex="00CB"/>
  <anchor x="741.5555555555555" y="1520.0" name="_top"/>
  <anchor x="744.0" y="0.0" name="bottom"/>
  <anchor x="1180.0" y="0.0" name="ogonek"/>
  <anchor x="741.5555555555555" y="1520.0" name="top"/>
  <anchor x="43.666666666666664" y="1480.0" name="topleft"/>
  <outline>
    <contour>
      <point x="182.55555555555554" y="0.0" type="line"/>
      <point x="1267.7777777777778" y="0.0" type="line"/>
      <point x="1267.7777777777778" y="176.4444444444445" type="line"/>
      <point x="406.8888888888889" y="176.4444444444445" type="line"/>
      <point x="406.8888888888889" y="1303.5555555555554" type="line"/>
      <point x="1257.7777777777778" y="1303.5555555555554" type="line"/>
      <point x="1257.7777777777778" y="1480.0" type="line"/>
      <point x="182.55555555555554" y="1480.0" type="line"/>
    </contour>
    <contour>
      <point x="295.6666666666667" y="670.4444444444445" type="line"/>
      <point x="1155.4444444444443" y="670.4444444444445" type="line"/>
      <point x="1155.4444444444443" y="846.8888888888889" type="line"/>
      <point x="295.6666666666667" y="846.8888888888889" type="line"/>
    </contour>
    <contour>
      <point x="1015.5555555555557" y="1643.3333333333333" type="curve" smooth="yes"/>
      <point x="1099.7777777777778" y="1643.3333333333333"/>
      <point x="1142.111111111111" y="1684.4444444444443"/>
      <point x="1142.111111111111" y="1751.2222222222222" type="curve" smooth="yes"/>
      <point x="1142.111111111111" y="1818.0"/>
      <point x="1099.7777777777778" y="1860.3333333333333"/>
      <point x="1015.5555555555557" y="1860.3333333333333" type="curve" smooth="yes"/>
      <point x="931.3333333333334" y="1860.3333333333333"/>
      <point x="889.0" y="1818.0"/>
      <point x="889.0" y="1751.2222222222222" type="curve" smooth="yes"/>
      <point x="889.0" y="1684.4444444444443"/>
      <point x="931.3333333333334" y="1643.3333333333333"/>
    </contour>
    <contour>
      <point x="467.55555555555554" y="1643.3333333333333" type="curve" smooth="yes"/>
      <point x="551.7777777777778" y="1643.3333333333333"/>
      <point x="594.1111111111111" y="1684.4444444444443"/>
      <point x="594.1111111111111" y="1751.2222222222222" type="curve" smooth="yes"/>
      <point x="594.1111111111111" y="1818.0"/>
      <point x="551.7777777777778" y="1860.3333333333333"/>
      <point x="467.55555555555554" y="1860.3333333333333" type="curve" smooth="yes"/>
      <point x="383.3333333333333" y="1860.3333333333333"/>
      <point x="341.0" y="1818.0"/>
      <point x="341.0" y="1751.2222222222222" type="curve" smooth="yes"/>
      <point x="341.0" y="1684.4444444444443"/>
      <point x="383.3333333333333" y="1643.3333333333333"/>
    </contour>
  </outline>
</glyph>
<glyph name="Igrave" format="2">
  <advance width="591.7777777777778"/>
  <unicode hex="00CC"/>
  <anchor x="295.8888888888889" y="1520.0" name="_top"/>
  <anchor x="295.11111111111114" y="0.0" name="bottom"/>
  <anchor x="409.2222222222223" y="0.0" name="ogonek"/>
  <anchor x="295.8888888888889" y="1520.0" name="top"/>
  <outline>
    <contour>
      <point x="182.55555555555554" y="0.0" type="line"/>
      <point x="409.2222222222223" y="0.0" type="line"/>
      <point x="409.2222222222223" y="1480.0" type="line"/>
      <point x="182.55555555555554" y="1480.0" type="line"/>
    </contour>
    <contour>
      <point x="192.22222222222223" y="1604.3333333333333" type="line"/>
      <point x="399.5555555555556" y="1604.3333333333333" type="line"/>
      <point x="184.5555555555556" y="1893.4444444444443" type="line"/>
      <point x="-57.7777777777778" y="1893.4444444444443" type="line"/>
    </contour>
  </outline>
</glyph>
<glyph name="Iacute" format="2">
  <advance width="591.7777777777778"/>
  <unicode hex="00CD"/>
  <anchor x="295.8888888888889" y="1520.0" name="_top"/>
  <anchor x="295.11111111111114" y="0.0" name="bottom"/>
  <anchor x="409.2222222222223" y="0.0" name="ogonek"/>
  <anchor x="295.8888888888889" y="1520.0" name="top"/>
  <outline>
    <contour>
      <point x="182.55555555555554" y="0.0" type="line"/>
      <point x="409.2222222222223" y="0.0" type="line"/>
      <point x="409.2222222222223" y="1480.0" type="line"/>
      <point x="182.55555555555554" y="1480.0" type="line"/>
    </contour>
    <contour>
      <point x="190.66666666666666" y="1604.3333333333333" type="line"/>
      <point x="398.00000000000006" y="1604.3333333333333" type="line"/>
      <point x="648.0" y="1893.4444444444443" type="line"/>
      <point x="405.66666666666663" y="1893.4444444444443" type="line"/>
    </contour>
  </outline>
</glyph>
<glyph name="Icircumflex" format="2">
  <advance width="591.7777777777778"/>
  <unicode hex="00CE"/>
  <anchor x="295.8888888888889" y="1520.0" name="_top"/>
  <anchor x="295.11111111111114" y="0.0" name="bottom"/>
  <anchor x="409.2222222222223" y="0.0" name="ogonek"/>
  <anchor x="295.8888888888889" y="1520.0" name="top"/>
  <outline>
    <contour>
      <point x="182.55555555555554" y="0.0" type="line"/>
      <point x="409.2222222222223" y="0.0" type="line"/>
      <point x="409.2222222222223" y="1480.0" type="line"/>
      <point x="182.55555555555554" y="1480.0" type="line"/>
    </contour>
    <contour>
      <point x="-104.66666666666669" y="1604.3333333333333" type="line"/>
      <point x="93.11111111111114" y="1604.3333333333333" type="line"/>
      <point x="321.6666666666667" y="1828.111111111111" type="line"/>
      <point x="270.11111111111114" y="1828.111111111111" type="line"/>
      <point x="498.6666666666667" y="1604.3333333333333" type="line"/>
      <point x="696.4444444444446" y="1604.3333333333333" type="line"/>
      <point x="393.7777777777778" y="1893.4444444444443" type="line"/>
      <point x="198.0" y="1893.4444444444443" type="line"/>
    </contour>
  </outline>
</glyph>
<glyph name="Idieresis" format="2">
  <advance width="591.7777777777778"/>
  <unicode hex="00CF"/>
  <anchor x="295.8888888888889" y="1520.0" name="_top"/>
  <anchor x="295.11111111111114" y="0.0" name="bottom"/>
  <anchor x="409.2222222222223" y="0.0" name="ogonek"/>
  <anchor x="295.8888888888889" y="1520.0" name="top"/>
  <outline>
    <contour>
      <point x="182.55555555555554" y="0.0" type="line"/>
      <point x="409.2222222222223" y="0.0" type="line"/>
      <point x="409.2222222222223" y="1480.0" type="line"/>
      <point x="182.55555555555554" y="1480.0" type="line"/>
    </contour>
    <contour>
      <point x="569.8888888888889" y="1643.3333333333333" type="curve" smooth="yes"/>
      <point x="654.1111111111112" y="1643.3333333333333"/>
      <point x="696.4444444444446" y="1684.4444444444443"/>
      <point x="696.4444444444446" y="1751.2222222222222" type="curve" smooth="yes"/>
      <point x="696.4444444444446" y="1818.0"/>
      <point x="654.1111111111112" y="1860.3333333333333"/>
      <point x="569.8888888888889" y="1860.3333333333333" type="curve" smooth="yes"/>
      <point x="485.6666666666667" y="1860.3333333333333"/>
      <point x="443.3333333333333" y="1818.0"/>
      <point x="443.3333333333333" y="1751.2222222222222" type="curve" smooth="yes"/>
      <point x="443.3333333333333" y="1684.4444444444443"/>
      <point x="485.6666666666667" y="1643.3333333333333"/>
    </contour>
    <contour>
      <point x="21.888888888888903" y="1643.3333333333333" type="curve" smooth="yes"/>
      <point x="106.11111111111114" y="1643.3333333333333"/>
      <point x="148.44444444444449" y="1684.4444444444443"/>
      <point x="148.44444444444449" y="1751.2222222222222" type="curve" smooth="yes"/>
      <point x="148.44444444444449" y="1818.0"/>
      <point x="106.11111111111114" y="1860.3333333333333"/>
      <point x="21.888888888888903" y="1860.3333333333333" type="curve" smooth="yes"/>
      <point x="-62.33333333333334" y="1860.3333333333333"/>
      <point x="-104.66666666666667" y="1818.0"/>
      <point x="-104.66666666666667" y="1751.2222222222222" type="curve" smooth="yes"/>
      <point x="-104.66666666666667" y="1684.4444444444443"/>
      <point x="-62.33333333333334" y="1643.3333333333333"/>
    </contour>
  </outline>
</glyph>
<glyph name="Ntilde" format="2">
  <advance width="1683.0"/>
  <unicode hex="00D1"/>
  <anchor x="842.1111111111111" y="1520.0" name="_top"/>
  <anchor x="842.1111111111111" y="0.0" name="bottom"/>
  <anchor x="842.1111111111111" y="1520.0" name="top"/>
  <outline>
    <contour>
      <point x="182.55555555555554" y="0.0" type="line"/>
      <point x="397.11111111111114" y="0.0" type="line"/>
      <point x="397.11111111111114" y="1231.0" type="line"/>
      <point x="350.0" y="1231.0" type="line"/>
      <point x="1270.111111111111" y="0.0" type="line"/>
      <point x="1500.4444444444443" y="0.0" type="line"/>
      <point x="1500.4444444444443" y="1480.0" type="line"/>
      <point x="1285.888888888889" y="1480.0" type="line"/>
      <point x="1285.888888888889" y="249.00000000000009" type="line"/>
      <point x="1333.0" y="249.00000000000009" type="line"/>
      <point x="412.8888888888889" y="1480.0" type="line"/>
      <point x="182.55555555555554" y="1480.0" type="line"/>
    </contour>
    <contour>
      <point x="1016.8888888888889" y="1654.4444444444443" type="curve" smooth="yes"/>
      <point x="1107.7777777777778" y="1654.4444444444443"/>
      <point x="1170.0" y="1675.2222222222222"/>
      <point x="1220.111111111111" y="1719.888888888889" type="curve"/>
      <point x="1220.111111111111" y="1851.6666666666667" type="line"/>
      <point x="1161.2222222222222" y="1805.2222222222222"/>
      <point x="1104.5555555555557" y="1784.0"/>
      <point x="1021.5555555555557" y="1784.0" type="curve" smooth="yes"/>
      <point x="903.2222222222222" y="1784.0"/>
      <point x="805.3333333333334" y="1858.0"/>
      <point x="667.3333333333334" y="1858.0" type="curve" smooth="yes"/>
      <point x="576.4444444444445" y="1858.0"/>
      <point x="514.2222222222222" y="1836.4444444444443"/>
      <point x="464.1111111111111" y="1791.7777777777778" type="curve"/>
      <point x="464.1111111111111" y="1660.0" type="line"/>
      <point x="523.0" y="1706.4444444444443"/>
      <point x="579.6666666666666" y="1727.6666666666667"/>
      <point x="662.6666666666666" y="1727.6666666666667" type="curve" smooth="yes"/>
      <point x="781.0" y="1727.6666666666667"/>
      <point x="878.8888888888889" y="1654.4444444444443"/>
    </contour>
  </outline>
</glyph>
<glyph name="Otilde" format="2">
  <advance width="1696.4444444444446"/>
  <unicode hex="00D5"/>
  <anchor x="848.2222222222223" y="1520.0" name="_top"/>
  <anchor x="848.2222222222223" y="0.0" name="bottom"/>
  <anchor x="848.2222222222223" y="740.0" name="center"/>
  <anchor x="1019.6666666666667" y="0.0" name="ogonek"/>
  <anchor x="848.2222222222223" y="1520.0" name="top"/>
  <anchor x="53.88888888888889" y="1480.0" name="topleft"/>
  <anchor x="1046.4444444444443" y="1480.0" name="topright"/>
  <outline>
    <contour>
      <point x="848.2222222222223" y="-18.77777777777778" type="curve" smooth="yes"/>
      <point x="1285.6666666666667" y="-18.77777777777778"/>
      <point x="1579.4444444444443" y="233.66666666666669"/>
      <point x="1579.4444444444443" y="740.0" type="curve" smooth="yes"/>
      <point x="1579.4444444444443" y="1246.3333333333333"/>
      <point x="1290.1111111111113" y="1498.7777777777778"/>
      <point x="848.2222222222223" y="1498.7777777777778" type="curve" smooth="yes"/>
      <point x="410.0" y="1498.7777777777778"/>
      <point x="117.0" y="1247.888888888889"/>
      <point x="117.0" y="740.0" type="curve" smooth="yes"/>
      <point x="117.0" y="232.11111111111111"/>
      <point x="407.1111111111111" y="-18.77777777777778"/>
    </contour>
    <contour>
      <point x="848.2222222222223" y="165.88888888888894" type="curve" smooth="yes"/>
      <point x="544.7777777777778" y="165.88888888888894"/>
      <point x="349.2222222222223" y="334.5555555555556"/>
      <point x="349.2222222222223" y="745.5555555555555" type="curve" smooth="yes"/>
      <point x="349.2222222222223" y="1145.4444444444443"/>
      <point x="547.1111111111111" y="1314.111111111111"/>
      <point x="848.2222222222223" y="1314.111111111111" type="curve" smooth="yes"/>
      <point x="1149.3333333333333" y="1314.111111111111"/>
      <point x="1347.2222222222222" y="1143.111111111111"/>
      <point x="1347.2222222222222" y="734.4444444444445" type="curve" smooth="yes"/>
      <point x="1347.2222222222222" y="336.8888888888889"/>
      <point x="1151.6666666666667" y="165.88888888888894"/>
    </contour>
    <contour>
      <point x="1023.0" y="1654.4444444444443" type="curve" smooth="yes"/>
      <point x="1113.888888888889" y="1654.4444444444443"/>
      <point x="1176.111111111111" y="1675.2222222222222"/>
      <point x="1226.2222222222222" y="1719.888888888889" type="curve"/>
      <point x="1226.2222222222222" y="1851.6666666666667" type="line"/>
      <point x="1167.3333333333335" y="1805.2222222222222"/>
      <point x="1110.6666666666667" y="1784.0"/>
      <point x="1027.6666666666667" y="1784.0" type="curve" smooth="yes"/>
      <point x="909.3333333333334" y="1784.0"/>
      <point x="811.4444444444445" y="1858.0"/>
      <point x="673.4444444444445" y="1858.0" type="curve" smooth="yes"/>
      <point x="582.5555555555555" y="1858.0"/>
      <point x="520.3333333333334" y="1836.4444444444443"/>
      <point x="470.22222222222223" y="1791.7777777777778" type="curve"/>
      <point x="470.22222222222223" y="1660.0" type="line"/>
      <point x="529.1111111111111" y="1706.4444444444443"/>
      <point x="585.7777777777778" y="1727.6666666666667"/>
      <point x="668.7777777777778" y="1727.6666666666667" type="curve" smooth="yes"/>
      <point x="787.1111111111111" y="1727.6666666666667"/>
      <point x="885.0" y="1654.4444444444443"/>
    </contour>
  </outline>
</glyph>
<glyph name="multiply" format="2">
  <advance width="1052.2222222222222"/>
  <unicode hex="00D7"/>
  <outline>
    <contour>
      <point x="240.66666666666669" y="354.3333333333333" type="line"/>
      <point x="526.1111111111111" y="639.7777777777777" type="line"/>
      <point x="811.5555555555555" y="354.3333333333333" type="line"/>
      <point x="931.7777777777778" y="474.55555555555554" type="line"/>
      <point x="646.3333333333334" y="760.0" type="line"/>
      <point x="931.7777777777778" y="1045.4444444444443" type="line"/>
      <point x="811.5555555555555" y="1165.6666666666667" type="line"/>
      <point x="526.1111111111111" y="880.2222222222223" type="line"/>
      <point x="240.66666666666669" y="1165.6666666666667" type="line"/>
      <point x="120.44444444444443" y="1045.4444444444443" type="line"/>
      <point x="405.88888888888886" y="760.0" type="line"/>
      <point x="120.44444444444443" y="474.55555555555554" type="line"/>
    </contour>
  </outline>
</glyph>
<glyph name="Ucircumflex" format="2">
  <advance width="1627.6666666666667"/>
  <unicode hex="00DB"/>
  <anchor x="816.0" y="1520.0" name="_top"/>
  <anchor x="816.0" y="0.0" name="bottom"/>
  <anchor x="1009.2222222222222" y="2.4444444444444438" name="ogonek"/>
  <anchor x="816.0" y="1520.0" name="top"/>
  <anchor x="1230.0" y="1480.0" name="topright"/>
  <outline>
    <contour>
      <point x="816.0" y="-18.77777777777778" type="curve" smooth="yes"/>
      <point x="1256.3333333333335" y="-18.77777777777778"/>
      <point x="1452.3333333333335" y="189.7777777777778"/>
      <point x="1452.3333333333335" y="615.7777777777778" type="curve" smooth="yes"/>
      <point x="1452.3333333333335" y="1480.0" type="line"/>
      <point x="1230.0" y="1480.0" type="line"/>
      <point x="1230.0" y="594.8888888888889" type="line" smooth="yes"/>
      <point x="1230.0" y="296.00000000000006"/>
      <point x="1096.888888888889" y="167.77777777777783"/>
      <point x="816.0" y="167.77777777777783" type="curve" smooth="yes"/>
      <point x="535.1111111111112" y="167.77777777777783"/>
      <point x="402.0000000000001" y="296.00000000000006"/>
      <point x="402.0000000000001" y="594.8888888888889" type="curve" smooth="yes"/>
      <point x="402.0000000000001" y="1480.0" type="line"/>
      <point x="175.33333333333331" y="1480.0" type="line"/>
      <point x="175.33333333333331" y="615.7777777777778" type="line" smooth="yes"/>
      <point x="175.33333333333331" y="189.7777777777778"/>
      <point x="371.77777777777777" y="-18.77777777777778"/>
    </contour>
    <contour>
      <point x="415.44444444444446" y="1604.3333333333333" type="line"/>
      <point x="613.2222222222222" y="1604.3333333333333" type="line"/>
      <point x="841.7777777777778" y="1828.111111111111" type="line"/>
      <point x="790.2222222222222" y="1828.111111111111" type="line"/>
      <point x="1018.7777777777778" y="1604.3333333333333" type="line"/>
      <point x="1216.5555555555557" y="1604.3333333333333" type="line"/>
      <point x="913.8888888888889" y="1893.4444444444443" type="line"/>
      <point x="718.1111111111111" y="1893.4444444444443" type="line"/>
    </contour>
  </outline>
</glyph>
<glyph name="Udieresis" format="2">
  <advance width="1627.6666666666667"/>
  <unicode hex="00DC"/>
  <anchor x="816.0" y="1520.0" name="_top"/>
  <anchor x="816.0" y="0.0" name="bottom"/>
  <anchor x="1009.2222222222222" y="2.4444444444444438" name="ogonek"/>
  <anchor x="816.0" y="1520.0" name="top"/>
  <anchor x="1230.0" y="1480.0" name="topright"/>
  <outline>
    <contour>
      <point x="816.0" y="-18.77777777777778" type="curve" smooth="yes"/>
      <point x="1256.3333333333335" y="-18.77777777777778"/>
      <point x="1452.3333333333335" y="189.7777777777778"/>
      <point x="1452.3333333333335" y="615.7777777777778" type="curve" smooth="yes"/>
      <point x="1452.3333333333335" y="1480.0" type="line"/>
      <point x="1230.0" y="1480.0" type="line"/>
      <point x="1230.0" y="594.8888888888889" type="line" smooth="yes"/>
      <point x="1230.0" y="296.00000000000006"/>
      <point x="1096.888888888889" y="167.77777777777783"/>
      <point x="816.0" y="167.77777777777783" type="curve" smooth="yes"/>
      <point x="535.1111111111112" y="167.77777777777783"/>
      <point x="402.0000000000001" y="296.00000000000006"/>
      <point x="402.0000000000001" y="594.8888888888889" type="curve" smooth="yes"/>
      <point x="402.0000000000001" y="1480.0" type="line"/>
      <point x="175.33333333333331" y="1480.0" type="line"/>
      <point x="175.33333333333331" y="615.7777777777778" type="line" smooth="yes"/>
      <point x="175.33333333333331" y="189.7777777777778"/>
      <point x="371.77777777777777" y="-18.77777777777778"/>
    </contour>
    <contour>
      <point x="1090.0" y="1643.3333333333333" type="curve" smooth="yes"/>
      <point x="1174.2222222222222" y="1643.3333333333333"/>
      <point x="1216.5555555555557" y="1684.4444444444443"/>
      <point x="1216.5555555555557" y="1751.2222222222222" type="curve" smooth="yes"/>
      <point x="1216.5555555555557" y="1818.0"/>
      <point x="1174.2222222222222" y="1860.3333333333333"/>
      <point x="1090.0" y="1860.3333333333333" type="curve" smooth="yes"/>
      <point x="1005.7777777777778" y="1860.3333333333333"/>
      <point x="963.4444444444445" y="1818.0"/>
      <point x="963.4444444444445" y="1751.2222222222222" type="curve" smooth="yes"/>
      <point x="963.4444444444445" y="1684.4444444444443"/>
      <point x="1005.7777777777778" y="1643.3333333333333"/>
    </contour>
    <contour>
      <point x="542.0" y="1643.3333333333333" type="curve" smooth="yes"/>
      <point x="626.2222222222223" y="1643.3333333333333"/>
      <point x="668.5555555555557" y="1684.4444444444443"/>
      <point x="668.5555555555557" y="1751.2222222222222" type="curve" smooth="yes"/>
      <point x="668.5555555555557" y="1818.0"/>
      <point x="626.2222222222223" y="1860.3333333333333"/>
      <point x="542.0" y="1860.3333333333333" type="curve" smooth="yes"/>
      <point x="457.77777777777777" y="1860.3333333333333"/>
      <point x="415.44444444444446" y="1818.0"/>
      <point x="415.44444444444446" y="1751.2222222222222" type="curve" smooth="yes"/>
      <point x="415.44444444444446" y="1684.4444444444443"/>
      <point x="457.77777777777777" y="1643.3333333333333"/>
    </contour>
  </outline>
</glyph>
<glyph name="Yacute" format="2">
  <advance width="1356.0"/>
  <unicode hex="00DD"/>
  <anchor x="677.2222222222222" y="1520.0" name="_top"/>
  <anchor x="677.2222222222222" y="0.0" name="bottom"/>
  <anchor x="677.2222222222222" y="1520.0" name="top"/>
  <anchor x="14.444444444444446" y="1480.0" name="topleft"/>
  <outline>
    <contour>
      <point x="566.2222222222222" y="0.0" type="line"/>
      <point x="792.8888888888889" y="0.0" type="line"/>
      <point x="792.8888888888889" y="733.2222222222223" type="line"/>
      <point x="744.8888888888889" y="579.6666666666666" type="line"/>
      <point x="1376.4444444444446" y="1480.0" type="line"/>
      <point x="1143.111111111111" y="1480.0" type="line"/>
      <point x="646.0" y="776.6666666666667" type="line"/>
      <point x="721.7777777777778" y="776.6666666666667" type="line"/>
      <point x="215.88888888888894" y="1480.0" type="line"/>
      <point x="-33.11111111111112" y="1480.0" type="line"/>
      <point x="614.2222222222222" y="579.6666666666666" type="line"/>
      <point x="566.2222222222222" y="735.5555555555555" type="line"/>
    </contour>
    <contour>
      <point x="572.0" y="1604.3333333333333" type="line"/>
      <point x="779.3333333333335" y="1604.3333333333333" type="line"/>
      <point x="1029.3333333333335" y="1893.4444444444443" type="line"/>
      <point x="787.0" y="1893.4444444444443" type="line"/>
    </contour>
  </outline>
</glyph>
<glyph name="Thorn" format="2">
  <advance width="1407.2222222222222"/>
  <unicode hex="00DE"/>
  <outline>
    <contour>
      <point x="182.55555555555554" y="0.0" type="line"/>
      <point x="409.2222222222223" y="0.0" type="line"/>
      <point x="409.2222222222223" y="254.88888888888889" type="line"/>
      <point x="485.11111111111114" y="248.77777777777777"/>
      <point x="550.2222222222223" y="245.55555555555554"/>
      <point x="625.2222222222223" y="245.55555555555554" type="curve" smooth="yes"/>
      <point x="1089.5555555555557" y="245.55555555555554"/>
      <point x="1302.111111111111" y="426.66666666666663"/>
      <point x="1302.111111111111" y="762.4444444444445" type="curve" smooth="yes"/>
      <point x="1302.111111111111" y="1117.888888888889"/>
      <point x="1074.111111111111" y="1274.4444444444443"/>
      <point x="639.5555555555555" y="1274.4444444444443" type="curve" smooth="yes"/>
      <point x="543.4444444444445" y="1274.4444444444443"/>
      <point x="472.33333333333337" y="1266.3333333333333"/>
      <point x="409.2222222222223" y="1256.5555555555557" type="curve"/>
      <point x="409.2222222222223" y="1481.2222222222222" type="line"/>
      <point x="182.55555555555554" y="1481.2222222222222" type="line"/>
    </contour>
    <contour>
      <point x="625.2222222222223" y="412.6666666666667" type="curve" smooth="yes"/>
      <point x="543.0" y="412.6666666666667"/>
      <point x="479.66666666666674" y="417.11111111111114"/>
      <point x="409.2222222222223" y="426.0" type="curve"/>
      <point x="409.2222222222223" y="1087.111111111111" type="line"/>
      <point x="482.66666666666674" y="1100.4444444444443"/>
      <point x="558.2222222222223" y="1107.3333333333333"/>
      <point x="653.5555555555555" y="1107.3333333333333" type="curve" smooth="yes"/>
      <point x="939.3333333333333" y="1107.3333333333333"/>
      <point x="1080.0" y="1002.6666666666666"/>
      <point x="1080.0" y="761.2222222222222" type="curve" smooth="yes"/>
      <point x="1080.0" y="524.4444444444445"/>
      <point x="950.3333333333334" y="412.6666666666667"/>
    </contour>
  </outline>
</glyph>
<glyph name="germandbls" format="2">
  <advance width="1639.3333333333335"/>
  <unicode hex="00DF"/>
  <outline>
    <contour>
      <point x="1047.6666666666667" y="-19.555555555555557" type="curve" smooth="yes"/>
      <point x="1395.0" y="-19.555555555555557"/>
      <point x="1559.6666666666667" y="107.77777777777779"/>
      <point x="1559.6666666666667" y="310.77777777777777" type="curve" smooth="yes"/>
      <point x="1559.6666666666667" y="492.33333333333337"/>
      <point x="1457.4444444444446" y="574.7777777777778"/>
      <point x="1237.1111111111113" y="610.1111111111111" type="curve" smooth="yes"/>
      <point x="1043.888888888889" y="640.1111111111111" type="line" smooth="yes"/>
      <point x="919.3333333333335" y="662.0"/>
      <point x="884.1111111111112" y="714.7777777777778"/>
      <point x="884.1111111111112" y="784.1111111111111" type="curve" smooth="yes"/>
      <point x="884.1111111111112" y="875.6666666666666"/>
      <point x="950.0000000000001" y="946.0"/>
      <point x="1197.5555555555557" y="946.0" type="curve" smooth="yes"/>
      <point x="1273.2222222222222" y="946.0"/>
      <point x="1326.6666666666667" y="940.3333333333333"/>
      <point x="1370.0" y="935.1111111111111" type="curve"/>
      <point x="1386.7777777777778" y="999.6666666666666"/>
      <point x="1398.3333333333335" y="1072.7777777777778"/>
      <point x="1398.3333333333335" y="1137.2222222222222" type="curve" smooth="yes"/>
      <point x="1398.3333333333335" y="1478.888888888889"/>
      <point x="1173.5555555555557" y="1636.0"/>
      <point x="855.7777777777778" y="1636.0" type="curve" smooth="yes"/>
      <point x="469.8888888888889" y="1636.0"/>
      <point x="249.55555555555554" y="1437.4444444444443"/>
      <point x="249.55555555555554" y="1062.0" type="curve" smooth="yes"/>
      <point x="249.55555555555554" y="0.0" type="line"/>
      <point x="471.5555555555556" y="0.0" type="line"/>
      <point x="471.5555555555556" y="1064.5555555555554" type="line" smooth="yes"/>
      <point x="471.5555555555556" y="1352.5555555555554"/>
      <point x="609.1111111111111" y="1480.5555555555554"/>
      <point x="870.8888888888889" y="1480.5555555555554" type="curve" smooth="yes"/>
      <point x="1085.111111111111" y="1480.5555555555554"/>
      <point x="1235.5555555555557" y="1391.2222222222222"/>
      <point x="1234.3333333333335" y="1161.2222222222222" type="curve" smooth="yes"/>
      <point x="1234.3333333333335" y="1112.0"/>
      <point x="1226.0" y="1051.6666666666667"/>
      <point x="1210.888888888889" y="999.8888888888889" type="curve"/>
      <point x="1332.3333333333335" y="1090.2222222222222" type="line"/>
      <point x="1282.6666666666667" y="1095.4444444444443"/>
      <point x="1213.0" y="1098.6666666666667"/>
      <point x="1164.1111111111113" y="1098.6666666666667" type="curve" smooth="yes"/>
      <point x="826.7777777777778" y="1098.6666666666667"/>
      <point x="670.5555555555557" y="968.7777777777778"/>
      <point x="670.5555555555557" y="772.6666666666666" type="curve" smooth="yes"/>
      <point x="670.5555555555557" y="611.8888888888889"/>
      <point x="757.2222222222223" y="508.88888888888886"/>
      <point x="987.7777777777778" y="472.44444444444446" type="curve" smooth="yes"/>
      <point x="1181.0" y="442.4444444444444" type="line" smooth="yes"/>
      <point x="1309.2222222222222" y="420.55555555555554"/>
      <point x="1346.111111111111" y="378.77777777777777"/>
      <point x="1346.111111111111" y="298.11111111111114" type="curve" smooth="yes"/>
      <point x="1346.111111111111" y="198.11111111111114"/>
      <point x="1271.888888888889" y="139.00000000000003"/>
      <point x="1048.2222222222222" y="139.00000000000003" type="curve" smooth="yes"/>
      <point x="934.0" y="139.00000000000003"/>
      <point x="807.7777777777778" y="154.44444444444449"/>
      <point x="690.7777777777778" y="185.77777777777783" type="curve"/>
      <point x="690.7777777777778" y="25.22222222222222" type="line"/>
      <point x="802.1111111111111" y="-6.0"/>
      <point x="929.6666666666667" y="-19.555555555555557"/>
    </contour>
    <contour>
      <point x="32.88888888888889" y="902.7777777777777" type="line"/>
      <point x="339.22222222222223" y="902.7777777777777" type="line"/>
      <point x="339.22222222222223" y="1087.7777777777778" type="line"/>
      <point x="32.88888888888889" y="1087.7777777777778" type="line"/>
    </contour>
  </outline>
</glyph>
<glyph name="atilde" format="2">
  <advance width="1198.5555555555557"/>
  <unicode hex="00E3"/>
  <anchor x="595.8888888888889" y="1200.0" name="_top"/>
  <anchor x="610.5555555555555" y="0.0" name="bottom"/>
  <anchor x="1047.7777777777778" y="0.0" name="ogonek"/>
  <anchor x="595.8888888888889" y="1200.0" name="top"/>
  <outline>
    <contour>
      <point x="481.8888888888889" y="-18.333333333333336" type="curve" smooth="yes"/>
      <point x="621.7777777777778" y="-18.333333333333336"/>
      <point x="753.3333333333334" y="31.999999999999993"/>
      <point x="833.7777777777778" y="116.88888888888889" type="curve"/>
      <point x="846.4444444444445" y="116.88888888888889" type="line"/>
      <point x="861.7777777777778" y="0.0" type="line"/>
      <point x="1047.7777777777778" y="0.0" type="line"/>
      <point x="1047.7777777777778" y="674.2222222222222" type="line" smooth="yes"/>
      <point x="1047.7777777777778" y="1001.1111111111111"/>
      <point x="884.5555555555557" y="1104.5555555555557"/>
      <point x="552.0" y="1104.5555555555557" type="curve" smooth="yes"/>
      <point x="436.55555555555554" y="1104.5555555555557"/>
      <point x="297.0" y="1087.3333333333333"/>
      <point x="186.66666666666666" y="1051.3333333333333" type="curve"/>
      <point x="186.66666666666666" y="884.5555555555555" type="line"/>
      <point x="300.77777777777777" y="921.8888888888888"/>
      <point x="426.55555555555554" y="936.6666666666666"/>
      <point x="520.5555555555555" y="936.6666666666666" type="curve" smooth="yes"/>
      <point x="731.0" y="936.6666666666666"/>
      <point x="829.6666666666666" y="882.5555555555555"/>
      <point x="829.6666666666666" y="688.5555555555555" type="curve" smooth="yes"/>
      <point x="829.6666666666666" y="249.8888888888889" type="line"/>
      <point x="749.0" y="172.8888888888889"/>
      <point x="644.8888888888889" y="136.33333333333337"/>
      <point x="541.0" y="136.33333333333337" type="curve" smooth="yes"/>
      <point x="394.66666666666674" y="136.33333333333337"/>
      <point x="327.7777777777778" y="200.11111111111114"/>
      <point x="327.7777777777778" y="302.33333333333337" type="curve" smooth="yes"/>
      <point x="327.7777777777778" y="403.6666666666667"/>
      <point x="394.33333333333337" y="460.1111111111111"/>
      <point x="574.8888888888889" y="479.55555555555554" type="curve" smooth="yes"/>
      <point x="899.5555555555555" y="512.3333333333333" type="line"/>
      <point x="884.8888888888889" y="642.8888888888889" type="line"/>
      <point x="558.2222222222222" y="610.1111111111111" type="line" smooth="yes"/>
      <point x="238.22222222222223" y="582.3333333333334"/>
      <point x="104.44444444444443" y="475.8888888888889"/>
      <point x="104.44444444444443" y="285.11111111111114" type="curve" smooth="yes"/>
      <point x="104.44444444444443" y="103.22222222222223"/>
      <point x="236.66666666666666" y="-18.333333333333336"/>
    </contour>
    <contour>
      <point x="756.7777777777778" y="1325.5555555555554" type="curve" smooth="yes"/>
      <point x="838.4444444444445" y="1325.5555555555554"/>
      <point x="900.6666666666667" y="1347.888888888889"/>
      <point x="950.7777777777778" y="1395.6666666666667" type="curve"/>
      <point x="950.7777777777778" y="1539.111111111111" type="line"/>
      <point x="891.8888888888889" y="1484.111111111111"/>
      <point x="835.2222222222222" y="1460.5555555555557"/>
      <point x="761.4444444444445" y="1460.5555555555557" type="curve" smooth="yes"/>
      <point x="657.0" y="1460.5555555555557"/>
      <point x="559.1111111111111" y="1545.4444444444443"/>
      <point x="435.0" y="1545.4444444444443" type="curve" smooth="yes"/>
      <point x="353.33333333333337" y="1545.4444444444443"/>
      <point x="291.1111111111111" y="1523.111111111111"/>
      <point x="241.0" y="1475.3333333333333" type="curve"/>
      <point x="241.0" y="1331.888888888889" type="line"/>
      <point x="299.8888888888889" y="1386.888888888889"/>
      <point x="356.55555555555554" y="1410.4444444444443"/>
      <point x="430.33333333333337" y="1410.4444444444443" type="curve" smooth="yes"/>
      <point x="534.7777777777778" y="1410.4444444444443"/>
      <point x="632.6666666666667" y="1325.5555555555554"/>
    </contour>
  </outline>
</glyph>
<glyph name="ae" format="2">
  <advance width="1915.4444444444443"/>
  <unicode hex="00E6"/>
  <anchor x="943.7777777777778" y="0.0" name="bottom"/>
  <anchor x="943.7777777777778" y="1200.0" name="top"/>
  <outline>
    <contour>
      <point x="1428.7777777777778" y="-19.555555555555557" type="curve" smooth="yes"/>
      <point x="1536.6666666666667" y="-19.555555555555557"/>
      <point x="1647.5555555555557" y="-6.222222222222225"/>
      <point x="1767.5555555555557" y="25.111111111111107" type="curve"/>
      <point x="1767.5555555555557" y="190.33333333333337" type="line"/>
      <point x="1662.6666666666667" y="162.8888888888889"/>
      <point x="1555.6666666666667" y="146.77777777777783"/>
      <point x="1460.0" y="146.77777777777783" type="curve" smooth="yes"/>
      <point x="1171.111111111111" y="146.77777777777783"/>
      <point x="1047.7777777777778" y="252.66666666666669"/>
      <point x="1047.7777777777778" y="512.6666666666666" type="curve" smooth="yes"/>
      <point x="1047.7777777777778" y="588.4444444444445" type="line" smooth="yes"/>
      <point x="1047.7777777777778" y="844.6666666666666"/>
      <point x="1150.3333333333335" y="958.4444444444445"/>
      <point x="1336.5555555555557" y="958.4444444444445" type="curve" smooth="yes"/>
      <point x="1522.7777777777778" y="958.4444444444445"/>
      <point x="1620.4444444444443" y="842.6666666666666"/>
      <point x="1620.4444444444443" y="587.6666666666667" type="curve"/>
      <point x="1670.111111111111" y="611.7777777777778" type="line"/>
      <point x="989.1111111111111" y="611.7777777777778" type="line"/>
      <point x="989.1111111111111" y="478.1111111111111" type="line"/>
      <point x="1828.888888888889" y="478.1111111111111" type="line"/>
      <point x="1828.888888888889" y="538.5555555555555" type="line" smooth="yes"/>
      <point x="1828.888888888889" y="903.0"/>
      <point x="1654.888888888889" y="1104.5555555555557"/>
      <point x="1347.4444444444443" y="1104.5555555555557" type="curve" smooth="yes"/>
      <point x="1043.111111111111" y="1104.5555555555557"/>
      <point x="856.6666666666666" y="906.6666666666666"/>
      <point x="856.6666666666666" y="558.2222222222222" type="curve"/>
      <point x="829.6666666666666" y="544.7777777777778" type="line"/>
      <point x="829.6666666666666" y="156.0"/>
      <point x="1033.6666666666667" y="-19.555555555555557"/>
    </contour>
    <contour>
      <point x="498.6666666666667" y="-18.333333333333336" type="curve" smooth="yes"/>
      <point x="654.1111111111111" y="-18.333333333333336"/>
      <point x="813.2222222222222" y="32.77777777777778"/>
      <point x="961.2222222222222" y="189.11111111111111" type="curve"/>
      <point x="883.8888888888889" y="300.44444444444446" type="line"/>
      <point x="778.1111111111111" y="176.77777777777783"/>
      <point x="658.1111111111111" y="136.33333333333337"/>
      <point x="543.0" y="136.33333333333337" type="curve" smooth="yes"/>
      <point x="397.1111111111112" y="136.33333333333337"/>
      <point x="327.7777777777778" y="198.5555555555556"/>
      <point x="327.7777777777778" y="302.77777777777777" type="curve" smooth="yes"/>
      <point x="327.7777777777778" y="404.1111111111111"/>
      <point x="393.55555555555554" y="479.66666666666663"/>
      <point x="591.2222222222222" y="479.66666666666663" type="curve" smooth="yes"/>
      <point x="874.6666666666667" y="479.66666666666663" type="line"/>
      <point x="874.6666666666667" y="611.7777777777778" type="line"/>
      <point x="579.0" y="611.7777777777778" type="line" smooth="yes"/>
      <point x="240.66666666666666" y="611.7777777777778"/>
      <point x="104.44444444444443" y="479.44444444444446"/>
      <point x="104.44444444444443" y="287.11111111111114" type="curve" smooth="yes"/>
      <point x="104.44444444444443" y="103.22222222222223"/>
      <point x="240.33333333333331" y="-18.333333333333336"/>
    </contour>
    <contour>
      <point x="829.6666666666666" y="544.7777777777778" type="line"/>
      <point x="1020.7777777777778" y="526.4444444444445" type="line"/>
      <point x="1020.7777777777778" y="674.2222222222222" type="line" smooth="yes"/>
      <point x="1020.7777777777778" y="1001.1111111111111"/>
      <point x="858.7777777777778" y="1104.5555555555557"/>
      <point x="544.2222222222222" y="1104.5555555555557" type="curve" smooth="yes"/>
      <point x="428.77777777777777" y="1104.5555555555557"/>
      <point x="297.0" y="1087.3333333333333"/>
      <point x="186.66666666666666" y="1051.3333333333333" type="curve"/>
      <point x="186.66666666666666" y="884.5555555555555" type="line"/>
      <point x="300.77777777777777" y="921.8888888888888"/>
      <point x="426.55555555555554" y="936.6666666666666"/>
      <point x="520.5555555555555" y="936.6666666666666" type="curve" smooth="yes"/>
      <point x="731.0" y="936.6666666666666"/>
      <point x="829.6666666666666" y="882.5555555555555"/>
      <point x="829.6666666666666" y="688.5555555555555" type="curve" smooth="yes"/>
    </contour>
  </outline>
</glyph>
<glyph name="igrave" format="2">
  <advance width="551.7777777777778"/>
  <unicode hex="00EC"/>
  <anchor x="275.8888888888889" y="1200.0" name="_top"/>
  <anchor x="275.8888888888889" y="0.0" name="bottom"/>
  <anchor x="386.8888888888889" y="0.0" name="ogonek"/>
  <anchor x="275.8888888888889" y="1200.0" name="top"/>
  <outline>
    <contour>
      <point x="164.88888888888889" y="0.0" type="line"/>
      <point x="386.8888888888889" y="0.0" type="line"/>
      <point x="386.8888888888889" y="1087.7777777777778" type="line"/>
      <point x="164.88888888888889" y="1087.7777777777778" type="line"/>
    </contour>
    <contour>
      <point x="168.33333333333331" y="1246.888888888889" type="line"/>
      <point x="383.4444444444445" y="1246.888888888889" type="line"/>
      <point x="119.3333333333334" y="1616.0" type="line"/>
      <point x="-129.5555555555556" y="1616.0" type="line"/>
    </contour>
  </outline>
</glyph>
<glyph name="iacute" format="2">
  <advance width="551.7777777777778"/>
  <unicode hex="00ED"/>
  <anchor x="275.8888888888889" y="1200.0" name="_top"/>
  <anchor x="275.8888888888889" y="0.0" name="bottom"/>
  <anchor x="386.8888888888889" y="0.0" name="ogonek"/>
  <anchor x="275.8888888888889" y="1200.0" name="top"/>
  <outline>
    <contour>
      <point x="164.88888888888889" y="0.0" type="line"/>
      <point x="386.8888888888889" y="0.0" type="line"/>
      <point x="386.8888888888889" y="1087.7777777777778" type="line"/>
      <point x="164.88888888888889" y="1087.7777777777778" type="line"/>
    </contour>
    <contour>
      <point x="168.33333333333331" y="1246.888888888889" type="line"/>
      <point x="383.4444444444445" y="1246.888888888889" type="line"/>
      <point x="681.3333333333334" y="1616.0" type="line"/>
      <point x="432.44444444444446" y="1616.0" type="line"/>
    </contour>
  </outline>
</glyph>
<glyph name="icircumflex" format="2">
  <advance width="551.7777777777778"/>
  <unicode hex="00EE"/>
  <anchor x="275.8888888888889" y="1200.0" name="_top"/>
  <anchor x="275.8888888888889" y="0.0" name="bottom"/>
  <anchor x="386.8888888888889" y="0.0" name="ogonek"/>
  <anchor x="275.8888888888889" y="1200.0" name="top"/>
  <outline>
    <contour>
      <point x="164.88888888888889" y="0.0" type="line"/>
      <point x="386.8888888888889" y="0.0" type="line"/>
      <point x="386.8888888888889" y="1087.7777777777778" type="line"/>
      <point x="164.88888888888889" y="1087.7777777777778" type="line"/>
    </contour>
    <contour>
      <point x="-86.66666666666669" y="1246.888888888889" type="line"/>
      <point x="90.88888888888891" y="1246.888888888889" type="line"/>
      <point x="300.11111111111114" y="1539.111111111111" type="line"/>
      <point x="251.66666666666669" y="1539.111111111111" type="line"/>
      <point x="460.8888888888889" y="1246.888888888889" type="line"/>
      <point x="638.4444444444446" y="1246.888888888889" type="line"/>
      <point x="368.33333333333337" y="1616.0" type="line"/>
      <point x="183.44444444444446" y="1616.0" type="line"/>
    </contour>
  </outline>
</glyph>
<glyph name="idieresis" format="2">
  <advance width="551.7777777777778"/>
  <unicode hex="00EF"/>
  <anchor x="275.8888888888889" y="1200.0" name="_top"/>
  <anchor x="275.8888888888889" y="0.0" name="bottom"/>
  <anchor x="386.8888888888889" y="0.0" name="ogonek"/>
  <anchor x="275.8888888888889" y="1200.0" name="top"/>
  <outline>
    <contour>
      <point x="164.88888888888889" y="0.0" type="line"/>
      <point x="386.8888888888889" y="0.0" type="line"/>
      <point x="386.8888888888889" y="1087.7777777777778" type="line"/>
      <point x="164.88888888888889" y="1087.7777777777778" type="line"/>
    </contour>
    <contour>
      <point x="533.7777777777778" y="1301.6666666666667" type="curve" smooth="yes"/>
      <point x="618.7777777777778" y="1301.6666666666667"/>
      <point x="662.6666666666667" y="1346.6666666666667"/>
      <point x="662.6666666666667" y="1420.4444444444443" type="curve" smooth="yes"/>
      <point x="662.6666666666667" y="1494.2222222222222"/>
      <point x="618.7777777777778" y="1540.4444444444446"/>
      <point x="533.7777777777778" y="1540.4444444444446" type="curve" smooth="yes"/>
      <point x="448.77777777777777" y="1540.4444444444446"/>
      <point x="404.8888888888889" y="1494.2222222222222"/>
      <point x="404.8888888888889" y="1420.4444444444443" type="curve" smooth="yes"/>
      <point x="404.8888888888889" y="1346.6666666666667"/>
      <point x="448.77777777777777" y="1301.6666666666667"/>
    </contour>
    <contour>
      <point x="18.00000000000001" y="1301.6666666666667" type="curve" smooth="yes"/>
      <point x="103.00000000000003" y="1301.6666666666667"/>
      <point x="146.8888888888889" y="1346.6666666666667"/>
      <point x="146.8888888888889" y="1420.4444444444443" type="curve" smooth="yes"/>
      <point x="146.8888888888889" y="1494.2222222222222"/>
      <point x="103.00000000000003" y="1540.4444444444446"/>
      <point x="18.00000000000001" y="1540.4444444444446" type="curve" smooth="yes"/>
      <point x="-67.00000000000001" y="1540.4444444444446"/>
      <point x="-110.8888888888889" y="1494.2222222222222"/>
      <point x="-110.8888888888889" y="1420.4444444444443" type="curve" smooth="yes"/>
      <point x="-110.8888888888889" y="1346.6666666666667"/>
      <point x="-67.00000000000001" y="1301.6666666666667"/>
    </contour>
  </outline>
</glyph>
<glyph name="eth" format="2">
  <advance width="1305.111111111111"/>
  <unicode hex="00F0"/>
  <outline>
    <contour>
      <point x="653.7777777777778" y="-19.555555555555557" type="curve" smooth="yes"/>
      <point x="987.0" y="-19.555555555555557"/>
      <point x="1200.7777777777778" y="175.66666666666669"/>
      <point x="1202.3333333333335" y="590.2222222222223" type="curve" smooth="yes"/>
      <point x="1203.888888888889" y="981.2222222222222"/>
      <point x="952.7777777777778" y="1394.2222222222222"/>
      <point x="621.7777777777778" y="1616.0" type="curve"/>
      <point x="334.66666666666663" y="1616.0" type="line"/>
      <point x="639.8888888888889" y="1419.6666666666667"/>
      <point x="835.1111111111111" y="1172.5555555555557"/>
      <point x="920.0" y="917.6666666666666" type="curve"/>
      <point x="1031.2222222222222" y="859.6666666666667" type="line"/>
      <point x="938.8888888888889" y="1041.3333333333333"/>
      <point x="797.7777777777778" y="1099.111111111111"/>
      <point x="632.3333333333334" y="1099.111111111111" type="curve" smooth="yes"/>
      <point x="318.8888888888889" y="1099.111111111111"/>
      <point x="103.88888888888889" y="918.2222222222222"/>
      <point x="103.88888888888889" y="543.8888888888889" type="curve" smooth="yes"/>
      <point x="103.88888888888889" y="167.0"/>
      <point x="320.33333333333337" y="-19.555555555555557"/>
    </contour>
    <contour>
      <point x="653.7777777777778" y="156.11111111111114" type="curve" smooth="yes"/>
      <point x="449.0" y="156.11111111111114"/>
      <point x="326.00000000000006" y="268.0"/>
      <point x="326.00000000000006" y="545.1111111111111" type="curve" smooth="yes"/>
      <point x="326.00000000000006" y="819.7777777777777"/>
      <point x="449.0" y="930.4444444444443"/>
      <point x="652.5555555555555" y="930.4444444444443" type="curve" smooth="yes"/>
      <point x="856.1111111111111" y="930.4444444444443"/>
      <point x="979.1111111111111" y="819.7777777777777"/>
      <point x="979.1111111111111" y="542.6666666666666" type="curve" smooth="yes"/>
      <point x="979.1111111111111" y="274.11111111111114"/>
      <point x="856.1111111111111" y="156.11111111111114"/>
    </contour>
    <contour>
      <point x="224.55555555555554" y="1198.6666666666667" type="line"/>
      <point x="1171.7777777777778" y="1346.4444444444443" type="line"/>
      <point x="1150.5555555555557" y="1477.5555555555557" type="line"/>
      <point x="203.33333333333331" y="1329.7777777777778" type="line"/>
    </contour>
  </outline>
</glyph>
